<svg width="27" height="42" viewBox="0 0 27 42" fill="none" xmlns="http://www.w3.org/2000/svg">
<path d="M10.5258 0V5.23672H6.59826C3.0373 5.23672 0.0523672 8.22165 0.0523672 11.7826V14.401C0.0523672 17.9619 2.35652 20.8945 5.76039 21.7847L19.1664 25.241C19.8995 25.4504 20.9469 26.7596 20.9469 27.5451V30.1635C20.9469 30.8966 20.3708 31.4727 19.6377 31.4727H6.5459C5.91749 31.4727 5.44619 31.2632 5.23672 31.1585V26.236H0V31.4727C0 33.2532 1.04734 34.7718 2.30416 35.5573C3.5086 36.3952 5.02725 36.7094 6.5459 36.7094H10.4734V41.9461H15.7102V36.7094H19.6377C23.251 36.7094 26.1836 33.7768 26.1836 30.1635V27.5451C26.1836 23.9842 23.8794 21.0516 20.4756 20.1614L7.06957 16.7051C6.33643 16.4957 5.28908 15.1865 5.28908 14.401V11.7826C5.28908 11.0495 5.86512 10.4734 6.59826 10.4734H19.6901C20.2661 10.4734 20.7898 10.6829 20.9992 10.7876V15.7102H26.236V10.4734C26.236 8.69295 25.1886 7.1743 23.9318 6.3888C22.7274 5.55092 21.2087 5.23672 19.6901 5.23672H15.7625V0L10.5258 0Z" fill="white"/>
</svg>
