<?xml version="1.0" encoding="UTF-8" standalone="no"?>
<svg
   version="1.1"
   width="3613.5"
   height="3977.0024"
   style="clip-rule:evenodd;fill-rule:evenodd;image-rendering:optimizeQuality;shape-rendering:geometricPrecision;text-rendering:geometricPrecision"
   id="svg390"
   sodipodi:docname="hhlogo.svg"
   inkscape:version="1.2.2 (b0a8486541, 2022-12-01)"
   xmlns:inkscape="http://www.inkscape.org/namespaces/inkscape"
   xmlns:sodipodi="http://sodipodi.sourceforge.net/DTD/sodipodi-0.dtd"
   xmlns="http://www.w3.org/2000/svg"
   xmlns:svg="http://www.w3.org/2000/svg">
  <defs
     id="defs394" />
  <sodipodi:namedview
     id="namedview392"
     pagecolor="#ffffff"
     bordercolor="#666666"
     borderopacity="1.0"
     inkscape:showpageshadow="2"
     inkscape:pageopacity="0.0"
     inkscape:pagecheckerboard="true"
     inkscape:deskcolor="#d1d1d1"
     showgrid="false"
     inkscape:zoom="0.10328968"
     inkscape:cx="726.1132"
     inkscape:cy="1679.7419"
     inkscape:window-width="1890"
     inkscape:window-height="1030"
     inkscape:window-x="15"
     inkscape:window-y="15"
     inkscape:window-maximized="1"
     inkscape:current-layer="svg390" />
  <g
     id="g8"
     transform="translate(-1200,-786.5)">
    <path
       style="opacity:1"
       fill="#e6c129"
       d="m 4465.5,1932.5 c -6.61,0.91 -12.61,-0.59 -18,-4.5 -489.1,-273.3 -978.27,-546.47 -1467.5,-819.5 -483.23,269.37 -966.4,538.87 -1449.5,808.5 -8.75,4.79 -17.25,9.96 -25.5,15.5 -0.75,1.14 -0.58,2.14 0.5,3 230.5,131.09 461.17,261.92 692,392.5 0.67,0.99 0.67,2.15 0,3.5 -5.23,2.36 -10.06,5.36 -14.5,9 -5.82,316 -11.15,632 -16,948 270.31,163.9 540.48,327.9 810.5,492 1.99,179.86 2.66,359.86 2,540 0.33,40.17 0,80.17 -1,120 -498.11,-276.98 -995.94,-554.64 -1493.5,-833 -0.5,-553.67 -0.67,-1107.33 -0.5,-1661 -4.11,-0.98 -8.11,-2.48 -12,-4.5 -87.33,-51.67 -174.67,-103.33 -262,-155 -2.95,-2.44 -5.28,-5.27 -7,-8.5 0.79,-1.29 1.79,-2.46 3,-3.5 585.83,-326.75 1171.49,-653.75 1757,-981 5.33,-3.031 10.83,-5.531 16.5,-7.5 5.67,1.969 11.17,4.469 16.5,7.5 567.51,317.25 1135.17,634.25 1703,951 1.9,1.81 2.4,3.97 1.5,6.5 -43.44,44.24 -89.61,85.08 -138.5,122.5 -30.73,22.04 -63.06,41.54 -97,58.5 z"
       id="path6" />
  </g>
  <g
     id="g12"
     transform="translate(-1200,-786.5)">
    <path
       style="opacity:0.999"
       fill="#e9915f"
       d="m 4465.5,1932.5 c 3.34,1.1 6.18,3.1 8.5,6 0.9,2.53 0.4,4.69 -1.5,6.5 -142.94,93.27 -285.6,186.94 -428,281 -74.16,47.25 -148.5,94.25 -223,141 -1.78,0.7 -3.61,1.2 -5.5,1.5 -11.51,-5.5 -22.67,-11.67 -33.5,-18.5 -256,-155 -512,-310 -768,-465 -1.85,-1.13 -3.85,-1.63 -6,-1.5 0.15,-1.05 -0.02,-2.05 -0.5,-3 -268.26,150.55 -536.76,300.71 -805.5,450.5 -1.63,0.49 -3.3,0.66 -5,0.5 0.67,-1.35 0.67,-2.51 0,-3.5 -230.83,-130.58 -461.5,-261.41 -692,-392.5 -1.08,-0.86 -1.25,-1.86 -0.5,-3 8.25,-5.54 16.75,-10.71 25.5,-15.5 483.1,-269.63 966.27,-539.13 1449.5,-808.5 489.23,273.03 978.4,546.2 1467.5,819.5 5.39,3.91 11.39,5.41 18,4.5 z"
       id="path10" />
  </g>
  <g
     id="g16"
     transform="translate(-1200,-786.5)">
    <path
       style="opacity:0.997"
       fill="#e9915f"
       d="m 1203.5,1778.5 c 1.72,3.23 4.05,6.06 7,8.5 87.33,51.67 174.67,103.33 262,155 3.89,2.02 7.89,3.52 12,4.5 -0.17,553.67 0,1107.33 0.5,1661 497.56,278.36 995.39,556.02 1493.5,833 0.06,0.54 0.39,0.88 1,1 1,-40.33 1.33,-80.66 1,-121 0,-0.33 0,-0.67 0,-1 1.83,39.99 2.66,80.32 2.5,121 0.91,0.83 1.58,1.83 2,3 0.17,9.83 0.33,19.67 0.5,29.5 -1.5,52.33 -2.83,104.67 -4,157 3.67,43.21 2.34,86.21 -4,129 1.43,1.71 1.09,3.05 -1,4 -2,0.67 -4,0.67 -6,0 -590.17,-316.83 -1180.33,-633.67 -1770.5,-950.5 0.49,-677.99 0.66,-1355.99 0.5,-2034 1,0 2,0 3,0 z"
       id="path14" />
  </g>
  <g
     id="g20"
     transform="translate(-1200,-786.5)">
    <path
       style="opacity:1"
       fill="#a98b99"
       d="m 3008.5,1906.5 c 1.33,0.67 1.33,0.67 0,0 z"
       id="path18" />
  </g>
  <g
     id="g24"
     transform="translate(-1200,-786.5)">
    <path
       style="opacity:1"
       fill="#a98b99"
       d="m 3007.5,1939.5 c 1.33,0.67 1.33,0.67 0,0 z"
       id="path22" />
  </g>
  <g
     id="g28"
     transform="translate(-1200,-786.5)">
    <path
       style="opacity:1"
       fill="#a98b99"
       d="m 3006.5,1968.5 c 1.33,0.67 1.33,0.67 0,0 z"
       id="path26" />
  </g>
  <g
     id="g32"
     transform="translate(-1200,-786.5)">
    <path
       style="opacity:1"
       fill="#a98b99"
       d="m 3005.5,1997.5 c 1.33,0.67 1.33,0.67 0,0 z"
       id="path30" />
  </g>
  <g
     id="g36"
     transform="translate(-1200,-786.5)">
    <path
       style="opacity:1"
       fill="#a98b99"
       d="m 3004.5,2025.5 c 1.33,0.67 1.33,0.67 0,0 z"
       id="path34" />
  </g>
  <g
     id="g40"
     transform="translate(-1200,-786.5)">
    <path
       style="opacity:1"
       fill="#7f727d"
       d="m 3528.5,2361.5 c 1.33,0.67 1.33,0.67 0,0 z"
       id="path38" />
  </g>
  <g
     id="g44"
     transform="translate(-1200,-786.5)">
    <path
       style="opacity:1"
       fill="#7f727d"
       d="m 3533.5,2364.5 c 1.33,0.67 1.33,0.67 0,0 z"
       id="path42" />
  </g>
  <g
     id="g48"
     transform="translate(-1200,-786.5)">
    <path
       style="opacity:1"
       fill="#7f727d"
       d="m 3538.5,2367.5 c 1.33,0.67 1.33,0.67 0,0 z"
       id="path46" />
  </g>
  <g
     id="g52"
     transform="translate(-1200,-786.5)">
    <path
       style="opacity:1"
       fill="#a88b99"
       d="m 3812.5,2371.5 c 1.03,0.4 1.19,1.06 0.5,2 -0.46,-0.59 -0.63,-1.26 -0.5,-2 z"
       id="path50" />
  </g>
  <g
     id="g56"
     transform="translate(-1200,-786.5)">
    <path
       style="opacity:0.871"
       fill="#7f727d"
       d="m 2409.5,2385.5 c 1.33,0.67 1.33,0.67 0,0 z"
       id="path54" />
  </g>
  <g
     id="g60"
     transform="translate(-1200,-786.5)">
    <path
       style="opacity:1"
       fill="#7f727d"
       d="m 2406.5,2387.5 c 1.33,0.67 1.33,0.67 0,0 z"
       id="path58" />
  </g>
  <g
     id="g64"
     transform="translate(-1200,-786.5)">
    <path
       style="opacity:1"
       fill="#7f727d"
       d="m 3571.5,2387.5 c 1.33,0.67 1.33,0.67 0,0 z"
       id="path62" />
  </g>
  <g
     id="g68"
     transform="translate(-1200,-786.5)">
    <path
       style="opacity:1"
       fill="#7f727d"
       d="m 2403.5,2389.5 c 1.33,0.67 1.33,0.67 0,0 z"
       id="path66" />
  </g>
  <g
     id="g72"
     transform="translate(-1200,-786.5)">
    <path
       style="opacity:1"
       fill="#7f727d"
       d="m 3576.5,2390.5 c 1.33,0.67 1.33,0.67 0,0 z"
       id="path70" />
  </g>
  <g
     id="g76"
     transform="translate(-1200,-786.5)">
    <path
       style="opacity:1"
       fill="#7e727d"
       d="m 2400.5,2391.5 c 1.33,0.67 1.33,0.67 0,0 z"
       id="path74" />
  </g>
  <g
     id="g80"
     transform="translate(-1200,-786.5)">
    <path
       style="opacity:1"
       fill="#7f737e"
       d="m 2389.5,2397.5 c 1.33,0.67 1.33,0.67 0,0 z"
       id="path78" />
  </g>
  <g
     id="g84"
     transform="translate(-1200,-786.5)">
    <path
       style="opacity:1"
       fill="#7e727d"
       d="m 2387.5,2398.5 c 1.33,0.67 1.33,0.67 0,0 z"
       id="path82" />
  </g>
  <g
     id="g88"
     transform="translate(-1200,-786.5)">
    <path
       style="opacity:1"
       fill="#7f737e"
       d="m 2378.5,2403.5 c 1.33,0.67 1.33,0.67 0,0 z"
       id="path86" />
  </g>
  <g
     id="g92"
     transform="translate(-1200,-786.5)">
    <path
       style="opacity:1"
       fill="#7f737e"
       d="m 2376.5,2404.5 c 1.33,0.67 1.33,0.67 0,0 z"
       id="path90" />
  </g>
  <g
     id="g96"
     transform="translate(-1200,-786.5)">
    <path
       style="opacity:1"
       fill="#7f737e"
       d="m 2374.5,2405.5 c 1.33,0.67 1.33,0.67 0,0 z"
       id="path94" />
  </g>
  <g
     id="g100"
     transform="translate(-1200,-786.5)">
    <path
       style="opacity:1"
       fill="#7e737c"
       d="m 2372.5,2406.5 c 1.33,0.67 1.33,0.67 0,0 z"
       id="path98" />
  </g>
  <g
     id="g104"
     transform="translate(-1200,-786.5)">
    <path
       style="opacity:1"
       fill="#80747f"
       d="m 2370.5,2407.5 c 1.33,0.67 1.33,0.67 0,0 z"
       id="path102" />
  </g>
  <g
     id="g108"
     transform="translate(-1200,-786.5)">
    <path
       style="opacity:1"
       fill="#7f727d"
       d="m 3609.5,2410.5 c 1.33,0.67 1.33,0.67 0,0 z"
       id="path106" />
  </g>
  <g
     id="g112"
     transform="translate(-1200,-786.5)">
    <path
       style="opacity:1"
       fill="#7e737c"
       d="m 2363.5,2411.5 c 1.33,0.67 1.33,0.67 0,0 z"
       id="path110" />
  </g>
  <g
     id="g116"
     transform="translate(-1200,-786.5)">
    <path
       style="opacity:1"
       fill="#7f737e"
       d="m 2361.5,2412.5 c 1.33,0.67 1.33,0.67 0,0 z"
       id="path114" />
  </g>
  <g
     id="g120"
     transform="translate(-1200,-786.5)">
    <path
       style="opacity:1"
       fill="#7f737e"
       d="m 2359.5,2413.5 c 1.33,0.67 1.33,0.67 0,0 z"
       id="path118" />
  </g>
  <g
     id="g124"
     transform="translate(-1200,-786.5)">
    <path
       style="opacity:1"
       fill="#7f727d"
       d="m 3614.5,2413.5 c 1.33,0.67 1.33,0.67 0,0 z"
       id="path122" />
  </g>
  <g
     id="g128"
     transform="translate(-1200,-786.5)">
    <path
       style="opacity:1"
       fill="#7e737d"
       d="m 2357.5,2414.5 c 1.33,0.67 1.33,0.67 0,0 z"
       id="path126" />
  </g>
  <g
     id="g132"
     transform="translate(-1200,-786.5)">
    <path
       style="opacity:1"
       fill="#847882"
       d="m 2355.5,2415.5 c 1.33,0.67 1.33,0.67 0,0 z"
       id="path130" />
  </g>
  <g
     id="g136"
     transform="translate(-1200,-786.5)">
    <path
       style="opacity:1"
       fill="#7f747e"
       d="m 2353.5,2416.5 c 1.33,0.67 1.33,0.67 0,0 z"
       id="path134" />
  </g>
  <g
     id="g140"
     transform="translate(-1200,-786.5)">
    <path
       style="opacity:1"
       fill="#7e737d"
       d="m 2346.5,2420.5 c 1.33,0.67 1.33,0.67 0,0 z"
       id="path138" />
  </g>
  <g
     id="g144"
     transform="translate(-1200,-786.5)">
    <path
       style="opacity:1"
       fill="#7f737e"
       d="m 2344.5,2421.5 c 1.33,0.67 1.33,0.67 0,0 z"
       id="path142" />
  </g>
  <g
     id="g148"
     transform="translate(-1200,-786.5)">
    <path
       style="opacity:1"
       fill="#7f737e"
       d="m 2342.5,2422.5 c 1.33,0.67 1.33,0.67 0,0 z"
       id="path146" />
  </g>
  <g
     id="g152"
     transform="translate(-1200,-786.5)">
    <path
       style="opacity:1"
       fill="#7e737d"
       d="m 2340.5,2423.5 c 1.33,0.67 1.33,0.67 0,0 z"
       id="path150" />
  </g>
  <g
     id="g156"
     transform="translate(-1200,-786.5)">
    <path
       style="opacity:1"
       fill="#847783"
       d="m 2338.5,2424.5 c 1.33,0.67 1.33,0.67 0,0 z"
       id="path154" />
  </g>
  <g
     id="g160"
     transform="translate(-1200,-786.5)">
    <path
       style="opacity:1"
       fill="#7f737e"
       d="m 2336.5,2425.5 c 1.33,0.67 1.33,0.67 0,0 z"
       id="path158" />
  </g>
  <g
     id="g164"
     transform="translate(-1200,-786.5)">
    <path
       style="opacity:0.997"
       fill="#e99060"
       d="m 2338.5,2430.5 c 2.6,2.31 5.6,4.14 9,5.5 -1.25,1.46 -1.25,2.96 0,4.5 191.84,106.75 383.84,213.25 576,319.5 18.46,9.06 36.79,18.4 55,28 2.24,0.98 4.57,1.48 7,1.5 -0.33,1 -1,1.67 -2,2 -2,269.66 -2.67,539.66 -2,810 1,0 2,0 3,0 -1.37,2.09 -2.03,4.42 -2,7 -221.52,-133.62 -443.02,-267.62 -664.5,-402 3.75,-259.6 7.91,-518.94 12.5,-778 1.32,0.17 2.49,-0.16 3.5,-1 0.32,1.8 0.98,2.13 2,1 0.42,1.26 1.25,1.92 2.5,2 z"
       id="path162" />
  </g>
  <g
     id="g168"
     transform="translate(-1200,-786.5)">
    <path
       style="opacity:1"
       fill="#847882"
       d="m 2338.5,2429.5 c 1.33,0.67 1.33,0.67 0,0 z"
       id="path166" />
  </g>
  <g
     id="g172"
     transform="translate(-1200,-786.5)">
    <path
       style="opacity:1"
       fill="#857884"
       d="m 2341.5,2430.5 c 1.33,0.67 1.33,0.67 0,0 z"
       id="path170" />
  </g>
  <g
     id="g176"
     transform="translate(-1200,-786.5)">
    <path
       style="opacity:1"
       fill="#a98b99"
       d="m 3811.5,2430.5 c 1.33,0.67 1.33,0.67 0,0 z"
       id="path174" />
  </g>
  <g
     id="g180"
     transform="translate(-1200,-786.5)">
    <path
       style="opacity:1"
       fill="#867985"
       d="m 2344.5,2431.5 c 1.33,0.67 1.33,0.67 0,0 z"
       id="path178" />
  </g>
  <g
     id="g184"
     transform="translate(-1200,-786.5)">
    <path
       style="opacity:1"
       fill="#807680"
       d="m 2347.5,2432.5 c 1.33,0.67 1.33,0.67 0,0 z"
       id="path182" />
  </g>
  <g
     id="g188"
     transform="translate(-1200,-786.5)">
    <path
       style="opacity:1"
       fill="#7f727d"
       d="m 3647.5,2433.5 c 1.33,0.67 1.33,0.67 0,0 z"
       id="path186" />
  </g>
  <g
     id="g192"
     transform="translate(-1200,-786.5)">
    <path
       style="opacity:1"
       fill="#7f727d"
       d="m 3652.5,2436.5 c 1.33,0.67 1.33,0.67 0,0 z"
       id="path190" />
  </g>
  <g
     id="g196"
     transform="translate(-1200,-786.5)">
    <path
       style="opacity:1"
       fill="#7f727d"
       d="m 3657.5,2439.5 c 1.33,0.67 1.33,0.67 0,0 z"
       id="path194" />
  </g>
  <g
     id="g200"
     transform="translate(-1200,-786.5)">
    <path
       style="opacity:1"
       fill="#8b798a"
       d="m 3665.5,2445.5 c 1.11,1.45 1.28,3.11 0.5,5 -0.49,-1.63 -0.66,-3.3 -0.5,-5 z"
       id="path198" />
  </g>
  <g
     id="g204"
     transform="translate(-1200,-786.5)">
    <path
       style="opacity:1"
       fill="#897889"
       d="m 3664.5,2452.5 c 1.33,0.67 1.33,0.67 0,0 z"
       id="path202" />
  </g>
  <g
     id="g208"
     transform="translate(-1200,-786.5)">
    <path
       style="opacity:1"
       fill="#c6b98c"
       d="m 3662.5,2454.5 c 0.34,-0.84 1.01,-1.17 2,-1 0.33,41.84 0,83.5 -1,125 0.33,-41.5 0,-82.84 -1,-124 z"
       id="path206" />
  </g>
  <g
     id="g212"
     transform="translate(-1200,-786.5)">
    <path
       style="opacity:1"
       fill="#e6c129"
       d="m 3662.5,2454.5 c 1,41.16 1.33,82.5 1,124 -3.41,216.67 -7.24,433.34 -11.5,650 -222.27,123.88 -444.44,247.88 -666.5,372 -1,0 -2,0 -3,0 -0.33,-269.74 0,-539.4 1,-809 1,-0.33 1.67,-1 2,-2 32.93,-15.05 65.93,-30.21 99,-45.5 192.58,-96.76 385.24,-193.26 578,-289.5 z"
       id="path210" />
  </g>
  <g
     id="g240"
     transform="translate(-1200,-786.5)">
    <path
       style="opacity:1"
       fill="#e7a449"
       d="m 2983.5,2791.5 c -1,269.6 -1.33,539.26 -1,809 1,0 2,0 3,0 0,0.67 -0.33,1 -1,1 -1,0 -2,0 -3,0 -0.67,-270.34 0,-540.34 2,-810 z"
       id="path238" />
  </g>
  <g
     id="g268"
     transform="translate(-1200,-786.5)">
    <path
       style="opacity:1"
       fill="#a98b99"
       d="m 3653.5,3228.5 c 1.33,0.67 1.33,0.67 0,0 z"
       id="path266" />
  </g>
  <g
     id="g272"
     transform="translate(-1200,-786.5)">
    <path
       style="opacity:1"
       fill="#a98b99"
       d="m 3655.5,3229.5 c 1.33,0.67 1.33,0.67 0,0 z"
       id="path270" />
  </g>
  <g
     id="g276"
     transform="translate(-1200,-786.5)">
    <path
       style="opacity:1"
       fill="#a98b99"
       d="m 3658.5,3231.5 c 1.33,0.67 1.33,0.67 0,0 z"
       id="path274" />
  </g>
  <g
     id="g280"
     transform="translate(-1200,-786.5)">
    <path
       style="opacity:1"
       fill="#a98b99"
       d="m 3660.5,3232.5 c 1.33,0.67 1.33,0.67 0,0 z"
       id="path278" />
  </g>
  <g
     id="g284"
     transform="translate(-1200,-786.5)">
    <path
       style="opacity:1"
       fill="#a98b99"
       d="m 3663.5,3234.5 c 1.33,0.67 1.33,0.67 0,0 z"
       id="path282" />
  </g>
  <g
     id="g288"
     transform="translate(-1200,-786.5)">
    <path
       style="opacity:1"
       fill="#a98b99"
       d="m 3665.5,3235.5 c 1.33,0.67 1.33,0.67 0,0 z"
       id="path286" />
  </g>
  <g
     id="g292"
     transform="translate(-1200,-786.5)">
    <path
       style="opacity:1"
       fill="#a98b99"
       d="m 3668.5,3237.5 c 1.33,0.67 1.33,0.67 0,0 z"
       id="path290" />
  </g>
  <g
     id="g296"
     transform="translate(-1200,-786.5)">
    <path
       style="opacity:1"
       fill="#a98b99"
       d="m 3670.5,3238.5 c 1.33,0.67 1.33,0.67 0,0 z"
       id="path294" />
  </g>
  <g
     id="g300"
     transform="translate(-1200,-786.5)">
    <path
       style="opacity:1"
       fill="#a98b99"
       d="m 3673.5,3240.5 c 1.33,0.67 1.33,0.67 0,0 z"
       id="path298" />
  </g>
  <g
     id="g304"
     transform="translate(-1200,-786.5)">
    <path
       style="opacity:1"
       fill="#a98b99"
       d="m 3675.5,3241.5 c 1.33,0.67 1.33,0.67 0,0 z"
       id="path302" />
  </g>
  <g
     id="g308"
     transform="translate(-1200,-786.5)">
    <path
       style="opacity:1"
       fill="#a98b99"
       d="m 3678.5,3243.5 c 1.33,0.67 1.33,0.67 0,0 z"
       id="path306" />
  </g>
  <g
     id="g312"
     transform="translate(-1200,-786.5)">
    <path
       style="opacity:1"
       fill="#a98b99"
       d="m 3680.5,3244.5 c 1.33,0.67 1.33,0.67 0,0 z"
       id="path310" />
  </g>
  <g
     id="g316"
     transform="translate(-1200,-786.5)">
    <path
       style="opacity:1"
       fill="#a98b99"
       d="m 3683.5,3246.5 c 1.33,0.67 1.33,0.67 0,0 z"
       id="path314" />
  </g>
  <g
     id="g320"
     transform="translate(-1200,-786.5)">
    <path
       style="opacity:1"
       fill="#a98b99"
       d="m 3685.5,3247.5 c 1.33,0.67 1.33,0.67 0,0 z"
       id="path318" />
  </g>
  <g
     id="g324"
     transform="translate(-1200,-786.5)">
    <path
       style="opacity:1"
       fill="#a98b99"
       d="m 3688.5,3249.5 c 1.33,0.67 1.33,0.67 0,0 z"
       id="path322" />
  </g>
  <g
     id="g360"
     transform="translate(-1200,-786.5)">
    <path
       style="opacity:1"
       fill="#c1c689"
       d="m 2977.5,3780.5 c 0.65,0.3 1.32,0.64 2,1 1,179.33 1.33,358.67 1,538 0,0.33 0,0.67 0,1 -0.33,0 -0.67,0 -1,0 0.66,-180.14 -0.01,-360.14 -2,-540 z"
       id="path358" />
  </g>
  <g
     id="g368"
     transform="translate(-1200,-786.5)">
    <path
       style="opacity:1"
       fill="#e8a349"
       d="m 2979.5,4320.5 c 0.33,0 0.67,0 1,0 0.33,40.34 0,80.67 -1,121 -0.61,-0.12 -0.94,-0.46 -1,-1 1,-39.83 1.33,-79.83 1,-120 z"
       id="path366" />
  </g>
  <g
     id="g372"
     transform="translate(-1200,-786.5)">
    <path
       style="opacity:0.894"
       fill="#939493"
       d="m 2979.5,4758.5 c 1.33,0.67 1.33,0.67 0,0 z"
       id="path370" />
  </g>
</svg>
