<svg width="67" height="72" viewBox="0 0 67 72" fill="none" xmlns="http://www.w3.org/2000/svg">
<path d="M55.4725 48.9005C53.7369 48.9008 52.0246 49.3003 50.4681 50.0681C48.9116 50.8359 47.5525 51.9515 46.4961 53.3285L22.0569 39.4578C22.8781 37.0751 22.8781 34.4862 22.0569 32.1035L46.4961 18.2328C48.202 20.4461 50.6662 21.9503 53.4144 22.4559C56.1627 22.9616 59.0009 22.433 61.3828 20.9719C63.7648 19.5107 65.5222 17.2203 66.317 14.5413C67.1117 11.8623 66.8876 8.98401 65.6878 6.46031C64.4879 3.93662 62.3971 1.94581 59.8177 0.870984C57.2383 -0.203846 54.3525 -0.286759 51.7156 0.6382C49.0788 1.56316 46.8771 3.43063 45.5344 5.88128C44.1916 8.33192 43.8026 11.1926 44.4422 13.9128L19.5866 28.0199C18.0313 26.3654 16.0146 25.2163 13.7983 24.7218C11.5819 24.2273 9.26812 24.4101 7.15695 25.2466C5.04578 26.0831 3.23467 27.5347 1.9585 29.413C0.682332 31.2913 0 33.5098 0 35.7806C0 38.0515 0.682332 40.27 1.9585 42.1483C3.23467 44.0266 5.04578 45.4782 7.15695 46.3147C9.26812 47.1512 11.5819 47.334 13.7983 46.8395C16.0146 46.345 18.0313 45.1959 19.5866 43.5414L44.4424 57.6487C43.9065 59.9386 44.0966 62.3386 44.9863 64.5157C45.8759 66.6927 47.421 68.539 49.4073 69.7983C51.3935 71.0577 53.7224 71.6677 56.071 71.5437C58.4196 71.4197 60.6713 70.568 62.514 69.1065C64.3566 67.6451 65.6988 65.6465 66.3543 63.3878C67.0098 61.1292 66.9462 58.7226 66.1723 56.5017C65.3984 54.2809 63.9525 52.3559 62.0352 50.9939C60.1179 49.6319 57.8243 48.9002 55.4725 48.9005ZM55.4725 4.77003C56.7699 4.77003 58.0382 5.15476 59.117 5.87558C60.1958 6.59639 61.0366 7.62091 61.5331 8.81958C62.0296 10.0183 62.1595 11.3372 61.9064 12.6097C61.6532 13.8822 61.0285 15.0511 60.111 15.9685C59.1936 16.886 58.0248 17.5107 56.7523 17.7639C55.4797 18.017 54.1608 17.8871 52.9621 17.3906C51.7634 16.8941 50.7389 16.0532 50.0181 14.9745C49.2973 13.8957 48.9125 12.6274 48.9125 11.33C48.9145 9.59075 49.6062 7.92333 50.836 6.69352C52.0658 5.46372 53.7333 4.77196 55.4725 4.77003ZM11.342 42.3406C10.0445 42.3406 8.77624 41.9558 7.69746 41.235C6.61869 40.5142 5.77789 39.4897 5.28138 38.291C4.78487 37.0924 4.65496 35.7734 4.90808 34.5009C5.1612 33.2284 5.78597 32.0595 6.70339 31.1421C7.62082 30.2246 8.78969 29.5999 10.0622 29.3468C11.3347 29.0936 12.6537 29.2235 13.8524 29.7201C15.051 30.2166 16.0755 31.0574 16.7964 32.1361C17.5172 33.2149 17.9019 34.4832 17.9019 35.7806C17.9 37.5199 17.2082 39.1873 15.9784 40.4171C14.7486 41.6469 13.0812 42.3386 11.342 42.3406ZM55.4725 66.7913C54.175 66.7913 52.9067 66.4065 51.828 65.6857C50.7492 64.9649 49.9084 63.9404 49.4119 62.7417C48.9154 61.543 48.7855 60.224 49.0386 58.9515C49.2917 57.679 49.9165 56.5102 50.8339 55.5928C51.7513 54.6753 52.9202 54.0506 54.1927 53.7974C55.4652 53.5443 56.7842 53.6742 57.9828 54.1707C59.1815 54.6672 60.206 55.508 60.9269 56.5868C61.6477 57.6656 62.0324 58.9339 62.0324 60.2313C62.0305 61.9705 61.3387 63.638 60.1089 64.8678C58.8791 66.0976 57.2117 66.7893 55.4725 66.7913Z" fill="white"/>
</svg>
