<svg width="50" height="53" viewBox="0 0 50 53" fill="none" xmlns="http://www.w3.org/2000/svg">
<path d="M48.8466 21.7241L26.6828 1.33334C25.9623 0.670454 25.0134 0.311708 24.0346 0.332092C23.0557 0.352475 22.1227 0.750409 21.4304 1.44272L1.04609 21.8271L0 22.8731V52.9239H19.6429V34.1739H30.3571V52.9239H50V22.7852L48.8466 21.7241ZM24.1114 3.90276C24.1429 3.90276 24.1234 3.90957 24.1099 3.92285C24.096 3.90957 24.0799 3.90276 24.1114 3.90276ZM46.4286 49.3524H33.9286V34.1739C33.9286 33.2267 33.5523 32.3182 32.8825 31.6485C32.2127 30.9787 31.3043 30.6024 30.3571 30.6024H19.6429C18.6957 30.6024 17.7872 30.9787 17.1175 31.6485C16.4477 32.3182 16.0714 33.2267 16.0714 34.1739V49.3524H3.57143V24.3524L24.1114 3.96805C24.1128 3.96671 24.1129 3.96548 24.1141 3.96415L46.4286 24.3524V49.3524Z" fill="white"/>
</svg>
