<svg width="681" height="899" viewBox="0 0 681 899" fill="none" xmlns="http://www.w3.org/2000/svg">
<rect x="241" width="256" height="84" fill="#F2F2F2"/>
<path d="M4.54545 34.2273V31.7273H22V34.2273H14.6818V55H11.8636V34.2273H4.54545ZM45.017 43.3636C45.017 45.8182 44.5739 47.9394 43.6875 49.7273C42.8011 51.5152 41.5852 52.8939 40.0398 53.8636C38.4943 54.8333 36.7292 55.3182 34.7443 55.3182C32.7595 55.3182 30.9943 54.8333 29.4489 53.8636C27.9034 52.8939 26.6875 51.5152 25.8011 49.7273C24.9148 47.9394 24.4716 45.8182 24.4716 43.3636C24.4716 40.9091 24.9148 38.7879 25.8011 37C26.6875 35.2121 27.9034 33.8333 29.4489 32.8636C30.9943 31.8939 32.7595 31.4091 34.7443 31.4091C36.7292 31.4091 38.4943 31.8939 40.0398 32.8636C41.5852 33.8333 42.8011 35.2121 43.6875 37C44.5739 38.7879 45.017 40.9091 45.017 43.3636ZM42.2898 43.3636C42.2898 41.3485 41.9527 39.6477 41.2784 38.2614C40.6117 36.875 39.7064 35.8258 38.5625 35.1136C37.4261 34.4015 36.1534 34.0455 34.7443 34.0455C33.3352 34.0455 32.0587 34.4015 30.9148 35.1136C29.7784 35.8258 28.8731 36.875 28.1989 38.2614C27.5322 39.6477 27.1989 41.3485 27.1989 43.3636C27.1989 45.3788 27.5322 47.0795 28.1989 48.4659C28.8731 49.8523 29.7784 50.9015 30.9148 51.6136C32.0587 52.3258 33.3352 52.6818 34.7443 52.6818C36.1534 52.6818 37.4261 52.3258 38.5625 51.6136C39.7064 50.9015 40.6117 49.8523 41.2784 48.4659C41.9527 47.0795 42.2898 45.3788 42.2898 43.3636ZM49.7557 55V31.7273H52.5739V43.2727H52.8466L63.3011 31.7273H66.983L57.2102 42.2273L66.983 55H63.5739L55.483 44.1818L52.5739 47.4545V55H49.7557ZM70.6307 55V31.7273H84.6761V34.2273H73.4489V42.0909H83.9489V44.5909H73.4489V52.5H84.858V55H70.6307ZM108.21 31.7273V55H105.483L92.8011 36.7273H92.5739V55H89.7557V31.7273H92.483L105.21 50.0455H105.438V31.7273H108.21ZM115.44 52.0227C114.88 52.0227 114.399 51.822 113.997 51.4205C113.596 51.0189 113.395 50.5379 113.395 49.9773C113.395 49.4167 113.596 48.9356 113.997 48.5341C114.399 48.1326 114.88 47.9318 115.44 47.9318C116.001 47.9318 116.482 48.1326 116.884 48.5341C117.285 48.9356 117.486 49.4167 117.486 49.9773C117.486 50.3485 117.391 50.6894 117.202 51C117.02 51.3106 116.774 51.5606 116.463 51.75C116.16 51.9318 115.819 52.0227 115.44 52.0227ZM115.44 40.25C114.88 40.25 114.399 40.0492 113.997 39.6477C113.596 39.2462 113.395 38.7652 113.395 38.2045C113.395 37.6439 113.596 37.1629 113.997 36.7614C114.399 36.3598 114.88 36.1591 115.44 36.1591C116.001 36.1591 116.482 36.3598 116.884 36.7614C117.285 37.1629 117.486 37.6439 117.486 38.2045C117.486 38.5758 117.391 38.9167 117.202 39.2273C117.02 39.5379 116.774 39.7879 116.463 39.9773C116.16 40.1591 115.819 40.25 115.44 40.25Z" fill="#686868"/>
<path d="M5.81818 195V171.727H13.9545C15.5758 171.727 16.9129 172.008 17.9659 172.568C19.0189 173.121 19.803 173.867 20.3182 174.807C20.8333 175.739 21.0909 176.773 21.0909 177.909C21.0909 178.909 20.9129 179.735 20.5568 180.386C20.2083 181.038 19.7462 181.553 19.1705 181.932C18.6023 182.311 17.9848 182.591 17.3182 182.773V183C18.0303 183.045 18.7462 183.295 19.4659 183.75C20.1856 184.205 20.7879 184.856 21.2727 185.705C21.7576 186.553 22 187.591 22 188.818C22 189.985 21.7348 191.034 21.2045 191.966C20.6742 192.898 19.8371 193.636 18.6932 194.182C17.5492 194.727 16.0606 195 14.2273 195H5.81818ZM8.63636 192.5H14.2273C16.0682 192.5 17.375 192.144 18.1477 191.432C18.928 190.712 19.3182 189.841 19.3182 188.818C19.3182 188.03 19.1174 187.303 18.7159 186.636C18.3144 185.962 17.7424 185.424 17 185.023C16.2576 184.614 15.3788 184.409 14.3636 184.409H8.63636V192.5ZM8.63636 181.955H13.8636C14.7121 181.955 15.4773 181.788 16.1591 181.455C16.8485 181.121 17.3939 180.652 17.7955 180.045C18.2045 179.439 18.4091 178.727 18.4091 177.909C18.4091 176.886 18.053 176.019 17.3409 175.307C16.6288 174.587 15.5 174.227 13.9545 174.227H8.63636V181.955ZM27.5852 195H24.6307L33.1761 171.727H36.0852L44.6307 195H41.6761L34.7216 175.409H34.5398L27.5852 195ZM28.6761 185.909H40.5852V188.409H28.6761V185.909ZM48.2557 195V171.727H51.0739V192.5H61.892V195H48.2557ZM68.679 195H65.7244L74.2699 171.727H77.179L85.7244 195H82.7699L75.8153 175.409H75.6335L68.679 195ZM69.7699 185.909H81.679V188.409H69.7699V185.909ZM107.804 171.727V195H105.077L92.3949 176.727H92.1676V195H89.3494V171.727H92.0767L104.804 190.045H105.031V171.727H107.804ZM132.17 179H129.352C129.186 178.189 128.894 177.477 128.477 176.864C128.068 176.25 127.568 175.735 126.977 175.318C126.394 174.894 125.746 174.576 125.034 174.364C124.322 174.152 123.58 174.045 122.807 174.045C121.398 174.045 120.121 174.402 118.977 175.114C117.841 175.826 116.936 176.875 116.261 178.261C115.595 179.648 115.261 181.348 115.261 183.364C115.261 185.379 115.595 187.08 116.261 188.466C116.936 189.852 117.841 190.902 118.977 191.614C120.121 192.326 121.398 192.682 122.807 192.682C123.58 192.682 124.322 192.576 125.034 192.364C125.746 192.152 126.394 191.837 126.977 191.42C127.568 190.996 128.068 190.477 128.477 189.864C128.894 189.242 129.186 188.53 129.352 187.727H132.17C131.958 188.917 131.572 189.981 131.011 190.92C130.451 191.86 129.754 192.659 128.92 193.318C128.087 193.97 127.152 194.466 126.114 194.807C125.083 195.148 123.981 195.318 122.807 195.318C120.822 195.318 119.057 194.833 117.511 193.864C115.966 192.894 114.75 191.515 113.864 189.727C112.977 187.939 112.534 185.818 112.534 183.364C112.534 180.909 112.977 178.788 113.864 177C114.75 175.212 115.966 173.833 117.511 172.864C119.057 171.894 120.822 171.409 122.807 171.409C123.981 171.409 125.083 171.58 126.114 171.92C127.152 172.261 128.087 172.761 128.92 173.42C129.754 174.072 130.451 174.867 131.011 175.807C131.572 176.739 131.958 177.803 132.17 179ZM136.724 195V171.727H150.77V174.227H139.543V182.091H150.043V184.591H139.543V192.5H150.952V195H136.724ZM157.44 192.023C156.88 192.023 156.399 191.822 155.997 191.42C155.596 191.019 155.395 190.538 155.395 189.977C155.395 189.417 155.596 188.936 155.997 188.534C156.399 188.133 156.88 187.932 157.44 187.932C158.001 187.932 158.482 188.133 158.884 188.534C159.285 188.936 159.486 189.417 159.486 189.977C159.486 190.348 159.391 190.689 159.202 191C159.02 191.311 158.774 191.561 158.463 191.75C158.16 191.932 157.819 192.023 157.44 192.023ZM157.44 180.25C156.88 180.25 156.399 180.049 155.997 179.648C155.596 179.246 155.395 178.765 155.395 178.205C155.395 177.644 155.596 177.163 155.997 176.761C156.399 176.36 156.88 176.159 157.44 176.159C158.001 176.159 158.482 176.36 158.884 176.761C159.285 177.163 159.486 177.644 159.486 178.205C159.486 178.576 159.391 178.917 159.202 179.227C159.02 179.538 158.774 179.788 158.463 179.977C158.16 180.159 157.819 180.25 157.44 180.25Z" fill="#686868"/>
<path d="M21.7273 297C21.4773 296.235 21.1477 295.549 20.7386 294.943C20.3371 294.33 19.8561 293.807 19.2955 293.375C18.7424 292.943 18.1136 292.614 17.4091 292.386C16.7045 292.159 15.9318 292.045 15.0909 292.045C13.7121 292.045 12.4583 292.402 11.3295 293.114C10.2008 293.826 9.30303 294.875 8.63636 296.261C7.9697 297.648 7.63636 299.348 7.63636 301.364C7.63636 303.379 7.97349 305.08 8.64773 306.466C9.32197 307.852 10.2348 308.902 11.3864 309.614C12.5379 310.326 13.8333 310.682 15.2727 310.682C16.6061 310.682 17.7803 310.398 18.7955 309.83C19.8182 309.254 20.6136 308.443 21.1818 307.398C21.7576 306.345 22.0455 305.106 22.0455 303.682L22.9091 303.864H15.9091V301.364H24.7727V303.864C24.7727 305.78 24.3636 307.447 23.5455 308.864C22.7348 310.28 21.6136 311.379 20.1818 312.159C18.7576 312.932 17.1212 313.318 15.2727 313.318C13.2121 313.318 11.4015 312.833 9.84091 311.864C8.28788 310.894 7.07576 309.515 6.20455 307.727C5.34091 305.939 4.90909 303.818 4.90909 301.364C4.90909 299.523 5.1553 297.867 5.64773 296.398C6.14773 294.92 6.85227 293.663 7.76136 292.625C8.67045 291.587 9.74621 290.792 10.9886 290.239C12.2311 289.686 13.5985 289.409 15.0909 289.409C16.3182 289.409 17.4621 289.595 18.5227 289.966C19.5909 290.33 20.5417 290.848 21.375 291.523C22.2159 292.189 22.9167 292.989 23.4773 293.92C24.0379 294.845 24.4242 295.871 24.6364 297H21.7273ZM29.5994 313V289.727H32.4176V310.5H43.2358V313H29.5994ZM66.3295 301.364C66.3295 303.818 65.8864 305.939 65 307.727C64.1136 309.515 62.8977 310.894 61.3523 311.864C59.8068 312.833 58.0417 313.318 56.0568 313.318C54.072 313.318 52.3068 312.833 50.7614 311.864C49.2159 310.894 48 309.515 47.1136 307.727C46.2273 305.939 45.7841 303.818 45.7841 301.364C45.7841 298.909 46.2273 296.788 47.1136 295C48 293.212 49.2159 291.833 50.7614 290.864C52.3068 289.894 54.072 289.409 56.0568 289.409C58.0417 289.409 59.8068 289.894 61.3523 290.864C62.8977 291.833 64.1136 293.212 65 295C65.8864 296.788 66.3295 298.909 66.3295 301.364ZM63.6023 301.364C63.6023 299.348 63.2652 297.648 62.5909 296.261C61.9242 294.875 61.0189 293.826 59.875 293.114C58.7386 292.402 57.4659 292.045 56.0568 292.045C54.6477 292.045 53.3712 292.402 52.2273 293.114C51.0909 293.826 50.1856 294.875 49.5114 296.261C48.8447 297.648 48.5114 299.348 48.5114 301.364C48.5114 303.379 48.8447 305.08 49.5114 306.466C50.1856 307.852 51.0909 308.902 52.2273 309.614C53.3712 310.326 54.6477 310.682 56.0568 310.682C57.4659 310.682 58.7386 310.326 59.875 309.614C61.0189 308.902 61.9242 307.852 62.5909 306.466C63.2652 305.08 63.6023 303.379 63.6023 301.364ZM71.0682 313V289.727H79.2045C80.8258 289.727 82.1629 290.008 83.2159 290.568C84.2689 291.121 85.053 291.867 85.5682 292.807C86.0833 293.739 86.3409 294.773 86.3409 295.909C86.3409 296.909 86.1629 297.735 85.8068 298.386C85.4583 299.038 84.9962 299.553 84.4205 299.932C83.8523 300.311 83.2348 300.591 82.5682 300.773V301C83.2803 301.045 83.9962 301.295 84.7159 301.75C85.4356 302.205 86.0379 302.856 86.5227 303.705C87.0076 304.553 87.25 305.591 87.25 306.818C87.25 307.985 86.9848 309.034 86.4545 309.966C85.9242 310.898 85.0871 311.636 83.9432 312.182C82.7992 312.727 81.3106 313 79.4773 313H71.0682ZM73.8864 310.5H79.4773C81.3182 310.5 82.625 310.144 83.3977 309.432C84.178 308.712 84.5682 307.841 84.5682 306.818C84.5682 306.03 84.3674 305.303 83.9659 304.636C83.5644 303.962 82.9924 303.424 82.25 303.023C81.5076 302.614 80.6288 302.409 79.6136 302.409H73.8864V310.5ZM73.8864 299.955H79.1136C79.9621 299.955 80.7273 299.788 81.4091 299.455C82.0985 299.121 82.6439 298.652 83.0455 298.045C83.4545 297.439 83.6591 296.727 83.6591 295.909C83.6591 294.886 83.303 294.019 82.5909 293.307C81.8788 292.587 80.75 292.227 79.2045 292.227H73.8864V299.955ZM92.8352 313H89.8807L98.4261 289.727H101.335L109.881 313H106.926L99.9716 293.409H99.7898L92.8352 313ZM93.9261 303.909H105.835V306.409H93.9261V303.909ZM113.506 313V289.727H116.324V310.5H127.142V313H113.506ZM153.233 295.545C153.097 294.394 152.544 293.5 151.574 292.864C150.604 292.227 149.415 291.909 148.006 291.909C146.975 291.909 146.074 292.076 145.301 292.409C144.536 292.742 143.938 293.201 143.506 293.784C143.081 294.367 142.869 295.03 142.869 295.773C142.869 296.394 143.017 296.928 143.312 297.375C143.616 297.814 144.002 298.182 144.472 298.477C144.941 298.765 145.434 299.004 145.949 299.193C146.464 299.375 146.938 299.523 147.369 299.636L149.733 300.273C150.339 300.432 151.013 300.652 151.756 300.932C152.506 301.212 153.222 301.595 153.903 302.08C154.593 302.557 155.161 303.17 155.608 303.92C156.055 304.67 156.278 305.591 156.278 306.682C156.278 307.939 155.949 309.076 155.29 310.091C154.638 311.106 153.684 311.913 152.426 312.511C151.176 313.11 149.657 313.409 147.869 313.409C146.203 313.409 144.759 313.14 143.54 312.602C142.328 312.064 141.373 311.314 140.676 310.352C139.987 309.39 139.597 308.273 139.506 307H142.415C142.491 307.879 142.786 308.606 143.301 309.182C143.824 309.75 144.483 310.174 145.278 310.455C146.081 310.727 146.945 310.864 147.869 310.864C148.945 310.864 149.911 310.689 150.767 310.341C151.623 309.985 152.301 309.492 152.801 308.864C153.301 308.227 153.551 307.485 153.551 306.636C153.551 305.864 153.335 305.235 152.903 304.75C152.472 304.265 151.903 303.871 151.199 303.568C150.494 303.265 149.733 303 148.915 302.773L146.051 301.955C144.233 301.432 142.794 300.686 141.733 299.716C140.672 298.746 140.142 297.477 140.142 295.909C140.142 294.606 140.494 293.47 141.199 292.5C141.911 291.523 142.866 290.765 144.062 290.227C145.267 289.682 146.612 289.409 148.097 289.409C149.597 289.409 150.93 289.678 152.097 290.216C153.263 290.746 154.188 291.473 154.869 292.398C155.559 293.322 155.922 294.371 155.96 295.545H153.233ZM160.912 313V289.727H163.73V300.091H176.139V289.727H178.957V313H176.139V302.591H163.73V313H160.912ZM185.554 313H182.599L191.145 289.727H194.054L202.599 313H199.645L192.69 293.409H192.509L185.554 313ZM186.645 303.909H198.554V306.409H186.645V303.909ZM206.224 313V289.727H214.088C215.906 289.727 217.399 290.038 218.565 290.659C219.732 291.273 220.596 292.117 221.156 293.193C221.717 294.269 221.997 295.492 221.997 296.864C221.997 298.235 221.717 299.451 221.156 300.511C220.596 301.572 219.736 302.405 218.577 303.011C217.418 303.61 215.937 303.909 214.134 303.909H207.77V301.364H214.043C215.285 301.364 216.285 301.182 217.043 300.818C217.808 300.455 218.361 299.939 218.702 299.273C219.05 298.598 219.224 297.795 219.224 296.864C219.224 295.932 219.05 295.117 218.702 294.42C218.353 293.723 217.796 293.186 217.031 292.807C216.266 292.42 215.255 292.227 213.997 292.227H209.043V313H206.224ZM217.179 302.545L222.906 313H219.634L213.997 302.545H217.179ZM226.693 313V289.727H240.739V292.227H229.511V300.091H240.011V302.591H229.511V310.5H240.92V313H226.693ZM247.409 310.023C246.848 310.023 246.367 309.822 245.966 309.42C245.564 309.019 245.364 308.538 245.364 307.977C245.364 307.417 245.564 306.936 245.966 306.534C246.367 306.133 246.848 305.932 247.409 305.932C247.97 305.932 248.451 306.133 248.852 306.534C249.254 306.936 249.455 307.417 249.455 307.977C249.455 308.348 249.36 308.689 249.17 309C248.989 309.311 248.742 309.561 248.432 309.75C248.129 309.932 247.788 310.023 247.409 310.023ZM247.409 298.25C246.848 298.25 246.367 298.049 245.966 297.648C245.564 297.246 245.364 296.765 245.364 296.205C245.364 295.644 245.564 295.163 245.966 294.761C246.367 294.36 246.848 294.159 247.409 294.159C247.97 294.159 248.451 294.36 248.852 294.761C249.254 295.163 249.455 295.644 249.455 296.205C249.455 296.576 249.36 296.917 249.17 297.227C248.989 297.538 248.742 297.788 248.432 297.977C248.129 298.159 247.788 298.25 247.409 298.25Z" fill="#686868"/>
<path d="M284.273 195.318C282.773 195.318 281.436 195.061 280.261 194.545C279.095 194.03 278.167 193.314 277.477 192.398C276.795 191.473 276.424 190.402 276.364 189.182H279.227C279.288 189.932 279.545 190.58 280 191.125C280.455 191.663 281.049 192.08 281.784 192.375C282.519 192.67 283.333 192.818 284.227 192.818C285.227 192.818 286.114 192.644 286.886 192.295C287.659 191.947 288.265 191.462 288.705 190.841C289.144 190.22 289.364 189.5 289.364 188.682C289.364 187.826 289.152 187.072 288.727 186.42C288.303 185.761 287.682 185.246 286.864 184.875C286.045 184.504 285.045 184.318 283.864 184.318H282V181.818H283.864C284.788 181.818 285.598 181.652 286.295 181.318C287 180.985 287.549 180.515 287.943 179.909C288.345 179.303 288.545 178.591 288.545 177.773C288.545 176.985 288.371 176.299 288.023 175.716C287.674 175.133 287.182 174.678 286.545 174.352C285.917 174.027 285.174 173.864 284.318 173.864C283.515 173.864 282.758 174.011 282.045 174.307C281.341 174.595 280.765 175.015 280.318 175.568C279.871 176.114 279.629 176.773 279.591 177.545H276.864C276.909 176.326 277.277 175.258 277.966 174.341C278.655 173.417 279.557 172.697 280.67 172.182C281.792 171.667 283.023 171.409 284.364 171.409C285.803 171.409 287.038 171.701 288.068 172.284C289.098 172.86 289.89 173.621 290.443 174.568C290.996 175.515 291.273 176.538 291.273 177.636C291.273 178.947 290.928 180.064 290.239 180.989C289.557 181.913 288.629 182.553 287.455 182.909V183.091C288.924 183.333 290.072 183.958 290.898 184.966C291.723 185.966 292.136 187.205 292.136 188.682C292.136 189.947 291.792 191.083 291.102 192.091C290.42 193.091 289.489 193.879 288.307 194.455C287.125 195.03 285.78 195.318 284.273 195.318ZM304.375 195.318C302.663 195.318 301.205 194.852 300 193.92C298.795 192.981 297.875 191.621 297.239 189.841C296.602 188.053 296.284 185.894 296.284 183.364C296.284 180.848 296.602 178.701 297.239 176.92C297.883 175.133 298.807 173.769 300.011 172.83C301.223 171.883 302.678 171.409 304.375 171.409C306.072 171.409 307.523 171.883 308.727 172.83C309.939 173.769 310.864 175.133 311.5 176.92C312.144 178.701 312.466 180.848 312.466 183.364C312.466 185.894 312.148 188.053 311.511 189.841C310.875 191.621 309.955 192.981 308.75 193.92C307.545 194.852 306.087 195.318 304.375 195.318ZM304.375 192.818C306.072 192.818 307.39 192 308.33 190.364C309.269 188.727 309.739 186.394 309.739 183.364C309.739 181.348 309.523 179.633 309.091 178.216C308.667 176.799 308.053 175.72 307.25 174.977C306.455 174.235 305.496 173.864 304.375 173.864C302.693 173.864 301.379 174.693 300.432 176.352C299.485 178.004 299.011 180.341 299.011 183.364C299.011 185.379 299.223 187.091 299.648 188.5C300.072 189.909 300.682 190.981 301.477 191.716C302.28 192.451 303.246 192.818 304.375 192.818ZM324.375 195.318C322.663 195.318 321.205 194.852 320 193.92C318.795 192.981 317.875 191.621 317.239 189.841C316.602 188.053 316.284 185.894 316.284 183.364C316.284 180.848 316.602 178.701 317.239 176.92C317.883 175.133 318.807 173.769 320.011 172.83C321.223 171.883 322.678 171.409 324.375 171.409C326.072 171.409 327.523 171.883 328.727 172.83C329.939 173.769 330.864 175.133 331.5 176.92C332.144 178.701 332.466 180.848 332.466 183.364C332.466 185.894 332.148 188.053 331.511 189.841C330.875 191.621 329.955 192.981 328.75 193.92C327.545 194.852 326.087 195.318 324.375 195.318ZM324.375 192.818C326.072 192.818 327.39 192 328.33 190.364C329.269 188.727 329.739 186.394 329.739 183.364C329.739 181.348 329.523 179.633 329.091 178.216C328.667 176.799 328.053 175.72 327.25 174.977C326.455 174.235 325.496 173.864 324.375 173.864C322.693 173.864 321.379 174.693 320.432 176.352C319.485 178.004 319.011 180.341 319.011 183.364C319.011 185.379 319.223 187.091 319.648 188.5C320.072 189.909 320.682 190.981 321.477 191.716C322.28 192.451 323.246 192.818 324.375 192.818ZM344.375 195.318C342.663 195.318 341.205 194.852 340 193.92C338.795 192.981 337.875 191.621 337.239 189.841C336.602 188.053 336.284 185.894 336.284 183.364C336.284 180.848 336.602 178.701 337.239 176.92C337.883 175.133 338.807 173.769 340.011 172.83C341.223 171.883 342.678 171.409 344.375 171.409C346.072 171.409 347.523 171.883 348.727 172.83C349.939 173.769 350.864 175.133 351.5 176.92C352.144 178.701 352.466 180.848 352.466 183.364C352.466 185.894 352.148 188.053 351.511 189.841C350.875 191.621 349.955 192.981 348.75 193.92C347.545 194.852 346.087 195.318 344.375 195.318ZM344.375 192.818C346.072 192.818 347.39 192 348.33 190.364C349.269 188.727 349.739 186.394 349.739 183.364C349.739 181.348 349.523 179.633 349.091 178.216C348.667 176.799 348.053 175.72 347.25 174.977C346.455 174.235 345.496 173.864 344.375 173.864C342.693 173.864 341.379 174.693 340.432 176.352C339.485 178.004 339.011 180.341 339.011 183.364C339.011 185.379 339.223 187.091 339.648 188.5C340.072 189.909 340.682 190.981 341.477 191.716C342.28 192.451 343.246 192.818 344.375 192.818Z" fill="#040404"/>
<path d="M349 720.318C347.288 720.318 345.83 719.852 344.625 718.92C343.42 717.981 342.5 716.621 341.864 714.841C341.227 713.053 340.909 710.894 340.909 708.364C340.909 705.848 341.227 703.701 341.864 701.92C342.508 700.133 343.432 698.769 344.636 697.83C345.848 696.883 347.303 696.409 349 696.409C350.697 696.409 352.148 696.883 353.352 697.83C354.564 698.769 355.489 700.133 356.125 701.92C356.769 703.701 357.091 705.848 357.091 708.364C357.091 710.894 356.773 713.053 356.136 714.841C355.5 716.621 354.58 717.981 353.375 718.92C352.17 719.852 350.712 720.318 349 720.318ZM349 717.818C350.697 717.818 352.015 717 352.955 715.364C353.894 713.727 354.364 711.394 354.364 708.364C354.364 706.348 354.148 704.633 353.716 703.216C353.292 701.799 352.678 700.72 351.875 699.977C351.08 699.235 350.121 698.864 349 698.864C347.318 698.864 346.004 699.693 345.057 701.352C344.11 703.004 343.636 705.341 343.636 708.364C343.636 710.379 343.848 712.091 344.273 713.5C344.697 714.909 345.307 715.981 346.102 716.716C346.905 717.451 347.871 717.818 349 717.818ZM362.597 720.182C362.036 720.182 361.555 719.981 361.153 719.58C360.752 719.178 360.551 718.697 360.551 718.136C360.551 717.576 360.752 717.095 361.153 716.693C361.555 716.292 362.036 716.091 362.597 716.091C363.157 716.091 363.638 716.292 364.04 716.693C364.441 717.095 364.642 717.576 364.642 718.136C364.642 718.508 364.547 718.848 364.358 719.159C364.176 719.47 363.93 719.72 363.619 719.909C363.316 720.091 362.975 720.182 362.597 720.182ZM376.324 720.318C375.369 720.303 374.415 720.121 373.46 719.773C372.506 719.424 371.634 718.837 370.847 718.011C370.059 717.178 369.426 716.053 368.949 714.636C368.472 713.212 368.233 711.424 368.233 709.273C368.233 707.212 368.426 705.386 368.812 703.795C369.199 702.197 369.759 700.852 370.494 699.761C371.229 698.663 372.116 697.83 373.153 697.261C374.199 696.693 375.377 696.409 376.688 696.409C377.991 696.409 379.15 696.67 380.165 697.193C381.188 697.708 382.021 698.428 382.665 699.352C383.309 700.277 383.725 701.341 383.915 702.545H381.142C380.884 701.5 380.384 700.633 379.642 699.943C378.9 699.254 377.915 698.909 376.688 698.909C374.884 698.909 373.464 699.693 372.426 701.261C371.396 702.83 370.877 705.03 370.869 707.864H371.051C371.475 707.22 371.979 706.67 372.562 706.216C373.153 705.754 373.805 705.398 374.517 705.148C375.229 704.898 375.983 704.773 376.778 704.773C378.112 704.773 379.331 705.106 380.438 705.773C381.544 706.432 382.43 707.345 383.097 708.511C383.763 709.67 384.097 711 384.097 712.5C384.097 713.939 383.775 715.258 383.131 716.455C382.487 717.644 381.581 718.591 380.415 719.295C379.256 719.992 377.892 720.333 376.324 720.318ZM376.324 717.818C377.278 717.818 378.134 717.58 378.892 717.102C379.657 716.625 380.259 715.985 380.699 715.182C381.146 714.379 381.369 713.485 381.369 712.5C381.369 711.538 381.153 710.663 380.722 709.875C380.297 709.08 379.71 708.447 378.96 707.977C378.218 707.508 377.369 707.273 376.415 707.273C375.695 707.273 375.025 707.417 374.403 707.705C373.782 707.985 373.237 708.371 372.767 708.864C372.305 709.356 371.941 709.92 371.676 710.557C371.411 711.186 371.278 711.848 371.278 712.545C371.278 713.47 371.494 714.333 371.926 715.136C372.366 715.939 372.964 716.587 373.722 717.08C374.487 717.572 375.354 717.818 376.324 717.818ZM396.293 720.318C395.338 720.303 394.384 720.121 393.429 719.773C392.474 719.424 391.603 718.837 390.815 718.011C390.027 717.178 389.395 716.053 388.918 714.636C388.44 713.212 388.202 711.424 388.202 709.273C388.202 707.212 388.395 705.386 388.781 703.795C389.168 702.197 389.728 700.852 390.463 699.761C391.198 698.663 392.084 697.83 393.122 697.261C394.168 696.693 395.346 696.409 396.656 696.409C397.959 696.409 399.118 696.67 400.134 697.193C401.156 697.708 401.99 698.428 402.634 699.352C403.277 700.277 403.694 701.341 403.884 702.545H401.111C400.853 701.5 400.353 700.633 399.611 699.943C398.868 699.254 397.884 698.909 396.656 698.909C394.853 698.909 393.433 699.693 392.395 701.261C391.365 702.83 390.846 705.03 390.838 707.864H391.02C391.444 707.22 391.948 706.67 392.531 706.216C393.122 705.754 393.774 705.398 394.486 705.148C395.198 704.898 395.952 704.773 396.747 704.773C398.08 704.773 399.3 705.106 400.406 705.773C401.512 706.432 402.399 707.345 403.065 708.511C403.732 709.67 404.065 711 404.065 712.5C404.065 713.939 403.743 715.258 403.099 716.455C402.455 717.644 401.55 718.591 400.384 719.295C399.224 719.992 397.861 720.333 396.293 720.318ZM396.293 717.818C397.247 717.818 398.103 717.58 398.861 717.102C399.626 716.625 400.228 715.985 400.668 715.182C401.115 714.379 401.338 713.485 401.338 712.5C401.338 711.538 401.122 710.663 400.69 709.875C400.266 709.08 399.679 708.447 398.929 707.977C398.187 707.508 397.338 707.273 396.384 707.273C395.664 707.273 394.993 707.417 394.372 707.705C393.751 707.985 393.205 708.371 392.736 708.864C392.274 709.356 391.91 709.92 391.645 710.557C391.38 711.186 391.247 711.848 391.247 712.545C391.247 713.47 391.463 714.333 391.895 715.136C392.334 715.939 392.933 716.587 393.69 717.08C394.455 717.572 395.323 717.818 396.293 717.818ZM429.398 715.636V714.409C429.398 713.561 429.572 712.784 429.92 712.08C430.277 711.367 430.792 710.799 431.466 710.375C432.148 709.943 432.973 709.727 433.943 709.727C434.928 709.727 435.754 709.943 436.42 710.375C437.087 710.799 437.591 711.367 437.932 712.08C438.273 712.784 438.443 713.561 438.443 714.409V715.636C438.443 716.485 438.269 717.265 437.92 717.977C437.58 718.682 437.072 719.25 436.398 719.682C435.731 720.106 434.913 720.318 433.943 720.318C432.958 720.318 432.129 720.106 431.455 719.682C430.78 719.25 430.269 718.682 429.92 717.977C429.572 717.265 429.398 716.485 429.398 715.636ZM431.716 714.409V715.636C431.716 716.341 431.883 716.973 432.216 717.534C432.549 718.087 433.125 718.364 433.943 718.364C434.739 718.364 435.299 718.087 435.625 717.534C435.958 716.973 436.125 716.341 436.125 715.636V714.409C436.125 713.705 435.966 713.076 435.648 712.523C435.33 711.962 434.761 711.682 433.943 711.682C433.148 711.682 432.576 711.962 432.227 712.523C431.886 713.076 431.716 713.705 431.716 714.409ZM417.807 702.318V701.091C417.807 700.242 417.981 699.466 418.33 698.761C418.686 698.049 419.201 697.481 419.875 697.057C420.557 696.625 421.383 696.409 422.352 696.409C423.337 696.409 424.163 696.625 424.83 697.057C425.496 697.481 426 698.049 426.341 698.761C426.682 699.466 426.852 700.242 426.852 701.091V702.318C426.852 703.167 426.678 703.947 426.33 704.659C425.989 705.364 425.481 705.932 424.807 706.364C424.14 706.788 423.322 707 422.352 707C421.367 707 420.538 706.788 419.864 706.364C419.189 705.932 418.678 705.364 418.33 704.659C417.981 703.947 417.807 703.167 417.807 702.318ZM420.125 701.091V702.318C420.125 703.023 420.292 703.655 420.625 704.216C420.958 704.769 421.534 705.045 422.352 705.045C423.148 705.045 423.708 704.769 424.034 704.216C424.367 703.655 424.534 703.023 424.534 702.318V701.091C424.534 700.386 424.375 699.758 424.057 699.205C423.739 698.644 423.17 698.364 422.352 698.364C421.557 698.364 420.985 698.644 420.636 699.205C420.295 699.758 420.125 700.386 420.125 701.091ZM418.67 720L434.67 696.727H437.261L421.261 720H418.67Z" fill="#040404"/>
<path d="M312.591 281.727V305H309.773V284.682H309.636L303.955 288.455V285.591L309.773 281.727H312.591ZM326.875 305.318C325.163 305.318 323.705 304.852 322.5 303.92C321.295 302.981 320.375 301.621 319.739 299.841C319.102 298.053 318.784 295.894 318.784 293.364C318.784 290.848 319.102 288.701 319.739 286.92C320.383 285.133 321.307 283.769 322.511 282.83C323.723 281.883 325.178 281.409 326.875 281.409C328.572 281.409 330.023 281.883 331.227 282.83C332.439 283.769 333.364 285.133 334 286.92C334.644 288.701 334.966 290.848 334.966 293.364C334.966 295.894 334.648 298.053 334.011 299.841C333.375 301.621 332.455 302.981 331.25 303.92C330.045 304.852 328.587 305.318 326.875 305.318ZM326.875 302.818C328.572 302.818 329.89 302 330.83 300.364C331.769 298.727 332.239 296.394 332.239 293.364C332.239 291.348 332.023 289.633 331.591 288.216C331.167 286.799 330.553 285.72 329.75 284.977C328.955 284.235 327.996 283.864 326.875 283.864C325.193 283.864 323.879 284.693 322.932 286.352C321.985 288.004 321.511 290.341 321.511 293.364C321.511 295.379 321.723 297.091 322.148 298.5C322.572 299.909 323.182 300.981 323.977 301.716C324.78 302.451 325.746 302.818 326.875 302.818ZM351.148 300.636V299.409C351.148 298.561 351.322 297.784 351.67 297.08C352.027 296.367 352.542 295.799 353.216 295.375C353.898 294.943 354.723 294.727 355.693 294.727C356.678 294.727 357.504 294.943 358.17 295.375C358.837 295.799 359.341 296.367 359.682 297.08C360.023 297.784 360.193 298.561 360.193 299.409V300.636C360.193 301.485 360.019 302.265 359.67 302.977C359.33 303.682 358.822 304.25 358.148 304.682C357.481 305.106 356.663 305.318 355.693 305.318C354.708 305.318 353.879 305.106 353.205 304.682C352.53 304.25 352.019 303.682 351.67 302.977C351.322 302.265 351.148 301.485 351.148 300.636ZM353.466 299.409V300.636C353.466 301.341 353.633 301.973 353.966 302.534C354.299 303.087 354.875 303.364 355.693 303.364C356.489 303.364 357.049 303.087 357.375 302.534C357.708 301.973 357.875 301.341 357.875 300.636V299.409C357.875 298.705 357.716 298.076 357.398 297.523C357.08 296.962 356.511 296.682 355.693 296.682C354.898 296.682 354.326 296.962 353.977 297.523C353.636 298.076 353.466 298.705 353.466 299.409ZM339.557 287.318V286.091C339.557 285.242 339.731 284.466 340.08 283.761C340.436 283.049 340.951 282.481 341.625 282.057C342.307 281.625 343.133 281.409 344.102 281.409C345.087 281.409 345.913 281.625 346.58 282.057C347.246 282.481 347.75 283.049 348.091 283.761C348.432 284.466 348.602 285.242 348.602 286.091V287.318C348.602 288.167 348.428 288.947 348.08 289.659C347.739 290.364 347.231 290.932 346.557 291.364C345.89 291.788 345.072 292 344.102 292C343.117 292 342.288 291.788 341.614 291.364C340.939 290.932 340.428 290.364 340.08 289.659C339.731 288.947 339.557 288.167 339.557 287.318ZM341.875 286.091V287.318C341.875 288.023 342.042 288.655 342.375 289.216C342.708 289.769 343.284 290.045 344.102 290.045C344.898 290.045 345.458 289.769 345.784 289.216C346.117 288.655 346.284 288.023 346.284 287.318V286.091C346.284 285.386 346.125 284.758 345.807 284.205C345.489 283.644 344.92 283.364 344.102 283.364C343.307 283.364 342.735 283.644 342.386 284.205C342.045 284.758 341.875 285.386 341.875 286.091ZM340.42 305L356.42 281.727H359.011L343.011 305H340.42Z" fill="#040404"/>
<path d="M6.77273 608H3.81818L12.3636 584.727H15.2727L23.8182 608H20.8636L13.9091 588.409H13.7273L6.77273 608ZM7.86364 598.909H19.7727V601.409H7.86364V598.909ZM27.4432 584.727H30.8068L38.7159 604.045H38.9886L46.8977 584.727H50.2614V608H47.625V590.318H47.3977L40.125 608H37.5795L30.3068 590.318H30.0795V608H27.4432V584.727ZM75.5483 596.364C75.5483 598.818 75.1051 600.939 74.2188 602.727C73.3324 604.515 72.1165 605.894 70.571 606.864C69.0256 607.833 67.2604 608.318 65.2756 608.318C63.2907 608.318 61.5256 607.833 59.9801 606.864C58.4347 605.894 57.2188 604.515 56.3324 602.727C55.446 600.939 55.0028 598.818 55.0028 596.364C55.0028 593.909 55.446 591.788 56.3324 590C57.2188 588.212 58.4347 586.833 59.9801 585.864C61.5256 584.894 63.2907 584.409 65.2756 584.409C67.2604 584.409 69.0256 584.894 70.571 585.864C72.1165 586.833 73.3324 588.212 74.2188 590C75.1051 591.788 75.5483 593.909 75.5483 596.364ZM72.821 596.364C72.821 594.348 72.4839 592.648 71.8097 591.261C71.143 589.875 70.2377 588.826 69.0938 588.114C67.9574 587.402 66.6847 587.045 65.2756 587.045C63.8665 587.045 62.59 587.402 61.446 588.114C60.3097 588.826 59.4044 589.875 58.7301 591.261C58.0634 592.648 57.7301 594.348 57.7301 596.364C57.7301 598.379 58.0634 600.08 58.7301 601.466C59.4044 602.852 60.3097 603.902 61.446 604.614C62.59 605.326 63.8665 605.682 65.2756 605.682C66.6847 605.682 67.9574 605.326 69.0938 604.614C70.2377 603.902 71.143 602.852 71.8097 601.466C72.4839 600.08 72.821 598.379 72.821 596.364ZM95.5597 584.727H98.3778V600.136C98.3778 601.727 98.0028 603.148 97.2528 604.398C96.5104 605.64 95.4612 606.621 94.1051 607.341C92.7491 608.053 91.1581 608.409 89.3324 608.409C87.5066 608.409 85.9157 608.053 84.5597 607.341C83.2036 606.621 82.1506 605.64 81.4006 604.398C80.6581 603.148 80.2869 601.727 80.2869 600.136V584.727H83.1051V599.909C83.1051 601.045 83.3551 602.057 83.8551 602.943C84.3551 603.822 85.0672 604.515 85.9915 605.023C86.9233 605.523 88.0369 605.773 89.3324 605.773C90.6278 605.773 91.7415 605.523 92.6733 605.023C93.6051 604.515 94.3172 603.822 94.8097 602.943C95.3097 602.057 95.5597 601.045 95.5597 599.909V584.727ZM122.46 584.727V608H119.733L107.051 589.727H106.824V608H104.006V584.727H106.733L119.46 603.045H119.688V584.727H122.46ZM126.827 587.227V584.727H144.281V587.227H136.963V608H134.145V587.227H126.827ZM148.94 605.023C148.38 605.023 147.899 604.822 147.497 604.42C147.096 604.019 146.895 603.538 146.895 602.977C146.895 602.417 147.096 601.936 147.497 601.534C147.899 601.133 148.38 600.932 148.94 600.932C149.501 600.932 149.982 601.133 150.384 601.534C150.785 601.936 150.986 602.417 150.986 602.977C150.986 603.348 150.891 603.689 150.702 604C150.52 604.311 150.274 604.561 149.963 604.75C149.66 604.932 149.319 605.023 148.94 605.023ZM148.94 593.25C148.38 593.25 147.899 593.049 147.497 592.648C147.096 592.246 146.895 591.765 146.895 591.205C146.895 590.644 147.096 590.163 147.497 589.761C147.899 589.36 148.38 589.159 148.94 589.159C149.501 589.159 149.982 589.36 150.384 589.761C150.785 590.163 150.986 590.644 150.986 591.205C150.986 591.576 150.891 591.917 150.702 592.227C150.52 592.538 150.274 592.788 149.963 592.977C149.66 593.159 149.319 593.25 148.94 593.25Z" fill="#686868"/>
<path d="M21.7273 712C21.4773 711.235 21.1477 710.549 20.7386 709.943C20.3371 709.33 19.8561 708.807 19.2955 708.375C18.7424 707.943 18.1136 707.614 17.4091 707.386C16.7045 707.159 15.9318 707.045 15.0909 707.045C13.7121 707.045 12.4583 707.402 11.3295 708.114C10.2008 708.826 9.30303 709.875 8.63636 711.261C7.9697 712.648 7.63636 714.348 7.63636 716.364C7.63636 718.379 7.97349 720.08 8.64773 721.466C9.32197 722.852 10.2348 723.902 11.3864 724.614C12.5379 725.326 13.8333 725.682 15.2727 725.682C16.6061 725.682 17.7803 725.398 18.7955 724.83C19.8182 724.254 20.6136 723.443 21.1818 722.398C21.7576 721.345 22.0455 720.106 22.0455 718.682L22.9091 718.864H15.9091V716.364H24.7727V718.864C24.7727 720.78 24.3636 722.447 23.5455 723.864C22.7348 725.28 21.6136 726.379 20.1818 727.159C18.7576 727.932 17.1212 728.318 15.2727 728.318C13.2121 728.318 11.4015 727.833 9.84091 726.864C8.28788 725.894 7.07576 724.515 6.20455 722.727C5.34091 720.939 4.90909 718.818 4.90909 716.364C4.90909 714.523 5.1553 712.867 5.64773 711.398C6.14773 709.92 6.85227 708.663 7.76136 707.625C8.67045 706.587 9.74621 705.792 10.9886 705.239C12.2311 704.686 13.5985 704.409 15.0909 704.409C16.3182 704.409 17.4621 704.595 18.5227 704.966C19.5909 705.33 20.5417 705.848 21.375 706.523C22.2159 707.189 22.9167 707.989 23.4773 708.92C24.0379 709.845 24.4242 710.871 24.6364 712H21.7273ZM29.5994 728V704.727H32.4176V725.5H43.2358V728H29.5994ZM66.3295 716.364C66.3295 718.818 65.8864 720.939 65 722.727C64.1136 724.515 62.8977 725.894 61.3523 726.864C59.8068 727.833 58.0417 728.318 56.0568 728.318C54.072 728.318 52.3068 727.833 50.7614 726.864C49.2159 725.894 48 724.515 47.1136 722.727C46.2273 720.939 45.7841 718.818 45.7841 716.364C45.7841 713.909 46.2273 711.788 47.1136 710C48 708.212 49.2159 706.833 50.7614 705.864C52.3068 704.894 54.072 704.409 56.0568 704.409C58.0417 704.409 59.8068 704.894 61.3523 705.864C62.8977 706.833 64.1136 708.212 65 710C65.8864 711.788 66.3295 713.909 66.3295 716.364ZM63.6023 716.364C63.6023 714.348 63.2652 712.648 62.5909 711.261C61.9242 709.875 61.0189 708.826 59.875 708.114C58.7386 707.402 57.4659 707.045 56.0568 707.045C54.6477 707.045 53.3712 707.402 52.2273 708.114C51.0909 708.826 50.1856 709.875 49.5114 711.261C48.8447 712.648 48.5114 714.348 48.5114 716.364C48.5114 718.379 48.8447 720.08 49.5114 721.466C50.1856 722.852 51.0909 723.902 52.2273 724.614C53.3712 725.326 54.6477 725.682 56.0568 725.682C57.4659 725.682 58.7386 725.326 59.875 724.614C61.0189 723.902 61.9242 722.852 62.5909 721.466C63.2652 720.08 63.6023 718.379 63.6023 716.364ZM71.0682 728V704.727H79.2045C80.8258 704.727 82.1629 705.008 83.2159 705.568C84.2689 706.121 85.053 706.867 85.5682 707.807C86.0833 708.739 86.3409 709.773 86.3409 710.909C86.3409 711.909 86.1629 712.735 85.8068 713.386C85.4583 714.038 84.9962 714.553 84.4205 714.932C83.8523 715.311 83.2348 715.591 82.5682 715.773V716C83.2803 716.045 83.9962 716.295 84.7159 716.75C85.4356 717.205 86.0379 717.856 86.5227 718.705C87.0076 719.553 87.25 720.591 87.25 721.818C87.25 722.985 86.9848 724.034 86.4545 724.966C85.9242 725.898 85.0871 726.636 83.9432 727.182C82.7992 727.727 81.3106 728 79.4773 728H71.0682ZM73.8864 725.5H79.4773C81.3182 725.5 82.625 725.144 83.3977 724.432C84.178 723.712 84.5682 722.841 84.5682 721.818C84.5682 721.03 84.3674 720.303 83.9659 719.636C83.5644 718.962 82.9924 718.424 82.25 718.023C81.5076 717.614 80.6288 717.409 79.6136 717.409H73.8864V725.5ZM73.8864 714.955H79.1136C79.9621 714.955 80.7273 714.788 81.4091 714.455C82.0985 714.121 82.6439 713.652 83.0455 713.045C83.4545 712.439 83.6591 711.727 83.6591 710.909C83.6591 709.886 83.303 709.019 82.5909 708.307C81.8788 707.587 80.75 707.227 79.2045 707.227H73.8864V714.955ZM92.8352 728H89.8807L98.4261 704.727H101.335L109.881 728H106.926L99.9716 708.409H99.7898L92.8352 728ZM93.9261 718.909H105.835V721.409H93.9261V718.909ZM113.506 728V704.727H116.324V725.5H127.142V728H113.506ZM153.233 710.545C153.097 709.394 152.544 708.5 151.574 707.864C150.604 707.227 149.415 706.909 148.006 706.909C146.975 706.909 146.074 707.076 145.301 707.409C144.536 707.742 143.938 708.201 143.506 708.784C143.081 709.367 142.869 710.03 142.869 710.773C142.869 711.394 143.017 711.928 143.312 712.375C143.616 712.814 144.002 713.182 144.472 713.477C144.941 713.765 145.434 714.004 145.949 714.193C146.464 714.375 146.938 714.523 147.369 714.636L149.733 715.273C150.339 715.432 151.013 715.652 151.756 715.932C152.506 716.212 153.222 716.595 153.903 717.08C154.593 717.557 155.161 718.17 155.608 718.92C156.055 719.67 156.278 720.591 156.278 721.682C156.278 722.939 155.949 724.076 155.29 725.091C154.638 726.106 153.684 726.913 152.426 727.511C151.176 728.11 149.657 728.409 147.869 728.409C146.203 728.409 144.759 728.14 143.54 727.602C142.328 727.064 141.373 726.314 140.676 725.352C139.987 724.39 139.597 723.273 139.506 722H142.415C142.491 722.879 142.786 723.606 143.301 724.182C143.824 724.75 144.483 725.174 145.278 725.455C146.081 725.727 146.945 725.864 147.869 725.864C148.945 725.864 149.911 725.689 150.767 725.341C151.623 724.985 152.301 724.492 152.801 723.864C153.301 723.227 153.551 722.485 153.551 721.636C153.551 720.864 153.335 720.235 152.903 719.75C152.472 719.265 151.903 718.871 151.199 718.568C150.494 718.265 149.733 718 148.915 717.773L146.051 716.955C144.233 716.432 142.794 715.686 141.733 714.716C140.672 713.746 140.142 712.477 140.142 710.909C140.142 709.606 140.494 708.47 141.199 707.5C141.911 706.523 142.866 705.765 144.062 705.227C145.267 704.682 146.612 704.409 148.097 704.409C149.597 704.409 150.93 704.678 152.097 705.216C153.263 705.746 154.188 706.473 154.869 707.398C155.559 708.322 155.922 709.371 155.96 710.545H153.233ZM160.912 728V704.727H163.73V715.091H176.139V704.727H178.957V728H176.139V717.591H163.73V728H160.912ZM185.554 728H182.599L191.145 704.727H194.054L202.599 728H199.645L192.69 708.409H192.509L185.554 728ZM186.645 718.909H198.554V721.409H186.645V718.909ZM206.224 728V704.727H214.088C215.906 704.727 217.399 705.038 218.565 705.659C219.732 706.273 220.596 707.117 221.156 708.193C221.717 709.269 221.997 710.492 221.997 711.864C221.997 713.235 221.717 714.451 221.156 715.511C220.596 716.572 219.736 717.405 218.577 718.011C217.418 718.61 215.937 718.909 214.134 718.909H207.77V716.364H214.043C215.285 716.364 216.285 716.182 217.043 715.818C217.808 715.455 218.361 714.939 218.702 714.273C219.05 713.598 219.224 712.795 219.224 711.864C219.224 710.932 219.05 710.117 218.702 709.42C218.353 708.723 217.796 708.186 217.031 707.807C216.266 707.42 215.255 707.227 213.997 707.227H209.043V728H206.224ZM217.179 717.545L222.906 728H219.634L213.997 717.545H217.179ZM226.693 728V704.727H240.739V707.227H229.511V715.091H240.011V717.591H229.511V725.5H240.92V728H226.693ZM247.409 725.023C246.848 725.023 246.367 724.822 245.966 724.42C245.564 724.019 245.364 723.538 245.364 722.977C245.364 722.417 245.564 721.936 245.966 721.534C246.367 721.133 246.848 720.932 247.409 720.932C247.97 720.932 248.451 721.133 248.852 721.534C249.254 721.936 249.455 722.417 249.455 722.977C249.455 723.348 249.36 723.689 249.17 724C248.989 724.311 248.742 724.561 248.432 724.75C248.129 724.932 247.788 725.023 247.409 725.023ZM247.409 713.25C246.848 713.25 246.367 713.049 245.966 712.648C245.564 712.246 245.364 711.765 245.364 711.205C245.364 710.644 245.564 710.163 245.966 709.761C246.367 709.36 246.848 709.159 247.409 709.159C247.97 709.159 248.451 709.36 248.852 709.761C249.254 710.163 249.455 710.644 249.455 711.205C249.455 711.576 249.36 711.917 249.17 712.227C248.989 712.538 248.742 712.788 248.432 712.977C248.129 713.159 247.788 713.25 247.409 713.25Z" fill="#686868"/>
<path d="M284.545 34.2273V31.7273H302V34.2273H294.682V55H291.864V34.2273H284.545ZM310.545 55.3636C308.97 55.3636 307.587 54.9886 306.398 54.2386C305.216 53.4886 304.292 52.4394 303.625 51.0909C302.966 49.7424 302.636 48.1667 302.636 46.3636C302.636 44.5455 302.966 42.9583 303.625 41.6023C304.292 40.2462 305.216 39.1932 306.398 38.4432C307.587 37.6932 308.97 37.3182 310.545 37.3182C312.121 37.3182 313.5 37.6932 314.682 38.4432C315.871 39.1932 316.795 40.2462 317.455 41.6023C318.121 42.9583 318.455 44.5455 318.455 46.3636C318.455 48.1667 318.121 49.7424 317.455 51.0909C316.795 52.4394 315.871 53.4886 314.682 54.2386C313.5 54.9886 312.121 55.3636 310.545 55.3636ZM310.545 52.9545C311.742 52.9545 312.727 52.6477 313.5 52.0341C314.273 51.4205 314.845 50.6136 315.216 49.6136C315.587 48.6136 315.773 47.5303 315.773 46.3636C315.773 45.197 315.587 44.1098 315.216 43.1023C314.845 42.0947 314.273 41.2803 313.5 40.6591C312.727 40.0379 311.742 39.7273 310.545 39.7273C309.348 39.7273 308.364 40.0379 307.591 40.6591C306.818 41.2803 306.246 42.0947 305.875 43.1023C305.504 44.1098 305.318 45.197 305.318 46.3636C305.318 47.5303 305.504 48.6136 305.875 49.6136C306.246 50.6136 306.818 51.4205 307.591 52.0341C308.364 52.6477 309.348 52.9545 310.545 52.9545ZM325.048 48.6364L325.003 45.3182H325.548L333.185 37.5455H336.503L328.366 45.7727H328.139L325.048 48.6364ZM322.548 55V31.7273H325.23V55H322.548ZM333.639 55L326.821 46.3636L328.73 44.5L337.048 55H333.639ZM346.554 55.3636C344.872 55.3636 343.421 54.9924 342.202 54.25C340.99 53.5 340.054 52.4545 339.395 51.1136C338.743 49.7652 338.418 48.197 338.418 46.4091C338.418 44.6212 338.743 43.0455 339.395 41.6818C340.054 40.3106 340.971 39.2424 342.145 38.4773C343.327 37.7045 344.705 37.3182 346.281 37.3182C347.19 37.3182 348.088 37.4697 348.974 37.7727C349.861 38.0758 350.668 38.5682 351.395 39.25C352.122 39.9242 352.702 40.8182 353.134 41.9318C353.565 43.0455 353.781 44.4167 353.781 46.0455V47.1818H340.327V44.8636H351.054C351.054 43.8788 350.857 43 350.463 42.2273C350.077 41.4545 349.524 40.8447 348.804 40.3977C348.092 39.9508 347.251 39.7273 346.281 39.7273C345.213 39.7273 344.289 39.9924 343.509 40.5227C342.736 41.0455 342.141 41.7273 341.724 42.5682C341.308 43.4091 341.099 44.3106 341.099 45.2727V46.8182C341.099 48.1364 341.327 49.2538 341.781 50.1705C342.243 51.0795 342.884 51.7727 343.702 52.25C344.52 52.7197 345.471 52.9545 346.554 52.9545C347.259 52.9545 347.895 52.8561 348.463 52.6591C349.039 52.4545 349.535 52.1515 349.952 51.75C350.368 51.3409 350.69 50.8333 350.918 50.2273L353.509 50.9545C353.236 51.8333 352.777 52.6061 352.134 53.2727C351.49 53.9318 350.694 54.447 349.747 54.8182C348.8 55.1818 347.736 55.3636 346.554 55.3636ZM360.543 44.5V55H357.861V37.5455H360.452V40.2727H360.679C361.088 39.3864 361.709 38.6742 362.543 38.1364C363.376 37.5909 364.452 37.3182 365.77 37.3182C366.952 37.3182 367.986 37.5606 368.872 38.0455C369.759 38.5227 370.448 39.25 370.94 40.2273C371.433 41.197 371.679 42.4242 371.679 43.9091V55H368.997V44.0909C368.997 42.7197 368.641 41.6515 367.929 40.8864C367.217 40.1136 366.24 39.7273 364.997 39.7273C364.141 39.7273 363.376 39.9129 362.702 40.2841C362.035 40.6553 361.509 41.197 361.122 41.9091C360.736 42.6212 360.543 43.4848 360.543 44.5ZM386.898 55H383.943L392.489 31.7273H395.398L403.943 55H400.989L394.034 35.4091H393.852L386.898 55ZM387.989 45.9091H399.898V48.4091H387.989V45.9091Z" fill="black"/>
<path d="M470 32H433L452.225 51L470 32Z" fill="#A7A7A7"/>
<rect x="241" y="413" width="440" height="84" fill="#F2F2F2"/>
<path d="M5.81818 468V444.727H13.6818C15.5 444.727 16.9924 445.038 18.1591 445.659C19.3258 446.273 20.1894 447.117 20.75 448.193C21.3106 449.269 21.5909 450.492 21.5909 451.864C21.5909 453.235 21.3106 454.451 20.75 455.511C20.1894 456.572 19.3295 457.405 18.1705 458.011C17.0114 458.61 15.5303 458.909 13.7273 458.909H7.36364V456.364H13.6364C14.8788 456.364 15.8788 456.182 16.6364 455.818C17.4015 455.455 17.9545 454.939 18.2955 454.273C18.6439 453.598 18.8182 452.795 18.8182 451.864C18.8182 450.932 18.6439 450.117 18.2955 449.42C17.947 448.723 17.3902 448.186 16.625 447.807C15.8598 447.42 14.8485 447.227 13.5909 447.227H8.63636V468H5.81818ZM16.7727 457.545L22.5 468H19.2273L13.5909 457.545H16.7727ZM26.2869 468V444.727H40.3324V447.227H29.1051V455.091H39.6051V457.591H29.1051V465.5H40.5142V468H26.2869ZM64.1392 452H61.321C61.1544 451.189 60.8627 450.477 60.446 449.864C60.0369 449.25 59.5369 448.735 58.946 448.318C58.3627 447.894 57.715 447.576 57.0028 447.364C56.2907 447.152 55.5483 447.045 54.7756 447.045C53.3665 447.045 52.09 447.402 50.946 448.114C49.8097 448.826 48.9044 449.875 48.2301 451.261C47.5634 452.648 47.2301 454.348 47.2301 456.364C47.2301 458.379 47.5634 460.08 48.2301 461.466C48.9044 462.852 49.8097 463.902 50.946 464.614C52.09 465.326 53.3665 465.682 54.7756 465.682C55.5483 465.682 56.2907 465.576 57.0028 465.364C57.715 465.152 58.3627 464.837 58.946 464.42C59.5369 463.996 60.0369 463.477 60.446 462.864C60.8627 462.242 61.1544 461.53 61.321 460.727H64.1392C63.9271 461.917 63.5407 462.981 62.9801 463.92C62.4195 464.86 61.7225 465.659 60.8892 466.318C60.0559 466.97 59.1203 467.466 58.0824 467.807C57.0521 468.148 55.9498 468.318 54.7756 468.318C52.7907 468.318 51.0256 467.833 49.4801 466.864C47.9347 465.894 46.7188 464.515 45.8324 462.727C44.946 460.939 44.5028 458.818 44.5028 456.364C44.5028 453.909 44.946 451.788 45.8324 450C46.7188 448.212 47.9347 446.833 49.4801 445.864C51.0256 444.894 52.7907 444.409 54.7756 444.409C55.9498 444.409 57.0521 444.58 58.0824 444.92C59.1203 445.261 60.0559 445.761 60.8892 446.42C61.7225 447.072 62.4195 447.867 62.9801 448.807C63.5407 449.739 63.9271 450.803 64.1392 452ZM68.6932 468V444.727H82.7386V447.227H71.5114V455.091H82.0114V457.591H71.5114V465.5H82.9205V468H68.6932ZM90.6364 444.727V468H87.8182V444.727H90.6364ZM97.2415 444.727L104.151 464.318H104.423L111.332 444.727H114.287L105.741 468H102.832L94.2869 444.727H97.2415ZM117.912 468V444.727H131.957V447.227H120.73V455.091H131.23V457.591H120.73V465.5H132.139V468H117.912ZM137.037 468V444.727H144.901C146.719 444.727 148.211 445.038 149.378 445.659C150.545 446.273 151.408 447.117 151.969 448.193C152.529 449.269 152.81 450.492 152.81 451.864C152.81 453.235 152.529 454.451 151.969 455.511C151.408 456.572 150.548 457.405 149.389 458.011C148.23 458.61 146.749 458.909 144.946 458.909H138.582V456.364H144.855C146.098 456.364 147.098 456.182 147.855 455.818C148.62 455.455 149.173 454.939 149.514 454.273C149.863 453.598 150.037 452.795 150.037 451.864C150.037 450.932 149.863 450.117 149.514 449.42C149.166 448.723 148.609 448.186 147.844 447.807C147.079 447.42 146.067 447.227 144.81 447.227H139.855V468H137.037ZM147.991 457.545L153.719 468H150.446L144.81 457.545H147.991ZM159.097 465.023C158.536 465.023 158.055 464.822 157.653 464.42C157.252 464.019 157.051 463.538 157.051 462.977C157.051 462.417 157.252 461.936 157.653 461.534C158.055 461.133 158.536 460.932 159.097 460.932C159.657 460.932 160.138 461.133 160.54 461.534C160.941 461.936 161.142 462.417 161.142 462.977C161.142 463.348 161.047 463.689 160.858 464C160.676 464.311 160.43 464.561 160.119 464.75C159.816 464.932 159.475 465.023 159.097 465.023ZM159.097 453.25C158.536 453.25 158.055 453.049 157.653 452.648C157.252 452.246 157.051 451.765 157.051 451.205C157.051 450.644 157.252 450.163 157.653 449.761C158.055 449.36 158.536 449.159 159.097 449.159C159.657 449.159 160.138 449.36 160.54 449.761C160.941 450.163 161.142 450.644 161.142 451.205C161.142 451.576 161.047 451.917 160.858 452.227C160.676 452.538 160.43 452.788 160.119 452.977C159.816 453.159 159.475 453.25 159.097 453.25Z" fill="#686868"/>
<path d="M293 468.318C291.288 468.318 289.83 467.852 288.625 466.92C287.42 465.981 286.5 464.621 285.864 462.841C285.227 461.053 284.909 458.894 284.909 456.364C284.909 453.848 285.227 451.701 285.864 449.92C286.508 448.133 287.432 446.769 288.636 445.83C289.848 444.883 291.303 444.409 293 444.409C294.697 444.409 296.148 444.883 297.352 445.83C298.564 446.769 299.489 448.133 300.125 449.92C300.769 451.701 301.091 453.848 301.091 456.364C301.091 458.894 300.773 461.053 300.136 462.841C299.5 464.621 298.58 465.981 297.375 466.92C296.17 467.852 294.712 468.318 293 468.318ZM293 465.818C294.697 465.818 296.015 465 296.955 463.364C297.894 461.727 298.364 459.394 298.364 456.364C298.364 454.348 298.148 452.633 297.716 451.216C297.292 449.799 296.678 448.72 295.875 447.977C295.08 447.235 294.121 446.864 293 446.864C291.318 446.864 290.004 447.693 289.057 449.352C288.11 451.004 287.636 453.341 287.636 456.364C287.636 458.379 287.848 460.091 288.273 461.5C288.697 462.909 289.307 463.981 290.102 464.716C290.905 465.451 291.871 465.818 293 465.818ZM307.455 450.545L311.636 457.682L315.818 450.545H318.909L313.273 459.273L318.909 468H315.818L311.636 461.227L307.455 468H304.364L309.909 459.273L304.364 450.545H307.455ZM330.509 450.545V452.818H321.099V450.545H330.509ZM323.918 468V448.136C323.918 447.136 324.152 446.303 324.622 445.636C325.092 444.97 325.702 444.47 326.452 444.136C327.202 443.803 327.993 443.636 328.827 443.636C329.486 443.636 330.024 443.689 330.44 443.795C330.857 443.902 331.168 444 331.372 444.091L330.599 446.409C330.463 446.364 330.274 446.307 330.031 446.239C329.796 446.17 329.486 446.136 329.099 446.136C328.213 446.136 327.573 446.36 327.179 446.807C326.793 447.254 326.599 447.909 326.599 448.773V468H323.918ZM338.903 468.409C337.797 468.409 336.794 468.201 335.892 467.784C334.991 467.36 334.275 466.75 333.744 465.955C333.214 465.152 332.949 464.182 332.949 463.045C332.949 462.045 333.146 461.235 333.54 460.614C333.934 459.985 334.46 459.492 335.119 459.136C335.778 458.78 336.506 458.515 337.301 458.341C338.104 458.159 338.911 458.015 339.722 457.909C340.782 457.773 341.642 457.67 342.301 457.602C342.968 457.527 343.453 457.402 343.756 457.227C344.066 457.053 344.222 456.75 344.222 456.318V456.227C344.222 455.106 343.915 454.235 343.301 453.614C342.695 452.992 341.775 452.682 340.54 452.682C339.259 452.682 338.256 452.962 337.528 453.523C336.801 454.083 336.29 454.682 335.994 455.318L333.449 454.409C333.903 453.348 334.509 452.523 335.267 451.932C336.032 451.333 336.866 450.917 337.767 450.682C338.676 450.439 339.57 450.318 340.449 450.318C341.009 450.318 341.653 450.386 342.381 450.523C343.116 450.652 343.824 450.92 344.506 451.33C345.195 451.739 345.767 452.356 346.222 453.182C346.676 454.008 346.903 455.114 346.903 456.5V468H344.222V465.636H344.085C343.903 466.015 343.6 466.42 343.176 466.852C342.752 467.284 342.188 467.652 341.483 467.955C340.778 468.258 339.919 468.409 338.903 468.409ZM339.312 466C340.373 466 341.267 465.792 341.994 465.375C342.729 464.958 343.282 464.42 343.653 463.761C344.032 463.102 344.222 462.409 344.222 461.682V459.227C344.108 459.364 343.858 459.489 343.472 459.602C343.093 459.708 342.653 459.803 342.153 459.886C341.661 459.962 341.18 460.03 340.71 460.091C340.248 460.144 339.873 460.189 339.585 460.227C338.888 460.318 338.237 460.466 337.631 460.67C337.032 460.867 336.547 461.167 336.176 461.568C335.813 461.962 335.631 462.5 335.631 463.182C335.631 464.114 335.975 464.818 336.665 465.295C337.362 465.765 338.244 466 339.312 466ZM352.162 468V444.727H354.844V453.318H355.071C355.268 453.015 355.541 452.629 355.889 452.159C356.245 451.682 356.753 451.258 357.412 450.886C358.079 450.508 358.98 450.318 360.116 450.318C361.586 450.318 362.882 450.686 364.003 451.42C365.124 452.155 365.999 453.197 366.628 454.545C367.257 455.894 367.571 457.485 367.571 459.318C367.571 461.167 367.257 462.769 366.628 464.125C365.999 465.473 365.128 466.519 364.014 467.261C362.901 467.996 361.616 468.364 360.162 468.364C359.041 468.364 358.143 468.178 357.469 467.807C356.795 467.428 356.276 467 355.912 466.523C355.548 466.038 355.268 465.636 355.071 465.318H354.753V468H352.162ZM354.798 459.273C354.798 460.591 354.991 461.754 355.378 462.761C355.764 463.761 356.329 464.545 357.071 465.114C357.813 465.674 358.723 465.955 359.798 465.955C360.92 465.955 361.855 465.659 362.605 465.068C363.363 464.47 363.931 463.667 364.31 462.659C364.696 461.644 364.889 460.515 364.889 459.273C364.889 458.045 364.7 456.939 364.321 455.955C363.95 454.962 363.385 454.178 362.628 453.602C361.878 453.019 360.935 452.727 359.798 452.727C358.707 452.727 357.791 453.004 357.048 453.557C356.306 454.102 355.745 454.867 355.366 455.852C354.988 456.83 354.798 457.97 354.798 459.273ZM379.082 468.318C377.522 468.318 376.143 468.042 374.946 467.489C373.757 466.928 372.829 466.159 372.162 465.182C371.495 464.197 371.166 463.076 371.173 461.818C371.166 460.833 371.359 459.924 371.753 459.091C372.147 458.25 372.685 457.549 373.366 456.989C374.056 456.42 374.825 456.061 375.673 455.909V455.773C374.56 455.485 373.673 454.86 373.014 453.898C372.355 452.928 372.029 451.826 372.037 450.591C372.029 449.409 372.329 448.352 372.935 447.42C373.541 446.489 374.374 445.754 375.435 445.216C376.503 444.678 377.719 444.409 379.082 444.409C380.431 444.409 381.635 444.678 382.696 445.216C383.757 445.754 384.59 446.489 385.196 447.42C385.81 448.352 386.12 449.409 386.128 450.591C386.12 451.826 385.783 452.928 385.116 453.898C384.457 454.86 383.582 455.485 382.491 455.773V455.909C383.332 456.061 384.09 456.42 384.764 456.989C385.438 457.549 385.976 458.25 386.378 459.091C386.779 459.924 386.984 460.833 386.991 461.818C386.984 463.076 386.643 464.197 385.969 465.182C385.302 466.159 384.374 466.928 383.185 467.489C382.003 468.042 380.635 468.318 379.082 468.318ZM379.082 465.818C380.135 465.818 381.045 465.648 381.81 465.307C382.575 464.966 383.166 464.485 383.582 463.864C383.999 463.242 384.211 462.515 384.219 461.682C384.211 460.803 383.984 460.027 383.537 459.352C383.09 458.678 382.48 458.148 381.707 457.761C380.942 457.375 380.067 457.182 379.082 457.182C378.09 457.182 377.204 457.375 376.423 457.761C375.651 458.148 375.041 458.678 374.594 459.352C374.154 460.027 373.938 460.803 373.946 461.682C373.938 462.515 374.139 463.242 374.548 463.864C374.965 464.485 375.56 464.966 376.332 465.307C377.105 465.648 378.022 465.818 379.082 465.818ZM379.082 454.773C379.916 454.773 380.654 454.606 381.298 454.273C381.95 453.939 382.461 453.473 382.832 452.875C383.204 452.277 383.393 451.576 383.401 450.773C383.393 449.985 383.207 449.299 382.844 448.716C382.48 448.125 381.976 447.67 381.332 447.352C380.688 447.027 379.938 446.864 379.082 446.864C378.211 446.864 377.45 447.027 376.798 447.352C376.147 447.67 375.643 448.125 375.287 448.716C374.931 449.299 374.757 449.985 374.764 450.773C374.757 451.576 374.935 452.277 375.298 452.875C375.67 453.473 376.181 453.939 376.832 454.273C377.484 454.606 378.234 454.773 379.082 454.773ZM399.528 444.727V468H396.71V447.682H396.574L390.892 451.455V448.591L396.71 444.727H399.528ZM413.812 468.318C412.1 468.318 410.642 467.852 409.438 466.92C408.233 465.981 407.313 464.621 406.676 462.841C406.04 461.053 405.722 458.894 405.722 456.364C405.722 453.848 406.04 451.701 406.676 449.92C407.32 448.133 408.244 446.769 409.449 445.83C410.661 444.883 412.116 444.409 413.812 444.409C415.509 444.409 416.96 444.883 418.165 445.83C419.377 446.769 420.301 448.133 420.938 449.92C421.581 451.701 421.903 453.848 421.903 456.364C421.903 458.894 421.585 461.053 420.949 462.841C420.312 464.621 419.392 465.981 418.188 466.92C416.983 467.852 415.525 468.318 413.812 468.318ZM413.812 465.818C415.509 465.818 416.828 465 417.767 463.364C418.706 461.727 419.176 459.394 419.176 456.364C419.176 454.348 418.96 452.633 418.528 451.216C418.104 449.799 417.491 448.72 416.688 447.977C415.892 447.235 414.934 446.864 413.812 446.864C412.131 446.864 410.816 447.693 409.869 449.352C408.922 451.004 408.449 453.341 408.449 456.364C408.449 458.379 408.661 460.091 409.085 461.5C409.509 462.909 410.119 463.981 410.915 464.716C411.718 465.451 412.684 465.818 413.812 465.818ZM426.267 450.545H428.949V469.273C428.949 470.348 428.763 471.28 428.392 472.068C428.028 472.856 427.475 473.466 426.733 473.898C425.998 474.33 425.07 474.545 423.949 474.545C423.858 474.545 423.767 474.545 423.676 474.545C423.585 474.545 423.494 474.545 423.403 474.545V472.045C423.494 472.045 423.578 472.045 423.653 472.045C423.729 472.045 423.812 472.045 423.903 472.045C424.722 472.045 425.32 471.803 425.699 471.318C426.078 470.841 426.267 470.159 426.267 469.273V450.545ZM427.585 447.636C427.063 447.636 426.612 447.458 426.233 447.102C425.862 446.746 425.676 446.318 425.676 445.818C425.676 445.318 425.862 444.89 426.233 444.534C426.612 444.178 427.063 444 427.585 444C428.108 444 428.555 444.178 428.926 444.534C429.305 444.89 429.494 445.318 429.494 445.818C429.494 446.318 429.305 446.746 428.926 447.102C428.555 447.458 428.108 447.636 427.585 447.636ZM435.815 468.182C435.255 468.182 434.774 467.981 434.372 467.58C433.971 467.178 433.77 466.697 433.77 466.136C433.77 465.576 433.971 465.095 434.372 464.693C434.774 464.292 435.255 464.091 435.815 464.091C436.376 464.091 436.857 464.292 437.259 464.693C437.66 465.095 437.861 465.576 437.861 466.136C437.861 466.508 437.766 466.848 437.577 467.159C437.395 467.47 437.149 467.72 436.838 467.909C436.535 468.091 436.194 468.182 435.815 468.182ZM444.628 468.182C444.067 468.182 443.586 467.981 443.185 467.58C442.783 467.178 442.582 466.697 442.582 466.136C442.582 465.576 442.783 465.095 443.185 464.693C443.586 464.292 444.067 464.091 444.628 464.091C445.188 464.091 445.67 464.292 446.071 464.693C446.473 465.095 446.673 465.576 446.673 466.136C446.673 466.508 446.579 466.848 446.389 467.159C446.207 467.47 445.961 467.72 445.651 467.909C445.348 468.091 445.007 468.182 444.628 468.182ZM453.44 468.182C452.88 468.182 452.399 467.981 451.997 467.58C451.596 467.178 451.395 466.697 451.395 466.136C451.395 465.576 451.596 465.095 451.997 464.693C452.399 464.292 452.88 464.091 453.44 464.091C454.001 464.091 454.482 464.292 454.884 464.693C455.285 465.095 455.486 465.576 455.486 466.136C455.486 466.508 455.391 466.848 455.202 467.159C455.02 467.47 454.774 467.72 454.463 467.909C454.16 468.091 453.819 468.182 453.44 468.182Z" fill="black"/>
<rect x="241" y="553" width="164" height="84" fill="#F2F2F2"/>
<path d="M285.409 608V605.955L293.091 597.545C293.992 596.561 294.735 595.705 295.318 594.977C295.902 594.242 296.333 593.553 296.614 592.909C296.902 592.258 297.045 591.576 297.045 590.864C297.045 590.045 296.848 589.337 296.455 588.739C296.068 588.14 295.538 587.678 294.864 587.352C294.189 587.027 293.432 586.864 292.591 586.864C291.697 586.864 290.917 587.049 290.25 587.42C289.591 587.784 289.08 588.295 288.716 588.955C288.36 589.614 288.182 590.386 288.182 591.273H285.5C285.5 589.909 285.814 588.712 286.443 587.682C287.072 586.652 287.928 585.848 289.011 585.273C290.102 584.697 291.326 584.409 292.682 584.409C294.045 584.409 295.254 584.697 296.307 585.273C297.36 585.848 298.186 586.625 298.784 587.602C299.383 588.58 299.682 589.667 299.682 590.864C299.682 591.72 299.527 592.557 299.216 593.375C298.913 594.186 298.383 595.091 297.625 596.091C296.875 597.083 295.833 598.295 294.5 599.727L289.273 605.318V605.5H300.091V608H285.409ZM312.375 608.318C310.663 608.318 309.205 607.852 308 606.92C306.795 605.981 305.875 604.621 305.239 602.841C304.602 601.053 304.284 598.894 304.284 596.364C304.284 593.848 304.602 591.701 305.239 589.92C305.883 588.133 306.807 586.769 308.011 585.83C309.223 584.883 310.678 584.409 312.375 584.409C314.072 584.409 315.523 584.883 316.727 585.83C317.939 586.769 318.864 588.133 319.5 589.92C320.144 591.701 320.466 593.848 320.466 596.364C320.466 598.894 320.148 601.053 319.511 602.841C318.875 604.621 317.955 605.981 316.75 606.92C315.545 607.852 314.087 608.318 312.375 608.318ZM312.375 605.818C314.072 605.818 315.39 605 316.33 603.364C317.269 601.727 317.739 599.394 317.739 596.364C317.739 594.348 317.523 592.633 317.091 591.216C316.667 589.799 316.053 588.72 315.25 587.977C314.455 587.235 313.496 586.864 312.375 586.864C310.693 586.864 309.379 587.693 308.432 589.352C307.485 591.004 307.011 593.341 307.011 596.364C307.011 598.379 307.223 600.091 307.648 601.5C308.072 602.909 308.682 603.981 309.477 604.716C310.28 605.451 311.246 605.818 312.375 605.818ZM332.375 608.318C330.663 608.318 329.205 607.852 328 606.92C326.795 605.981 325.875 604.621 325.239 602.841C324.602 601.053 324.284 598.894 324.284 596.364C324.284 593.848 324.602 591.701 325.239 589.92C325.883 588.133 326.807 586.769 328.011 585.83C329.223 584.883 330.678 584.409 332.375 584.409C334.072 584.409 335.523 584.883 336.727 585.83C337.939 586.769 338.864 588.133 339.5 589.92C340.144 591.701 340.466 593.848 340.466 596.364C340.466 598.894 340.148 601.053 339.511 602.841C338.875 604.621 337.955 605.981 336.75 606.92C335.545 607.852 334.087 608.318 332.375 608.318ZM332.375 605.818C334.072 605.818 335.39 605 336.33 603.364C337.269 601.727 337.739 599.394 337.739 596.364C337.739 594.348 337.523 592.633 337.091 591.216C336.667 589.799 336.053 588.72 335.25 587.977C334.455 587.235 333.496 586.864 332.375 586.864C330.693 586.864 329.379 587.693 328.432 589.352C327.485 591.004 327.011 593.341 327.011 596.364C327.011 598.379 327.223 600.091 327.648 601.5C328.072 602.909 328.682 603.981 329.477 604.716C330.28 605.451 331.246 605.818 332.375 605.818Z" fill="black"/>
<rect y="815" width="164" height="84" fill="#FFC633"/>
<path d="M48.5455 852.545C48.4091 851.394 47.8561 850.5 46.8864 849.864C45.9167 849.227 44.7273 848.909 43.3182 848.909C42.2879 848.909 41.3864 849.076 40.6136 849.409C39.8485 849.742 39.25 850.201 38.8182 850.784C38.3939 851.367 38.1818 852.03 38.1818 852.773C38.1818 853.394 38.3295 853.928 38.625 854.375C38.928 854.814 39.3144 855.182 39.7841 855.477C40.2538 855.765 40.7462 856.004 41.2614 856.193C41.7765 856.375 42.25 856.523 42.6818 856.636L45.0455 857.273C45.6515 857.432 46.3258 857.652 47.0682 857.932C47.8182 858.212 48.5341 858.595 49.2159 859.08C49.9053 859.557 50.4735 860.17 50.9205 860.92C51.3674 861.67 51.5909 862.591 51.5909 863.682C51.5909 864.939 51.2614 866.076 50.6023 867.091C49.9508 868.106 48.9962 868.913 47.7386 869.511C46.4886 870.11 44.9697 870.409 43.1818 870.409C41.5152 870.409 40.072 870.14 38.8523 869.602C37.6402 869.064 36.6856 868.314 35.9886 867.352C35.2992 866.39 34.9091 865.273 34.8182 864H37.7273C37.803 864.879 38.0985 865.606 38.6136 866.182C39.1364 866.75 39.7955 867.174 40.5909 867.455C41.3939 867.727 42.2576 867.864 43.1818 867.864C44.2576 867.864 45.2235 867.689 46.0795 867.341C46.9356 866.985 47.6136 866.492 48.1136 865.864C48.6136 865.227 48.8636 864.485 48.8636 863.636C48.8636 862.864 48.6477 862.235 48.2159 861.75C47.7841 861.265 47.2159 860.871 46.5114 860.568C45.8068 860.265 45.0455 860 44.2273 859.773L41.3636 858.955C39.5455 858.432 38.1061 857.686 37.0455 856.716C35.9848 855.746 35.4545 854.477 35.4545 852.909C35.4545 851.606 35.8068 850.47 36.5114 849.5C37.2235 848.523 38.178 847.765 39.375 847.227C40.5795 846.682 41.9242 846.409 43.4091 846.409C44.9091 846.409 46.2424 846.678 47.4091 847.216C48.5758 847.746 49.5 848.473 50.1818 849.398C50.8712 850.322 51.2348 851.371 51.2727 852.545H48.5455ZM66.8608 862.864V852.545H69.5426V870H66.8608V867.045H66.679C66.2699 867.932 65.6335 868.686 64.7699 869.307C63.9063 869.92 62.8153 870.227 61.4972 870.227C60.4062 870.227 59.4366 869.989 58.5881 869.511C57.7396 869.027 57.0729 868.299 56.5881 867.33C56.1032 866.352 55.8608 865.121 55.8608 863.636V852.545H58.5426V863.455C58.5426 864.727 58.8987 865.742 59.6108 866.5C60.3305 867.258 61.2472 867.636 62.3608 867.636C63.0275 867.636 63.7055 867.466 64.3949 867.125C65.0919 866.784 65.6752 866.261 66.1449 865.557C66.6222 864.852 66.8608 863.955 66.8608 862.864ZM74.8182 870V846.727H77.5V855.318H77.7273C77.9242 855.015 78.197 854.629 78.5455 854.159C78.9015 853.682 79.4091 853.258 80.0682 852.886C80.7348 852.508 81.6364 852.318 82.7727 852.318C84.2424 852.318 85.5379 852.686 86.6591 853.42C87.7803 854.155 88.6553 855.197 89.2841 856.545C89.9129 857.894 90.2273 859.485 90.2273 861.318C90.2273 863.167 89.9129 864.769 89.2841 866.125C88.6553 867.473 87.7841 868.519 86.6705 869.261C85.5568 869.996 84.2727 870.364 82.8182 870.364C81.697 870.364 80.7992 870.178 80.125 869.807C79.4508 869.428 78.9318 869 78.5682 868.523C78.2045 868.038 77.9242 867.636 77.7273 867.318H77.4091V870H74.8182ZM77.4545 861.273C77.4545 862.591 77.6477 863.754 78.0341 864.761C78.4205 865.761 78.9848 866.545 79.7273 867.114C80.4697 867.674 81.3788 867.955 82.4545 867.955C83.5758 867.955 84.5114 867.659 85.2614 867.068C86.0189 866.47 86.5871 865.667 86.9659 864.659C87.3523 863.644 87.5455 862.515 87.5455 861.273C87.5455 860.045 87.3561 858.939 86.9773 857.955C86.6061 856.962 86.0417 856.178 85.2841 855.602C84.5341 855.019 83.5909 854.727 82.4545 854.727C81.3636 854.727 80.447 855.004 79.7045 855.557C78.9621 856.102 78.4015 856.867 78.0227 857.852C77.6439 858.83 77.4545 859.97 77.4545 861.273ZM94.3295 870V852.545H96.9205V855.273H97.1477C97.5114 854.341 98.0985 853.617 98.9091 853.102C99.7197 852.58 100.693 852.318 101.83 852.318C102.981 852.318 103.939 852.58 104.705 853.102C105.477 853.617 106.08 854.341 106.511 855.273H106.693C107.14 854.371 107.811 853.655 108.705 853.125C109.598 852.587 110.67 852.318 111.92 852.318C113.481 852.318 114.758 852.807 115.75 853.784C116.742 854.754 117.239 856.265 117.239 858.318V870H114.557V858.318C114.557 857.03 114.205 856.11 113.5 855.557C112.795 855.004 111.966 854.727 111.011 854.727C109.784 854.727 108.833 855.098 108.159 855.841C107.485 856.576 107.148 857.508 107.148 858.636V870H104.42V858.045C104.42 857.053 104.098 856.254 103.455 855.648C102.811 855.034 101.981 854.727 100.966 854.727C100.269 854.727 99.6174 854.913 99.0114 855.284C98.4129 855.655 97.928 856.17 97.5568 856.83C97.1932 857.481 97.0114 858.235 97.0114 859.091V870H94.3295ZM122.142 870V852.545H124.824V870H122.142ZM123.506 849.636C122.983 849.636 122.532 849.458 122.153 849.102C121.782 848.746 121.597 848.318 121.597 847.818C121.597 847.318 121.782 846.89 122.153 846.534C122.532 846.178 122.983 846 123.506 846C124.028 846 124.475 846.178 124.847 846.534C125.225 846.89 125.415 847.318 125.415 847.818C125.415 848.318 125.225 848.746 124.847 849.102C124.475 849.458 124.028 849.636 123.506 849.636ZM137.327 852.545V854.818H128.281V852.545H137.327ZM130.918 848.364H133.599V865C133.599 865.758 133.709 866.326 133.929 866.705C134.156 867.076 134.444 867.326 134.793 867.455C135.149 867.576 135.524 867.636 135.918 867.636C136.213 867.636 136.455 867.621 136.645 867.591C136.834 867.553 136.986 867.523 137.099 867.5L137.645 869.909C137.463 869.977 137.209 870.045 136.884 870.114C136.558 870.189 136.145 870.227 135.645 870.227C134.887 870.227 134.145 870.064 133.418 869.739C132.698 869.413 132.099 868.917 131.622 868.25C131.152 867.583 130.918 866.742 130.918 865.727V848.364Z" fill="#1D1D1D"/>
</svg>
