<svg width="900" height="845" viewBox="0 0 900 845" fill="none" xmlns="http://www.w3.org/2000/svg">
<rect x="454" y="202" width="256" height="84" fill="#F2F2F2"/>
<path d="M18.5455 239.545C18.4091 238.394 17.8561 237.5 16.8864 236.864C15.9167 236.227 14.7273 235.909 13.3182 235.909C12.2879 235.909 11.3864 236.076 10.6136 236.409C9.84849 236.742 9.25 237.201 8.81818 237.784C8.39394 238.367 8.18182 239.03 8.18182 239.773C8.18182 240.394 8.32955 240.928 8.625 241.375C8.92803 241.814 9.31439 242.182 9.78409 242.477C10.2538 242.765 10.7462 243.004 11.2614 243.193C11.7765 243.375 12.25 243.523 12.6818 243.636L15.0455 244.273C15.6515 244.432 16.3258 244.652 17.0682 244.932C17.8182 245.212 18.5341 245.595 19.2159 246.08C19.9053 246.557 20.4735 247.17 20.9205 247.92C21.3674 248.67 21.5909 249.591 21.5909 250.682C21.5909 251.939 21.2614 253.076 20.6023 254.091C19.9508 255.106 18.9962 255.913 17.7386 256.511C16.4886 257.11 14.9697 257.409 13.1818 257.409C11.5152 257.409 10.072 257.14 8.85227 256.602C7.64015 256.064 6.68561 255.314 5.98864 254.352C5.29924 253.39 4.90909 252.273 4.81818 251H7.72727C7.80303 251.879 8.09848 252.606 8.61364 253.182C9.13636 253.75 9.79545 254.174 10.5909 254.455C11.3939 254.727 12.2576 254.864 13.1818 254.864C14.2576 254.864 15.2235 254.689 16.0795 254.341C16.9356 253.985 17.6136 253.492 18.1136 252.864C18.6136 252.227 18.8636 251.485 18.8636 250.636C18.8636 249.864 18.6477 249.235 18.2159 248.75C17.7841 248.265 17.2159 247.871 16.5114 247.568C15.8068 247.265 15.0455 247 14.2273 246.773L11.3636 245.955C9.54545 245.432 8.10606 244.686 7.04545 243.716C5.98485 242.746 5.45455 241.477 5.45455 239.909C5.45455 238.606 5.80682 237.47 6.51136 236.5C7.22348 235.523 8.17803 234.765 9.375 234.227C10.5795 233.682 11.9242 233.409 13.4091 233.409C14.9091 233.409 16.2424 233.678 17.4091 234.216C18.5758 234.746 19.5 235.473 20.1818 236.398C20.8712 237.322 21.2348 238.371 21.2727 239.545H18.5455ZM26.2244 257V233.727H40.2699V236.227H29.0426V244.091H39.5426V246.591H29.0426V254.5H40.4517V257H26.2244ZM63.804 233.727V257H61.0767L48.3949 238.727H48.1676V257H45.3494V233.727H48.0767L60.804 252.045H61.0312V233.727H63.804ZM76.625 257H69.4432V233.727H76.9432C79.2008 233.727 81.1326 234.193 82.7386 235.125C84.3447 236.049 85.5758 237.379 86.4318 239.114C87.2879 240.841 87.7159 242.909 87.7159 245.318C87.7159 247.742 87.2841 249.83 86.4205 251.58C85.5568 253.322 84.2992 254.663 82.6477 255.602C80.9962 256.534 78.9886 257 76.625 257ZM72.2614 254.5H76.4432C78.3674 254.5 79.9621 254.129 81.2273 253.386C82.4924 252.644 83.4356 251.587 84.0568 250.216C84.678 248.845 84.9886 247.212 84.9886 245.318C84.9886 243.439 84.6818 241.822 84.0682 240.466C83.4545 239.102 82.5379 238.057 81.3182 237.33C80.0985 236.595 78.5795 236.227 76.7614 236.227H72.2614V254.5ZM92.4432 257V233.727H106.489V236.227H95.2614V244.091H105.761V246.591H95.2614V254.5H106.67V257H92.4432ZM111.568 257V233.727H119.432C121.25 233.727 122.742 234.038 123.909 234.659C125.076 235.273 125.939 236.117 126.5 237.193C127.061 238.269 127.341 239.492 127.341 240.864C127.341 242.235 127.061 243.451 126.5 244.511C125.939 245.572 125.08 246.405 123.92 247.011C122.761 247.61 121.28 247.909 119.477 247.909H113.114V245.364H119.386C120.629 245.364 121.629 245.182 122.386 244.818C123.152 244.455 123.705 243.939 124.045 243.273C124.394 242.598 124.568 241.795 124.568 240.864C124.568 239.932 124.394 239.117 124.045 238.42C123.697 237.723 123.14 237.186 122.375 236.807C121.61 236.42 120.598 236.227 119.341 236.227H114.386V257H111.568ZM122.523 246.545L128.25 257H124.977L119.341 246.545H122.523ZM139.764 236.227V233.727H157.219V236.227H149.901V257H147.082V236.227H139.764ZM180.236 245.364C180.236 247.818 179.793 249.939 178.906 251.727C178.02 253.515 176.804 254.894 175.259 255.864C173.713 256.833 171.948 257.318 169.963 257.318C167.978 257.318 166.213 256.833 164.668 255.864C163.122 254.894 161.906 253.515 161.02 251.727C160.134 249.939 159.69 247.818 159.69 245.364C159.69 242.909 160.134 240.788 161.02 239C161.906 237.212 163.122 235.833 164.668 234.864C166.213 233.894 167.978 233.409 169.963 233.409C171.948 233.409 173.713 233.894 175.259 234.864C176.804 235.833 178.02 237.212 178.906 239C179.793 240.788 180.236 242.909 180.236 245.364ZM177.509 245.364C177.509 243.348 177.171 241.648 176.497 240.261C175.83 238.875 174.925 237.826 173.781 237.114C172.645 236.402 171.372 236.045 169.963 236.045C168.554 236.045 167.277 236.402 166.134 237.114C164.997 237.826 164.092 238.875 163.418 240.261C162.751 241.648 162.418 243.348 162.418 245.364C162.418 247.379 162.751 249.08 163.418 250.466C164.092 251.852 164.997 252.902 166.134 253.614C167.277 254.326 168.554 254.682 169.963 254.682C171.372 254.682 172.645 254.326 173.781 253.614C174.925 252.902 175.83 251.852 176.497 250.466C177.171 249.08 177.509 247.379 177.509 245.364ZM184.974 257V233.727H187.793V245.273H188.065L198.52 233.727H202.202L192.429 244.227L202.202 257H198.793L190.702 246.182L187.793 249.455V257H184.974ZM205.849 257V233.727H219.895V236.227H208.668V244.091H219.168V246.591H208.668V254.5H220.077V257H205.849ZM243.429 233.727V257H240.702L228.02 238.727H227.793V257H224.974V233.727H227.702L240.429 252.045H240.656V233.727H243.429ZM250.659 254.023C250.098 254.023 249.617 253.822 249.216 253.42C248.814 253.019 248.614 252.538 248.614 251.977C248.614 251.417 248.814 250.936 249.216 250.534C249.617 250.133 250.098 249.932 250.659 249.932C251.22 249.932 251.701 250.133 252.102 250.534C252.504 250.936 252.705 251.417 252.705 251.977C252.705 252.348 252.61 252.689 252.42 253C252.239 253.311 251.992 253.561 251.682 253.75C251.379 253.932 251.038 254.023 250.659 254.023ZM250.659 242.25C250.098 242.25 249.617 242.049 249.216 241.648C248.814 241.246 248.614 240.765 248.614 240.205C248.614 239.644 248.814 239.163 249.216 238.761C249.617 238.36 250.098 238.159 250.659 238.159C251.22 238.159 251.701 238.36 252.102 238.761C252.504 239.163 252.705 239.644 252.705 240.205C252.705 240.576 252.61 240.917 252.42 241.227C252.239 241.538 251.992 241.788 251.682 241.977C251.379 242.159 251.038 242.25 250.659 242.25Z" fill="#686868"/>
<path d="M497 647.318C495.288 647.318 493.83 646.852 492.625 645.92C491.42 644.981 490.5 643.621 489.864 641.841C489.227 640.053 488.909 637.894 488.909 635.364C488.909 632.848 489.227 630.701 489.864 628.92C490.508 627.133 491.432 625.769 492.636 624.83C493.848 623.883 495.303 623.409 497 623.409C498.697 623.409 500.148 623.883 501.352 624.83C502.564 625.769 503.489 627.133 504.125 628.92C504.769 630.701 505.091 632.848 505.091 635.364C505.091 637.894 504.773 640.053 504.136 641.841C503.5 643.621 502.58 644.981 501.375 645.92C500.17 646.852 498.712 647.318 497 647.318ZM497 644.818C498.697 644.818 500.015 644 500.955 642.364C501.894 640.727 502.364 638.394 502.364 635.364C502.364 633.348 502.148 631.633 501.716 630.216C501.292 628.799 500.678 627.72 499.875 626.977C499.08 626.235 498.121 625.864 497 625.864C495.318 625.864 494.004 626.693 493.057 628.352C492.11 630.004 491.636 632.341 491.636 635.364C491.636 637.379 491.848 639.091 492.273 640.5C492.697 641.909 493.307 642.981 494.102 643.716C494.905 644.451 495.871 644.818 497 644.818ZM510.597 647.182C510.036 647.182 509.555 646.981 509.153 646.58C508.752 646.178 508.551 645.697 508.551 645.136C508.551 644.576 508.752 644.095 509.153 643.693C509.555 643.292 510.036 643.091 510.597 643.091C511.157 643.091 511.638 643.292 512.04 643.693C512.441 644.095 512.642 644.576 512.642 645.136C512.642 645.508 512.547 645.848 512.358 646.159C512.176 646.47 511.93 646.72 511.619 646.909C511.316 647.091 510.975 647.182 510.597 647.182ZM524.324 647.318C523.369 647.303 522.415 647.121 521.46 646.773C520.506 646.424 519.634 645.837 518.847 645.011C518.059 644.178 517.426 643.053 516.949 641.636C516.472 640.212 516.233 638.424 516.233 636.273C516.233 634.212 516.426 632.386 516.812 630.795C517.199 629.197 517.759 627.852 518.494 626.761C519.229 625.663 520.116 624.83 521.153 624.261C522.199 623.693 523.377 623.409 524.688 623.409C525.991 623.409 527.15 623.67 528.165 624.193C529.188 624.708 530.021 625.428 530.665 626.352C531.309 627.277 531.725 628.341 531.915 629.545H529.142C528.884 628.5 528.384 627.633 527.642 626.943C526.9 626.254 525.915 625.909 524.688 625.909C522.884 625.909 521.464 626.693 520.426 628.261C519.396 629.83 518.877 632.03 518.869 634.864H519.051C519.475 634.22 519.979 633.67 520.562 633.216C521.153 632.754 521.805 632.398 522.517 632.148C523.229 631.898 523.983 631.773 524.778 631.773C526.112 631.773 527.331 632.106 528.438 632.773C529.544 633.432 530.43 634.345 531.097 635.511C531.763 636.67 532.097 638 532.097 639.5C532.097 640.939 531.775 642.258 531.131 643.455C530.487 644.644 529.581 645.591 528.415 646.295C527.256 646.992 525.892 647.333 524.324 647.318ZM524.324 644.818C525.278 644.818 526.134 644.58 526.892 644.102C527.657 643.625 528.259 642.985 528.699 642.182C529.146 641.379 529.369 640.485 529.369 639.5C529.369 638.538 529.153 637.663 528.722 636.875C528.297 636.08 527.71 635.447 526.96 634.977C526.218 634.508 525.369 634.273 524.415 634.273C523.695 634.273 523.025 634.417 522.403 634.705C521.782 634.985 521.237 635.371 520.767 635.864C520.305 636.356 519.941 636.92 519.676 637.557C519.411 638.186 519.278 638.848 519.278 639.545C519.278 640.47 519.494 641.333 519.926 642.136C520.366 642.939 520.964 643.587 521.722 644.08C522.487 644.572 523.354 644.818 524.324 644.818ZM544.293 647.318C543.338 647.303 542.384 647.121 541.429 646.773C540.474 646.424 539.603 645.837 538.815 645.011C538.027 644.178 537.395 643.053 536.918 641.636C536.44 640.212 536.202 638.424 536.202 636.273C536.202 634.212 536.395 632.386 536.781 630.795C537.168 629.197 537.728 627.852 538.463 626.761C539.198 625.663 540.084 624.83 541.122 624.261C542.168 623.693 543.346 623.409 544.656 623.409C545.959 623.409 547.118 623.67 548.134 624.193C549.156 624.708 549.99 625.428 550.634 626.352C551.277 627.277 551.694 628.341 551.884 629.545H549.111C548.853 628.5 548.353 627.633 547.611 626.943C546.868 626.254 545.884 625.909 544.656 625.909C542.853 625.909 541.433 626.693 540.395 628.261C539.365 629.83 538.846 632.03 538.838 634.864H539.02C539.444 634.22 539.948 633.67 540.531 633.216C541.122 632.754 541.774 632.398 542.486 632.148C543.198 631.898 543.952 631.773 544.747 631.773C546.08 631.773 547.3 632.106 548.406 632.773C549.512 633.432 550.399 634.345 551.065 635.511C551.732 636.67 552.065 638 552.065 639.5C552.065 640.939 551.743 642.258 551.099 643.455C550.455 644.644 549.55 645.591 548.384 646.295C547.224 646.992 545.861 647.333 544.293 647.318ZM544.293 644.818C545.247 644.818 546.103 644.58 546.861 644.102C547.626 643.625 548.228 642.985 548.668 642.182C549.115 641.379 549.338 640.485 549.338 639.5C549.338 638.538 549.122 637.663 548.69 636.875C548.266 636.08 547.679 635.447 546.929 634.977C546.187 634.508 545.338 634.273 544.384 634.273C543.664 634.273 542.993 634.417 542.372 634.705C541.751 634.985 541.205 635.371 540.736 635.864C540.274 636.356 539.91 636.92 539.645 637.557C539.38 638.186 539.247 638.848 539.247 639.545C539.247 640.47 539.463 641.333 539.895 642.136C540.334 642.939 540.933 643.587 541.69 644.08C542.455 644.572 543.323 644.818 544.293 644.818ZM577.398 642.636V641.409C577.398 640.561 577.572 639.784 577.92 639.08C578.277 638.367 578.792 637.799 579.466 637.375C580.148 636.943 580.973 636.727 581.943 636.727C582.928 636.727 583.754 636.943 584.42 637.375C585.087 637.799 585.591 638.367 585.932 639.08C586.273 639.784 586.443 640.561 586.443 641.409V642.636C586.443 643.485 586.269 644.265 585.92 644.977C585.58 645.682 585.072 646.25 584.398 646.682C583.731 647.106 582.913 647.318 581.943 647.318C580.958 647.318 580.129 647.106 579.455 646.682C578.78 646.25 578.269 645.682 577.92 644.977C577.572 644.265 577.398 643.485 577.398 642.636ZM579.716 641.409V642.636C579.716 643.341 579.883 643.973 580.216 644.534C580.549 645.087 581.125 645.364 581.943 645.364C582.739 645.364 583.299 645.087 583.625 644.534C583.958 643.973 584.125 643.341 584.125 642.636V641.409C584.125 640.705 583.966 640.076 583.648 639.523C583.33 638.962 582.761 638.682 581.943 638.682C581.148 638.682 580.576 638.962 580.227 639.523C579.886 640.076 579.716 640.705 579.716 641.409ZM565.807 629.318V628.091C565.807 627.242 565.981 626.466 566.33 625.761C566.686 625.049 567.201 624.481 567.875 624.057C568.557 623.625 569.383 623.409 570.352 623.409C571.337 623.409 572.163 623.625 572.83 624.057C573.496 624.481 574 625.049 574.341 625.761C574.682 626.466 574.852 627.242 574.852 628.091V629.318C574.852 630.167 574.678 630.947 574.33 631.659C573.989 632.364 573.481 632.932 572.807 633.364C572.14 633.788 571.322 634 570.352 634C569.367 634 568.538 633.788 567.864 633.364C567.189 632.932 566.678 632.364 566.33 631.659C565.981 630.947 565.807 630.167 565.807 629.318ZM568.125 628.091V629.318C568.125 630.023 568.292 630.655 568.625 631.216C568.958 631.769 569.534 632.045 570.352 632.045C571.148 632.045 571.708 631.769 572.034 631.216C572.367 630.655 572.534 630.023 572.534 629.318V628.091C572.534 627.386 572.375 626.758 572.057 626.205C571.739 625.644 571.17 625.364 570.352 625.364C569.557 625.364 568.985 625.644 568.636 626.205C568.295 626.758 568.125 627.386 568.125 628.091ZM566.67 647L582.67 623.727H585.261L569.261 647H566.67Z" fill="#040404"/>
<path d="M668.682 622.636L661.182 650.5H658.727L666.227 622.636H668.682ZM688.997 623.727V647H686.179V626.682H686.043L680.361 630.455V627.591L686.179 623.727H688.997ZM703.281 647.318C701.569 647.318 700.111 646.852 698.906 645.92C697.702 644.981 696.781 643.621 696.145 641.841C695.509 640.053 695.19 637.894 695.19 635.364C695.19 632.848 695.509 630.701 696.145 628.92C696.789 627.133 697.713 625.769 698.918 624.83C700.13 623.883 701.584 623.409 703.281 623.409C704.978 623.409 706.429 623.883 707.634 624.83C708.846 625.769 709.77 627.133 710.406 628.92C711.05 630.701 711.372 632.848 711.372 635.364C711.372 637.894 711.054 640.053 710.418 641.841C709.781 643.621 708.861 644.981 707.656 645.92C706.452 646.852 704.993 647.318 703.281 647.318ZM703.281 644.818C704.978 644.818 706.296 644 707.236 642.364C708.175 640.727 708.645 638.394 708.645 635.364C708.645 633.348 708.429 631.633 707.997 630.216C707.573 628.799 706.959 627.72 706.156 626.977C705.361 626.235 704.402 625.864 703.281 625.864C701.599 625.864 700.285 626.693 699.338 628.352C698.391 630.004 697.918 632.341 697.918 635.364C697.918 637.379 698.13 639.091 698.554 640.5C698.978 641.909 699.588 642.981 700.384 643.716C701.187 644.451 702.152 644.818 703.281 644.818ZM736.554 642.636V641.409C736.554 640.561 736.728 639.784 737.077 639.08C737.433 638.367 737.948 637.799 738.622 637.375C739.304 636.943 740.13 636.727 741.099 636.727C742.084 636.727 742.91 636.943 743.577 637.375C744.243 637.799 744.747 638.367 745.088 639.08C745.429 639.784 745.599 640.561 745.599 641.409V642.636C745.599 643.485 745.425 644.265 745.077 644.977C744.736 645.682 744.228 646.25 743.554 646.682C742.887 647.106 742.069 647.318 741.099 647.318C740.115 647.318 739.285 647.106 738.611 646.682C737.937 646.25 737.425 645.682 737.077 644.977C736.728 644.265 736.554 643.485 736.554 642.636ZM738.872 641.409V642.636C738.872 643.341 739.039 643.973 739.372 644.534C739.705 645.087 740.281 645.364 741.099 645.364C741.895 645.364 742.455 645.087 742.781 644.534C743.115 643.973 743.281 643.341 743.281 642.636V641.409C743.281 640.705 743.122 640.076 742.804 639.523C742.486 638.962 741.918 638.682 741.099 638.682C740.304 638.682 739.732 638.962 739.384 639.523C739.043 640.076 738.872 640.705 738.872 641.409ZM724.963 629.318V628.091C724.963 627.242 725.137 626.466 725.486 625.761C725.842 625.049 726.357 624.481 727.031 624.057C727.713 623.625 728.539 623.409 729.509 623.409C730.493 623.409 731.319 623.625 731.986 624.057C732.652 624.481 733.156 625.049 733.497 625.761C733.838 626.466 734.009 627.242 734.009 628.091V629.318C734.009 630.167 733.834 630.947 733.486 631.659C733.145 632.364 732.637 632.932 731.963 633.364C731.296 633.788 730.478 634 729.509 634C728.524 634 727.694 633.788 727.02 633.364C726.346 632.932 725.834 632.364 725.486 631.659C725.137 630.947 724.963 630.167 724.963 629.318ZM727.281 628.091V629.318C727.281 630.023 727.448 630.655 727.781 631.216C728.115 631.769 728.69 632.045 729.509 632.045C730.304 632.045 730.865 631.769 731.19 631.216C731.524 630.655 731.69 630.023 731.69 629.318V628.091C731.69 627.386 731.531 626.758 731.213 626.205C730.895 625.644 730.327 625.364 729.509 625.364C728.713 625.364 728.141 625.644 727.793 626.205C727.452 626.758 727.281 627.386 727.281 628.091ZM725.827 647L741.827 623.727H744.418L728.418 647H725.827Z" fill="#040404"/>
<path d="M16.5455 529.545C16.4091 528.394 15.8561 527.5 14.8864 526.864C13.9167 526.227 12.7273 525.909 11.3182 525.909C10.2879 525.909 9.38636 526.076 8.61364 526.409C7.84849 526.742 7.25 527.201 6.81818 527.784C6.39394 528.367 6.18182 529.03 6.18182 529.773C6.18182 530.394 6.32955 530.928 6.625 531.375C6.92803 531.814 7.31439 532.182 7.78409 532.477C8.25379 532.765 8.74621 533.004 9.26136 533.193C9.77652 533.375 10.25 533.523 10.6818 533.636L13.0455 534.273C13.6515 534.432 14.3258 534.652 15.0682 534.932C15.8182 535.212 16.5341 535.595 17.2159 536.08C17.9053 536.557 18.4735 537.17 18.9205 537.92C19.3674 538.67 19.5909 539.591 19.5909 540.682C19.5909 541.939 19.2614 543.076 18.6023 544.091C17.9508 545.106 16.9962 545.913 15.7386 546.511C14.4886 547.11 12.9697 547.409 11.1818 547.409C9.51515 547.409 8.07197 547.14 6.85227 546.602C5.64015 546.064 4.68561 545.314 3.98864 544.352C3.29924 543.39 2.90909 542.273 2.81818 541H5.72727C5.80303 541.879 6.09848 542.606 6.61364 543.182C7.13636 543.75 7.79545 544.174 8.59091 544.455C9.39394 544.727 10.2576 544.864 11.1818 544.864C12.2576 544.864 13.2235 544.689 14.0795 544.341C14.9356 543.985 15.6136 543.492 16.1136 542.864C16.6136 542.227 16.8636 541.485 16.8636 540.636C16.8636 539.864 16.6477 539.235 16.2159 538.75C15.7841 538.265 15.2159 537.871 14.5114 537.568C13.8068 537.265 13.0455 537 12.2273 536.773L9.36364 535.955C7.54545 535.432 6.10606 534.686 5.04545 533.716C3.98485 532.746 3.45455 531.477 3.45455 529.909C3.45455 528.606 3.80682 527.47 4.51136 526.5C5.22348 525.523 6.17803 524.765 7.375 524.227C8.57955 523.682 9.92424 523.409 11.4091 523.409C12.9091 523.409 14.2424 523.678 15.4091 524.216C16.5758 524.746 17.5 525.473 18.1818 526.398C18.8712 527.322 19.2348 528.371 19.2727 529.545H16.5455ZM24.2244 547V523.727H38.2699V526.227H27.0426V534.091H37.5426V536.591H27.0426V544.5H38.4517V547H24.2244ZM61.804 523.727V547H59.0767L46.3949 528.727H46.1676V547H43.3494V523.727H46.0767L58.804 542.045H59.0312V523.727H61.804ZM74.625 547H67.4432V523.727H74.9432C77.2008 523.727 79.1326 524.193 80.7386 525.125C82.3447 526.049 83.5758 527.379 84.4318 529.114C85.2879 530.841 85.7159 532.909 85.7159 535.318C85.7159 537.742 85.2841 539.83 84.4205 541.58C83.5568 543.322 82.2992 544.663 80.6477 545.602C78.9962 546.534 76.9886 547 74.625 547ZM70.2614 544.5H74.4432C76.3674 544.5 77.9621 544.129 79.2273 543.386C80.4924 542.644 81.4356 541.587 82.0568 540.216C82.678 538.845 82.9886 537.212 82.9886 535.318C82.9886 533.439 82.6818 531.822 82.0682 530.466C81.4545 529.102 80.5379 528.057 79.3182 527.33C78.0985 526.595 76.5795 526.227 74.7614 526.227H70.2614V544.5ZM100.398 547H97.4432L105.989 523.727H108.898L117.443 547H114.489L107.534 527.409H107.352L100.398 547ZM101.489 537.909H113.398V540.409H101.489V537.909ZM121.068 523.727H124.432L132.341 543.045H132.614L140.523 523.727H143.886V547H141.25V529.318H141.023L133.75 547H131.205L123.932 529.318H123.705V547H121.068V523.727ZM169.173 535.364C169.173 537.818 168.73 539.939 167.844 541.727C166.957 543.515 165.741 544.894 164.196 545.864C162.651 546.833 160.885 547.318 158.901 547.318C156.916 547.318 155.151 546.833 153.605 545.864C152.06 544.894 150.844 543.515 149.957 541.727C149.071 539.939 148.628 537.818 148.628 535.364C148.628 532.909 149.071 530.788 149.957 529C150.844 527.212 152.06 525.833 153.605 524.864C155.151 523.894 156.916 523.409 158.901 523.409C160.885 523.409 162.651 523.894 164.196 524.864C165.741 525.833 166.957 527.212 167.844 529C168.73 530.788 169.173 532.909 169.173 535.364ZM166.446 535.364C166.446 533.348 166.109 531.648 165.435 530.261C164.768 528.875 163.863 527.826 162.719 527.114C161.582 526.402 160.31 526.045 158.901 526.045C157.491 526.045 156.215 526.402 155.071 527.114C153.935 527.826 153.029 528.875 152.355 530.261C151.688 531.648 151.355 533.348 151.355 535.364C151.355 537.379 151.688 539.08 152.355 540.466C153.029 541.852 153.935 542.902 155.071 543.614C156.215 544.326 157.491 544.682 158.901 544.682C160.31 544.682 161.582 544.326 162.719 543.614C163.863 542.902 164.768 541.852 165.435 540.466C166.109 539.08 166.446 537.379 166.446 535.364ZM189.185 523.727H192.003V539.136C192.003 540.727 191.628 542.148 190.878 543.398C190.135 544.64 189.086 545.621 187.73 546.341C186.374 547.053 184.783 547.409 182.957 547.409C181.132 547.409 179.541 547.053 178.185 546.341C176.829 545.621 175.776 544.64 175.026 543.398C174.283 542.148 173.912 540.727 173.912 539.136V523.727H176.73V538.909C176.73 540.045 176.98 541.057 177.48 541.943C177.98 542.822 178.692 543.515 179.616 544.023C180.548 544.523 181.662 544.773 182.957 544.773C184.253 544.773 185.366 544.523 186.298 544.023C187.23 543.515 187.942 542.822 188.435 541.943C188.935 541.057 189.185 540.045 189.185 538.909V523.727ZM216.085 523.727V547H213.358L200.676 528.727H200.449V547H197.631V523.727H200.358L213.085 542.045H213.312V523.727H216.085ZM220.452 526.227V523.727H237.906V526.227H230.588V547H227.77V526.227H220.452ZM242.565 544.023C242.005 544.023 241.524 543.822 241.122 543.42C240.721 543.019 240.52 542.538 240.52 541.977C240.52 541.417 240.721 540.936 241.122 540.534C241.524 540.133 242.005 539.932 242.565 539.932C243.126 539.932 243.607 540.133 244.009 540.534C244.41 540.936 244.611 541.417 244.611 541.977C244.611 542.348 244.516 542.689 244.327 543C244.145 543.311 243.899 543.561 243.588 543.75C243.285 543.932 242.944 544.023 242.565 544.023ZM242.565 532.25C242.005 532.25 241.524 532.049 241.122 531.648C240.721 531.246 240.52 530.765 240.52 530.205C240.52 529.644 240.721 529.163 241.122 528.761C241.524 528.36 242.005 528.159 242.565 528.159C243.126 528.159 243.607 528.36 244.009 528.761C244.41 529.163 244.611 529.644 244.611 530.205C244.611 530.576 244.516 530.917 244.327 531.227C244.145 531.538 243.899 531.788 243.588 531.977C243.285 532.159 242.944 532.25 242.565 532.25Z" fill="#686868"/>
<path d="M16.5455 632.545C16.4091 631.394 15.8561 630.5 14.8864 629.864C13.9167 629.227 12.7273 628.909 11.3182 628.909C10.2879 628.909 9.38636 629.076 8.61364 629.409C7.84849 629.742 7.25 630.201 6.81818 630.784C6.39394 631.367 6.18182 632.03 6.18182 632.773C6.18182 633.394 6.32955 633.928 6.625 634.375C6.92803 634.814 7.31439 635.182 7.78409 635.477C8.25379 635.765 8.74621 636.004 9.26136 636.193C9.77652 636.375 10.25 636.523 10.6818 636.636L13.0455 637.273C13.6515 637.432 14.3258 637.652 15.0682 637.932C15.8182 638.212 16.5341 638.595 17.2159 639.08C17.9053 639.557 18.4735 640.17 18.9205 640.92C19.3674 641.67 19.5909 642.591 19.5909 643.682C19.5909 644.939 19.2614 646.076 18.6023 647.091C17.9508 648.106 16.9962 648.913 15.7386 649.511C14.4886 650.11 12.9697 650.409 11.1818 650.409C9.51515 650.409 8.07197 650.14 6.85227 649.602C5.64015 649.064 4.68561 648.314 3.98864 647.352C3.29924 646.39 2.90909 645.273 2.81818 644H5.72727C5.80303 644.879 6.09848 645.606 6.61364 646.182C7.13636 646.75 7.79545 647.174 8.59091 647.455C9.39394 647.727 10.2576 647.864 11.1818 647.864C12.2576 647.864 13.2235 647.689 14.0795 647.341C14.9356 646.985 15.6136 646.492 16.1136 645.864C16.6136 645.227 16.8636 644.485 16.8636 643.636C16.8636 642.864 16.6477 642.235 16.2159 641.75C15.7841 641.265 15.2159 640.871 14.5114 640.568C13.8068 640.265 13.0455 640 12.2273 639.773L9.36364 638.955C7.54545 638.432 6.10606 637.686 5.04545 636.716C3.98485 635.746 3.45455 634.477 3.45455 632.909C3.45455 631.606 3.80682 630.47 4.51136 629.5C5.22348 628.523 6.17803 627.765 7.375 627.227C8.57955 626.682 9.92424 626.409 11.4091 626.409C12.9091 626.409 14.2424 626.678 15.4091 627.216C16.5758 627.746 17.5 628.473 18.1818 629.398C18.8712 630.322 19.2348 631.371 19.2727 632.545H16.5455ZM24.2244 650V626.727H38.2699V629.227H27.0426V637.091H37.5426V639.591H27.0426V647.5H38.4517V650H24.2244ZM61.804 626.727V650H59.0767L46.3949 631.727H46.1676V650H43.3494V626.727H46.0767L58.804 645.045H59.0312V626.727H61.804ZM74.625 650H67.4432V626.727H74.9432C77.2008 626.727 79.1326 627.193 80.7386 628.125C82.3447 629.049 83.5758 630.379 84.4318 632.114C85.2879 633.841 85.7159 635.909 85.7159 638.318C85.7159 640.742 85.2841 642.83 84.4205 644.58C83.5568 646.322 82.2992 647.663 80.6477 648.602C78.9962 649.534 76.9886 650 74.625 650ZM70.2614 647.5H74.4432C76.3674 647.5 77.9621 647.129 79.2273 646.386C80.4924 645.644 81.4356 644.587 82.0568 643.216C82.678 641.845 82.9886 640.212 82.9886 638.318C82.9886 636.439 82.6818 634.822 82.0682 633.466C81.4545 632.102 80.5379 631.057 79.3182 630.33C78.0985 629.595 76.5795 629.227 74.7614 629.227H70.2614V647.5ZM115.352 634C115.102 633.235 114.773 632.549 114.364 631.943C113.962 631.33 113.481 630.807 112.92 630.375C112.367 629.943 111.739 629.614 111.034 629.386C110.33 629.159 109.557 629.045 108.716 629.045C107.337 629.045 106.083 629.402 104.955 630.114C103.826 630.826 102.928 631.875 102.261 633.261C101.595 634.648 101.261 636.348 101.261 638.364C101.261 640.379 101.598 642.08 102.273 643.466C102.947 644.852 103.86 645.902 105.011 646.614C106.163 647.326 107.458 647.682 108.898 647.682C110.231 647.682 111.405 647.398 112.42 646.83C113.443 646.254 114.239 645.443 114.807 644.398C115.383 643.345 115.67 642.106 115.67 640.682L116.534 640.864H109.534V638.364H118.398V640.864C118.398 642.78 117.989 644.447 117.17 645.864C116.36 647.28 115.239 648.379 113.807 649.159C112.383 649.932 110.746 650.318 108.898 650.318C106.837 650.318 105.027 649.833 103.466 648.864C101.913 647.894 100.701 646.515 99.8295 644.727C98.9659 642.939 98.5341 640.818 98.5341 638.364C98.5341 636.523 98.7803 634.867 99.2727 633.398C99.7727 631.92 100.477 630.663 101.386 629.625C102.295 628.587 103.371 627.792 104.614 627.239C105.856 626.686 107.223 626.409 108.716 626.409C109.943 626.409 111.087 626.595 112.148 626.966C113.216 627.33 114.167 627.848 115 628.523C115.841 629.189 116.542 629.989 117.102 630.92C117.663 631.845 118.049 632.871 118.261 634H115.352ZM123.224 650V626.727H126.043V647.5H136.861V650H123.224ZM159.955 638.364C159.955 640.818 159.511 642.939 158.625 644.727C157.739 646.515 156.523 647.894 154.977 648.864C153.432 649.833 151.667 650.318 149.682 650.318C147.697 650.318 145.932 649.833 144.386 648.864C142.841 647.894 141.625 646.515 140.739 644.727C139.852 642.939 139.409 640.818 139.409 638.364C139.409 635.909 139.852 633.788 140.739 632C141.625 630.212 142.841 628.833 144.386 627.864C145.932 626.894 147.697 626.409 149.682 626.409C151.667 626.409 153.432 626.894 154.977 627.864C156.523 628.833 157.739 630.212 158.625 632C159.511 633.788 159.955 635.909 159.955 638.364ZM157.227 638.364C157.227 636.348 156.89 634.648 156.216 633.261C155.549 631.875 154.644 630.826 153.5 630.114C152.364 629.402 151.091 629.045 149.682 629.045C148.273 629.045 146.996 629.402 145.852 630.114C144.716 630.826 143.811 631.875 143.136 633.261C142.47 634.648 142.136 636.348 142.136 638.364C142.136 640.379 142.47 642.08 143.136 643.466C143.811 644.852 144.716 645.902 145.852 646.614C146.996 647.326 148.273 647.682 149.682 647.682C151.091 647.682 152.364 647.326 153.5 646.614C154.644 645.902 155.549 644.852 156.216 643.466C156.89 642.08 157.227 640.379 157.227 638.364ZM164.693 650V626.727H172.83C174.451 626.727 175.788 627.008 176.841 627.568C177.894 628.121 178.678 628.867 179.193 629.807C179.708 630.739 179.966 631.773 179.966 632.909C179.966 633.909 179.788 634.735 179.432 635.386C179.083 636.038 178.621 636.553 178.045 636.932C177.477 637.311 176.86 637.591 176.193 637.773V638C176.905 638.045 177.621 638.295 178.341 638.75C179.061 639.205 179.663 639.856 180.148 640.705C180.633 641.553 180.875 642.591 180.875 643.818C180.875 644.985 180.61 646.034 180.08 646.966C179.549 647.898 178.712 648.636 177.568 649.182C176.424 649.727 174.936 650 173.102 650H164.693ZM167.511 647.5H173.102C174.943 647.5 176.25 647.144 177.023 646.432C177.803 645.712 178.193 644.841 178.193 643.818C178.193 643.03 177.992 642.303 177.591 641.636C177.189 640.962 176.617 640.424 175.875 640.023C175.133 639.614 174.254 639.409 173.239 639.409H167.511V647.5ZM167.511 636.955H172.739C173.587 636.955 174.352 636.788 175.034 636.455C175.723 636.121 176.269 635.652 176.67 635.045C177.08 634.439 177.284 633.727 177.284 632.909C177.284 631.886 176.928 631.019 176.216 630.307C175.504 629.587 174.375 629.227 172.83 629.227H167.511V636.955ZM186.46 650H183.506L192.051 626.727H194.96L203.506 650H200.551L193.597 630.409H193.415L186.46 650ZM187.551 640.909H199.46V643.409H187.551V640.909ZM207.131 650V626.727H209.949V647.5H220.767V650H207.131ZM246.858 632.545C246.722 631.394 246.169 630.5 245.199 629.864C244.229 629.227 243.04 628.909 241.631 628.909C240.6 628.909 239.699 629.076 238.926 629.409C238.161 629.742 237.563 630.201 237.131 630.784C236.706 631.367 236.494 632.03 236.494 632.773C236.494 633.394 236.642 633.928 236.938 634.375C237.241 634.814 237.627 635.182 238.097 635.477C238.566 635.765 239.059 636.004 239.574 636.193C240.089 636.375 240.562 636.523 240.994 636.636L243.358 637.273C243.964 637.432 244.638 637.652 245.381 637.932C246.131 638.212 246.847 638.595 247.528 639.08C248.218 639.557 248.786 640.17 249.233 640.92C249.68 641.67 249.903 642.591 249.903 643.682C249.903 644.939 249.574 646.076 248.915 647.091C248.263 648.106 247.309 648.913 246.051 649.511C244.801 650.11 243.282 650.409 241.494 650.409C239.828 650.409 238.384 650.14 237.165 649.602C235.953 649.064 234.998 648.314 234.301 647.352C233.612 646.39 233.222 645.273 233.131 644H236.04C236.116 644.879 236.411 645.606 236.926 646.182C237.449 646.75 238.108 647.174 238.903 647.455C239.706 647.727 240.57 647.864 241.494 647.864C242.57 647.864 243.536 647.689 244.392 647.341C245.248 646.985 245.926 646.492 246.426 645.864C246.926 645.227 247.176 644.485 247.176 643.636C247.176 642.864 246.96 642.235 246.528 641.75C246.097 641.265 245.528 640.871 244.824 640.568C244.119 640.265 243.358 640 242.54 639.773L239.676 638.955C237.858 638.432 236.419 637.686 235.358 636.716C234.297 635.746 233.767 634.477 233.767 632.909C233.767 631.606 234.119 630.47 234.824 629.5C235.536 628.523 236.491 627.765 237.688 627.227C238.892 626.682 240.237 626.409 241.722 626.409C243.222 626.409 244.555 626.678 245.722 627.216C246.888 627.746 247.813 628.473 248.494 629.398C249.184 630.322 249.547 631.371 249.585 632.545H246.858ZM254.537 650V626.727H257.355V637.091H269.764V626.727H272.582V650H269.764V639.591H257.355V650H254.537ZM279.179 650H276.224L284.77 626.727H287.679L296.224 650H293.27L286.315 630.409H286.134L279.179 650ZM280.27 640.909H292.179V643.409H280.27V640.909ZM299.849 650V626.727H307.713C309.531 626.727 311.024 627.038 312.19 627.659C313.357 628.273 314.221 629.117 314.781 630.193C315.342 631.269 315.622 632.492 315.622 633.864C315.622 635.235 315.342 636.451 314.781 637.511C314.221 638.572 313.361 639.405 312.202 640.011C311.043 640.61 309.562 640.909 307.759 640.909H301.395V638.364H307.668C308.91 638.364 309.91 638.182 310.668 637.818C311.433 637.455 311.986 636.939 312.327 636.273C312.675 635.598 312.849 634.795 312.849 633.864C312.849 632.932 312.675 632.117 312.327 631.42C311.978 630.723 311.421 630.186 310.656 629.807C309.891 629.42 308.88 629.227 307.622 629.227H302.668V650H299.849ZM310.804 639.545L316.531 650H313.259L307.622 639.545H310.804ZM320.318 650V626.727H334.364V629.227H323.136V637.091H333.636V639.591H323.136V647.5H334.545V650H320.318ZM341.034 647.023C340.473 647.023 339.992 646.822 339.591 646.42C339.189 646.019 338.989 645.538 338.989 644.977C338.989 644.417 339.189 643.936 339.591 643.534C339.992 643.133 340.473 642.932 341.034 642.932C341.595 642.932 342.076 643.133 342.477 643.534C342.879 643.936 343.08 644.417 343.08 644.977C343.08 645.348 342.985 645.689 342.795 646C342.614 646.311 342.367 646.561 342.057 646.75C341.754 646.932 341.413 647.023 341.034 647.023ZM341.034 635.25C340.473 635.25 339.992 635.049 339.591 634.648C339.189 634.246 338.989 633.765 338.989 633.205C338.989 632.644 339.189 632.163 339.591 631.761C339.992 631.36 340.473 631.159 341.034 631.159C341.595 631.159 342.076 631.36 342.477 631.761C342.879 632.163 343.08 632.644 343.08 633.205C343.08 633.576 342.985 633.917 342.795 634.227C342.614 634.538 342.367 634.788 342.057 634.977C341.754 635.159 341.413 635.25 341.034 635.25Z" fill="#686868"/>
<path d="M497.545 236.227V233.727H515V236.227H507.682V257H504.864V236.227H497.545ZM523.545 257.364C521.97 257.364 520.587 256.989 519.398 256.239C518.216 255.489 517.292 254.439 516.625 253.091C515.966 251.742 515.636 250.167 515.636 248.364C515.636 246.545 515.966 244.958 516.625 243.602C517.292 242.246 518.216 241.193 519.398 240.443C520.587 239.693 521.97 239.318 523.545 239.318C525.121 239.318 526.5 239.693 527.682 240.443C528.871 241.193 529.795 242.246 530.455 243.602C531.121 244.958 531.455 246.545 531.455 248.364C531.455 250.167 531.121 251.742 530.455 253.091C529.795 254.439 528.871 255.489 527.682 256.239C526.5 256.989 525.121 257.364 523.545 257.364ZM523.545 254.955C524.742 254.955 525.727 254.648 526.5 254.034C527.273 253.42 527.845 252.614 528.216 251.614C528.587 250.614 528.773 249.53 528.773 248.364C528.773 247.197 528.587 246.11 528.216 245.102C527.845 244.095 527.273 243.28 526.5 242.659C525.727 242.038 524.742 241.727 523.545 241.727C522.348 241.727 521.364 242.038 520.591 242.659C519.818 243.28 519.246 244.095 518.875 245.102C518.504 246.11 518.318 247.197 518.318 248.364C518.318 249.53 518.504 250.614 518.875 251.614C519.246 252.614 519.818 253.42 520.591 254.034C521.364 254.648 522.348 254.955 523.545 254.955ZM538.048 250.636L538.003 247.318H538.548L546.185 239.545H549.503L541.366 247.773H541.139L538.048 250.636ZM535.548 257V233.727H538.23V257H535.548ZM546.639 257L539.821 248.364L541.73 246.5L550.048 257H546.639ZM559.554 257.364C557.872 257.364 556.421 256.992 555.202 256.25C553.99 255.5 553.054 254.455 552.395 253.114C551.743 251.765 551.418 250.197 551.418 248.409C551.418 246.621 551.743 245.045 552.395 243.682C553.054 242.311 553.971 241.242 555.145 240.477C556.327 239.705 557.705 239.318 559.281 239.318C560.19 239.318 561.088 239.47 561.974 239.773C562.861 240.076 563.668 240.568 564.395 241.25C565.122 241.924 565.702 242.818 566.134 243.932C566.565 245.045 566.781 246.417 566.781 248.045V249.182H553.327V246.864H564.054C564.054 245.879 563.857 245 563.463 244.227C563.077 243.455 562.524 242.845 561.804 242.398C561.092 241.951 560.251 241.727 559.281 241.727C558.213 241.727 557.289 241.992 556.509 242.523C555.736 243.045 555.141 243.727 554.724 244.568C554.308 245.409 554.099 246.311 554.099 247.273V248.818C554.099 250.136 554.327 251.254 554.781 252.17C555.243 253.08 555.884 253.773 556.702 254.25C557.52 254.72 558.471 254.955 559.554 254.955C560.259 254.955 560.895 254.856 561.463 254.659C562.039 254.455 562.535 254.152 562.952 253.75C563.368 253.341 563.69 252.833 563.918 252.227L566.509 252.955C566.236 253.833 565.777 254.606 565.134 255.273C564.49 255.932 563.694 256.447 562.747 256.818C561.8 257.182 560.736 257.364 559.554 257.364ZM573.543 246.5V257H570.861V239.545H573.452V242.273H573.679C574.088 241.386 574.709 240.674 575.543 240.136C576.376 239.591 577.452 239.318 578.77 239.318C579.952 239.318 580.986 239.561 581.872 240.045C582.759 240.523 583.448 241.25 583.94 242.227C584.433 243.197 584.679 244.424 584.679 245.909V257H581.997V246.091C581.997 244.72 581.641 243.652 580.929 242.886C580.217 242.114 579.24 241.727 577.997 241.727C577.141 241.727 576.376 241.913 575.702 242.284C575.035 242.655 574.509 243.197 574.122 243.909C573.736 244.621 573.543 245.485 573.543 246.5ZM599.898 257H596.943L605.489 233.727H608.398L616.943 257H613.989L607.034 237.409H606.852L599.898 257ZM600.989 247.909H612.898V250.409H600.989V247.909Z" fill="black"/>
<path d="M683 234H646L665.225 253L683 234Z" fill="#A7A7A7"/>
<rect x="455" y="311" width="256" height="84" fill="#F2F2F2"/>
<path d="M4.81818 366V342.727H12.6818C14.5 342.727 15.9924 343.038 17.1591 343.659C18.3258 344.273 19.1894 345.117 19.75 346.193C20.3106 347.269 20.5909 348.492 20.5909 349.864C20.5909 351.235 20.3106 352.451 19.75 353.511C19.1894 354.572 18.3295 355.405 17.1705 356.011C16.0114 356.61 14.5303 356.909 12.7273 356.909H6.36364V354.364H12.6364C13.8788 354.364 14.8788 354.182 15.6364 353.818C16.4015 353.455 16.9545 352.939 17.2955 352.273C17.6439 351.598 17.8182 350.795 17.8182 349.864C17.8182 348.932 17.6439 348.117 17.2955 347.42C16.947 346.723 16.3902 346.186 15.625 345.807C14.8598 345.42 13.8485 345.227 12.5909 345.227H7.63636V366H4.81818ZM15.7727 355.545L21.5 366H18.2273L12.5909 355.545H15.7727ZM25.2869 366V342.727H39.3324V345.227H28.1051V353.091H38.6051V355.591H28.1051V363.5H39.5142V366H25.2869ZM63.1392 350H60.321C60.1544 349.189 59.8627 348.477 59.446 347.864C59.0369 347.25 58.5369 346.735 57.946 346.318C57.3627 345.894 56.715 345.576 56.0028 345.364C55.2907 345.152 54.5483 345.045 53.7756 345.045C52.3665 345.045 51.09 345.402 49.946 346.114C48.8097 346.826 47.9044 347.875 47.2301 349.261C46.5634 350.648 46.2301 352.348 46.2301 354.364C46.2301 356.379 46.5634 358.08 47.2301 359.466C47.9044 360.852 48.8097 361.902 49.946 362.614C51.09 363.326 52.3665 363.682 53.7756 363.682C54.5483 363.682 55.2907 363.576 56.0028 363.364C56.715 363.152 57.3627 362.837 57.946 362.42C58.5369 361.996 59.0369 361.477 59.446 360.864C59.8627 360.242 60.1544 359.53 60.321 358.727H63.1392C62.9271 359.917 62.5407 360.981 61.9801 361.92C61.4195 362.86 60.7225 363.659 59.8892 364.318C59.0559 364.97 58.1203 365.466 57.0824 365.807C56.0521 366.148 54.9498 366.318 53.7756 366.318C51.7907 366.318 50.0256 365.833 48.4801 364.864C46.9347 363.894 45.7188 362.515 44.8324 360.727C43.946 358.939 43.5028 356.818 43.5028 354.364C43.5028 351.909 43.946 349.788 44.8324 348C45.7188 346.212 46.9347 344.833 48.4801 343.864C50.0256 342.894 51.7907 342.409 53.7756 342.409C54.9498 342.409 56.0521 342.58 57.0824 342.92C58.1203 343.261 59.0559 343.761 59.8892 344.42C60.7225 345.072 61.4195 345.867 61.9801 346.807C62.5407 347.739 62.9271 348.803 63.1392 350ZM67.6932 366V342.727H81.7386V345.227H70.5114V353.091H81.0114V355.591H70.5114V363.5H81.9205V366H67.6932ZM89.6364 342.727V366H86.8182V342.727H89.6364ZM96.2415 342.727L103.151 362.318H103.423L110.332 342.727H113.287L104.741 366H101.832L93.2869 342.727H96.2415ZM116.912 366V342.727H130.957V345.227H119.73V353.091H130.23V355.591H119.73V363.5H131.139V366H116.912ZM136.037 366V342.727H143.901C145.719 342.727 147.211 343.038 148.378 343.659C149.545 344.273 150.408 345.117 150.969 346.193C151.529 347.269 151.81 348.492 151.81 349.864C151.81 351.235 151.529 352.451 150.969 353.511C150.408 354.572 149.548 355.405 148.389 356.011C147.23 356.61 145.749 356.909 143.946 356.909H137.582V354.364H143.855C145.098 354.364 146.098 354.182 146.855 353.818C147.62 353.455 148.173 352.939 148.514 352.273C148.863 351.598 149.037 350.795 149.037 349.864C149.037 348.932 148.863 348.117 148.514 347.42C148.166 346.723 147.609 346.186 146.844 345.807C146.079 345.42 145.067 345.227 143.81 345.227H138.855V366H136.037ZM146.991 355.545L152.719 366H149.446L143.81 355.545H146.991ZM164.233 345.227V342.727H181.688V345.227H174.369V366H171.551V345.227H164.233ZM204.705 354.364C204.705 356.818 204.261 358.939 203.375 360.727C202.489 362.515 201.273 363.894 199.727 364.864C198.182 365.833 196.417 366.318 194.432 366.318C192.447 366.318 190.682 365.833 189.136 364.864C187.591 363.894 186.375 362.515 185.489 360.727C184.602 358.939 184.159 356.818 184.159 354.364C184.159 351.909 184.602 349.788 185.489 348C186.375 346.212 187.591 344.833 189.136 343.864C190.682 342.894 192.447 342.409 194.432 342.409C196.417 342.409 198.182 342.894 199.727 343.864C201.273 344.833 202.489 346.212 203.375 348C204.261 349.788 204.705 351.909 204.705 354.364ZM201.977 354.364C201.977 352.348 201.64 350.648 200.966 349.261C200.299 347.875 199.394 346.826 198.25 346.114C197.114 345.402 195.841 345.045 194.432 345.045C193.023 345.045 191.746 345.402 190.602 346.114C189.466 346.826 188.561 347.875 187.886 349.261C187.22 350.648 186.886 352.348 186.886 354.364C186.886 356.379 187.22 358.08 187.886 359.466C188.561 360.852 189.466 361.902 190.602 362.614C191.746 363.326 193.023 363.682 194.432 363.682C195.841 363.682 197.114 363.326 198.25 362.614C199.394 361.902 200.299 360.852 200.966 359.466C201.64 358.08 201.977 356.379 201.977 354.364ZM209.443 366V342.727H212.261V354.273H212.534L222.989 342.727H226.67L216.898 353.227L226.67 366H223.261L215.17 355.182L212.261 358.455V366H209.443ZM230.318 366V342.727H244.364V345.227H233.136V353.091H243.636V355.591H233.136V363.5H244.545V366H230.318ZM267.898 342.727V366H265.17L252.489 347.727H252.261V366H249.443V342.727H252.17L264.898 361.045H265.125V342.727H267.898ZM275.128 363.023C274.567 363.023 274.086 362.822 273.685 362.42C273.283 362.019 273.082 361.538 273.082 360.977C273.082 360.417 273.283 359.936 273.685 359.534C274.086 359.133 274.567 358.932 275.128 358.932C275.688 358.932 276.17 359.133 276.571 359.534C276.973 359.936 277.173 360.417 277.173 360.977C277.173 361.348 277.079 361.689 276.889 362C276.707 362.311 276.461 362.561 276.151 362.75C275.848 362.932 275.507 363.023 275.128 363.023ZM275.128 351.25C274.567 351.25 274.086 351.049 273.685 350.648C273.283 350.246 273.082 349.765 273.082 349.205C273.082 348.644 273.283 348.163 273.685 347.761C274.086 347.36 274.567 347.159 275.128 347.159C275.688 347.159 276.17 347.36 276.571 347.761C276.973 348.163 277.173 348.644 277.173 349.205C277.173 349.576 277.079 349.917 276.889 350.227C276.707 350.538 276.461 350.788 276.151 350.977C275.848 351.159 275.507 351.25 275.128 351.25Z" fill="#686868"/>
<path d="M498.545 345.227V342.727H516V345.227H508.682V366H505.864V345.227H498.545ZM524.545 366.364C522.97 366.364 521.587 365.989 520.398 365.239C519.216 364.489 518.292 363.439 517.625 362.091C516.966 360.742 516.636 359.167 516.636 357.364C516.636 355.545 516.966 353.958 517.625 352.602C518.292 351.246 519.216 350.193 520.398 349.443C521.587 348.693 522.97 348.318 524.545 348.318C526.121 348.318 527.5 348.693 528.682 349.443C529.871 350.193 530.795 351.246 531.455 352.602C532.121 353.958 532.455 355.545 532.455 357.364C532.455 359.167 532.121 360.742 531.455 362.091C530.795 363.439 529.871 364.489 528.682 365.239C527.5 365.989 526.121 366.364 524.545 366.364ZM524.545 363.955C525.742 363.955 526.727 363.648 527.5 363.034C528.273 362.42 528.845 361.614 529.216 360.614C529.587 359.614 529.773 358.53 529.773 357.364C529.773 356.197 529.587 355.11 529.216 354.102C528.845 353.095 528.273 352.28 527.5 351.659C526.727 351.038 525.742 350.727 524.545 350.727C523.348 350.727 522.364 351.038 521.591 351.659C520.818 352.28 520.246 353.095 519.875 354.102C519.504 355.11 519.318 356.197 519.318 357.364C519.318 358.53 519.504 359.614 519.875 360.614C520.246 361.614 520.818 362.42 521.591 363.034C522.364 363.648 523.348 363.955 524.545 363.955ZM539.048 359.636L539.003 356.318H539.548L547.185 348.545H550.503L542.366 356.773H542.139L539.048 359.636ZM536.548 366V342.727H539.23V366H536.548ZM547.639 366L540.821 357.364L542.73 355.5L551.048 366H547.639ZM560.554 366.364C558.872 366.364 557.421 365.992 556.202 365.25C554.99 364.5 554.054 363.455 553.395 362.114C552.743 360.765 552.418 359.197 552.418 357.409C552.418 355.621 552.743 354.045 553.395 352.682C554.054 351.311 554.971 350.242 556.145 349.477C557.327 348.705 558.705 348.318 560.281 348.318C561.19 348.318 562.088 348.47 562.974 348.773C563.861 349.076 564.668 349.568 565.395 350.25C566.122 350.924 566.702 351.818 567.134 352.932C567.565 354.045 567.781 355.417 567.781 357.045V358.182H554.327V355.864H565.054C565.054 354.879 564.857 354 564.463 353.227C564.077 352.455 563.524 351.845 562.804 351.398C562.092 350.951 561.251 350.727 560.281 350.727C559.213 350.727 558.289 350.992 557.509 351.523C556.736 352.045 556.141 352.727 555.724 353.568C555.308 354.409 555.099 355.311 555.099 356.273V357.818C555.099 359.136 555.327 360.254 555.781 361.17C556.243 362.08 556.884 362.773 557.702 363.25C558.52 363.72 559.471 363.955 560.554 363.955C561.259 363.955 561.895 363.856 562.463 363.659C563.039 363.455 563.535 363.152 563.952 362.75C564.368 362.341 564.69 361.833 564.918 361.227L567.509 361.955C567.236 362.833 566.777 363.606 566.134 364.273C565.49 364.932 564.694 365.447 563.747 365.818C562.8 366.182 561.736 366.364 560.554 366.364ZM574.543 355.5V366H571.861V348.545H574.452V351.273H574.679C575.088 350.386 575.709 349.674 576.543 349.136C577.376 348.591 578.452 348.318 579.77 348.318C580.952 348.318 581.986 348.561 582.872 349.045C583.759 349.523 584.448 350.25 584.94 351.227C585.433 352.197 585.679 353.424 585.679 354.909V366H582.997V355.091C582.997 353.72 582.641 352.652 581.929 351.886C581.217 351.114 580.24 350.727 578.997 350.727C578.141 350.727 577.376 350.913 576.702 351.284C576.035 351.655 575.509 352.197 575.122 352.909C574.736 353.621 574.543 354.485 574.543 355.5ZM599.943 366V342.727H608.08C609.701 342.727 611.038 343.008 612.091 343.568C613.144 344.121 613.928 344.867 614.443 345.807C614.958 346.739 615.216 347.773 615.216 348.909C615.216 349.909 615.038 350.735 614.682 351.386C614.333 352.038 613.871 352.553 613.295 352.932C612.727 353.311 612.11 353.591 611.443 353.773V354C612.155 354.045 612.871 354.295 613.591 354.75C614.311 355.205 614.913 355.856 615.398 356.705C615.883 357.553 616.125 358.591 616.125 359.818C616.125 360.985 615.86 362.034 615.33 362.966C614.799 363.898 613.962 364.636 612.818 365.182C611.674 365.727 610.186 366 608.352 366H599.943ZM602.761 363.5H608.352C610.193 363.5 611.5 363.144 612.273 362.432C613.053 361.712 613.443 360.841 613.443 359.818C613.443 359.03 613.242 358.303 612.841 357.636C612.439 356.962 611.867 356.424 611.125 356.023C610.383 355.614 609.504 355.409 608.489 355.409H602.761V363.5ZM602.761 352.955H607.989C608.837 352.955 609.602 352.788 610.284 352.455C610.973 352.121 611.519 351.652 611.92 351.045C612.33 350.439 612.534 349.727 612.534 348.909C612.534 347.886 612.178 347.019 611.466 346.307C610.754 345.587 609.625 345.227 608.08 345.227H602.761V352.955Z" fill="black"/>
<path d="M684 343H647L666.225 362L684 343Z" fill="#A7A7A7"/>
<rect x="460" width="440" height="84" fill="#F2F2F2"/>
<path d="M5.81818 55V31.7273H13.6818C15.5 31.7273 16.9924 32.0379 18.1591 32.6591C19.3258 33.2727 20.1894 34.1174 20.75 35.1932C21.3106 36.2689 21.5909 37.4924 21.5909 38.8636C21.5909 40.2348 21.3106 41.4508 20.75 42.5114C20.1894 43.572 19.3295 44.4053 18.1705 45.0114C17.0114 45.6098 15.5303 45.9091 13.7273 45.9091H7.36364V43.3636H13.6364C14.8788 43.3636 15.8788 43.1818 16.6364 42.8182C17.4015 42.4545 17.9545 41.9394 18.2955 41.2727C18.6439 40.5985 18.8182 39.7955 18.8182 38.8636C18.8182 37.9318 18.6439 37.1174 18.2955 36.4205C17.947 35.7235 17.3902 35.1856 16.625 34.8068C15.8598 34.4205 14.8485 34.2273 13.5909 34.2273H8.63636V55H5.81818ZM16.7727 44.5455L22.5 55H19.2273L13.5909 44.5455H16.7727ZM26.2869 55V31.7273H40.3324V34.2273H29.1051V42.0909H39.6051V44.5909H29.1051V52.5H40.5142V55H26.2869ZM64.1392 39H61.321C61.1544 38.1894 60.8627 37.4773 60.446 36.8636C60.0369 36.25 59.5369 35.7348 58.946 35.3182C58.3627 34.8939 57.715 34.5758 57.0028 34.3636C56.2907 34.1515 55.5483 34.0455 54.7756 34.0455C53.3665 34.0455 52.09 34.4015 50.946 35.1136C49.8097 35.8258 48.9044 36.875 48.2301 38.2614C47.5634 39.6477 47.2301 41.3485 47.2301 43.3636C47.2301 45.3788 47.5634 47.0795 48.2301 48.4659C48.9044 49.8523 49.8097 50.9015 50.946 51.6136C52.09 52.3258 53.3665 52.6818 54.7756 52.6818C55.5483 52.6818 56.2907 52.5758 57.0028 52.3636C57.715 52.1515 58.3627 51.8371 58.946 51.4205C59.5369 50.9962 60.0369 50.4773 60.446 49.8636C60.8627 49.2424 61.1544 48.5303 61.321 47.7273H64.1392C63.9271 48.9167 63.5407 49.9811 62.9801 50.9205C62.4195 51.8598 61.7225 52.6591 60.8892 53.3182C60.0559 53.9697 59.1203 54.4659 58.0824 54.8068C57.0521 55.1477 55.9498 55.3182 54.7756 55.3182C52.7907 55.3182 51.0256 54.8333 49.4801 53.8636C47.9347 52.8939 46.7188 51.5152 45.8324 49.7273C44.946 47.9394 44.5028 45.8182 44.5028 43.3636C44.5028 40.9091 44.946 38.7879 45.8324 37C46.7188 35.2121 47.9347 33.8333 49.4801 32.8636C51.0256 31.8939 52.7907 31.4091 54.7756 31.4091C55.9498 31.4091 57.0521 31.5795 58.0824 31.9205C59.1203 32.2614 60.0559 32.7614 60.8892 33.4205C61.7225 34.072 62.4195 34.8674 62.9801 35.8068C63.5407 36.7386 63.9271 37.803 64.1392 39ZM68.6932 55V31.7273H82.7386V34.2273H71.5114V42.0909H82.0114V44.5909H71.5114V52.5H82.9205V55H68.6932ZM90.6364 31.7273V55H87.8182V31.7273H90.6364ZM97.2415 31.7273L104.151 51.3182H104.423L111.332 31.7273H114.287L105.741 55H102.832L94.2869 31.7273H97.2415ZM117.912 55V31.7273H131.957V34.2273H120.73V42.0909H131.23V44.5909H120.73V52.5H132.139V55H117.912ZM137.037 55V31.7273H144.901C146.719 31.7273 148.211 32.0379 149.378 32.6591C150.545 33.2727 151.408 34.1174 151.969 35.1932C152.529 36.2689 152.81 37.4924 152.81 38.8636C152.81 40.2348 152.529 41.4508 151.969 42.5114C151.408 43.572 150.548 44.4053 149.389 45.0114C148.23 45.6098 146.749 45.9091 144.946 45.9091H138.582V43.3636H144.855C146.098 43.3636 147.098 43.1818 147.855 42.8182C148.62 42.4545 149.173 41.9394 149.514 41.2727C149.863 40.5985 150.037 39.7955 150.037 38.8636C150.037 37.9318 149.863 37.1174 149.514 36.4205C149.166 35.7235 148.609 35.1856 147.844 34.8068C147.079 34.4205 146.067 34.2273 144.81 34.2273H139.855V55H137.037ZM147.991 44.5455L153.719 55H150.446L144.81 44.5455H147.991ZM159.097 52.0227C158.536 52.0227 158.055 51.822 157.653 51.4205C157.252 51.0189 157.051 50.5379 157.051 49.9773C157.051 49.4167 157.252 48.9356 157.653 48.5341C158.055 48.1326 158.536 47.9318 159.097 47.9318C159.657 47.9318 160.138 48.1326 160.54 48.5341C160.941 48.9356 161.142 49.4167 161.142 49.9773C161.142 50.3485 161.047 50.6894 160.858 51C160.676 51.3106 160.43 51.5606 160.119 51.75C159.816 51.9318 159.475 52.0227 159.097 52.0227ZM159.097 40.25C158.536 40.25 158.055 40.0492 157.653 39.6477C157.252 39.2462 157.051 38.7652 157.051 38.2045C157.051 37.6439 157.252 37.1629 157.653 36.7614C158.055 36.3598 158.536 36.1591 159.097 36.1591C159.657 36.1591 160.138 36.3598 160.54 36.7614C160.941 37.1629 161.142 37.6439 161.142 38.2045C161.142 38.5758 161.047 38.9167 160.858 39.2273C160.676 39.5379 160.43 39.7879 160.119 39.9773C159.816 40.1591 159.475 40.25 159.097 40.25Z" fill="#686868"/>
<path d="M512 55.3182C510.288 55.3182 508.83 54.8523 507.625 53.9205C506.42 52.9811 505.5 51.6212 504.864 49.8409C504.227 48.053 503.909 45.8939 503.909 43.3636C503.909 40.8485 504.227 38.7008 504.864 36.9205C505.508 35.1326 506.432 33.7689 507.636 32.8295C508.848 31.8826 510.303 31.4091 512 31.4091C513.697 31.4091 515.148 31.8826 516.352 32.8295C517.564 33.7689 518.489 35.1326 519.125 36.9205C519.769 38.7008 520.091 40.8485 520.091 43.3636C520.091 45.8939 519.773 48.053 519.136 49.8409C518.5 51.6212 517.58 52.9811 516.375 53.9205C515.17 54.8523 513.712 55.3182 512 55.3182ZM512 52.8182C513.697 52.8182 515.015 52 515.955 50.3636C516.894 48.7273 517.364 46.3939 517.364 43.3636C517.364 41.3485 517.148 39.6326 516.716 38.2159C516.292 36.7992 515.678 35.7197 514.875 34.9773C514.08 34.2348 513.121 33.8636 512 33.8636C510.318 33.8636 509.004 34.6932 508.057 36.3523C507.11 38.0038 506.636 40.3409 506.636 43.3636C506.636 45.3788 506.848 47.0909 507.273 48.5C507.697 49.9091 508.307 50.9811 509.102 51.7159C509.905 52.4508 510.871 52.8182 512 52.8182ZM526.455 37.5455L530.636 44.6818L534.818 37.5455H537.909L532.273 46.2727L537.909 55H534.818L530.636 48.2273L526.455 55H523.364L528.909 46.2727L523.364 37.5455H526.455ZM549.509 37.5455V39.8182H540.099V37.5455H549.509ZM542.918 55V35.1364C542.918 34.1364 543.152 33.303 543.622 32.6364C544.092 31.9697 544.702 31.4697 545.452 31.1364C546.202 30.803 546.993 30.6364 547.827 30.6364C548.486 30.6364 549.024 30.6894 549.44 30.7955C549.857 30.9015 550.168 31 550.372 31.0909L549.599 33.4091C549.463 33.3636 549.274 33.3068 549.031 33.2386C548.796 33.1705 548.486 33.1364 548.099 33.1364C547.213 33.1364 546.573 33.3598 546.179 33.8068C545.793 34.2538 545.599 34.9091 545.599 35.7727V55H542.918ZM557.903 55.4091C556.797 55.4091 555.794 55.2008 554.892 54.7841C553.991 54.3598 553.275 53.75 552.744 52.9545C552.214 52.1515 551.949 51.1818 551.949 50.0455C551.949 49.0455 552.146 48.2348 552.54 47.6136C552.934 46.9848 553.46 46.4924 554.119 46.1364C554.778 45.7803 555.506 45.5152 556.301 45.3409C557.104 45.1591 557.911 45.0152 558.722 44.9091C559.782 44.7727 560.642 44.6705 561.301 44.6023C561.968 44.5265 562.453 44.4015 562.756 44.2273C563.066 44.053 563.222 43.75 563.222 43.3182V43.2273C563.222 42.1061 562.915 41.2348 562.301 40.6136C561.695 39.9924 560.775 39.6818 559.54 39.6818C558.259 39.6818 557.256 39.9621 556.528 40.5227C555.801 41.0833 555.29 41.6818 554.994 42.3182L552.449 41.4091C552.903 40.3485 553.509 39.5227 554.267 38.9318C555.032 38.3333 555.866 37.9167 556.767 37.6818C557.676 37.4394 558.57 37.3182 559.449 37.3182C560.009 37.3182 560.653 37.3864 561.381 37.5227C562.116 37.6515 562.824 37.9205 563.506 38.3295C564.195 38.7386 564.767 39.3561 565.222 40.1818C565.676 41.0076 565.903 42.1136 565.903 43.5V55H563.222V52.6364H563.085C562.903 53.0152 562.6 53.4205 562.176 53.8523C561.752 54.2841 561.188 54.6515 560.483 54.9545C559.778 55.2576 558.919 55.4091 557.903 55.4091ZM558.312 53C559.373 53 560.267 52.7917 560.994 52.375C561.729 51.9583 562.282 51.4205 562.653 50.7614C563.032 50.1023 563.222 49.4091 563.222 48.6818V46.2273C563.108 46.3636 562.858 46.4886 562.472 46.6023C562.093 46.7083 561.653 46.803 561.153 46.8864C560.661 46.9621 560.18 47.0303 559.71 47.0909C559.248 47.1439 558.873 47.1894 558.585 47.2273C557.888 47.3182 557.237 47.4659 556.631 47.6705C556.032 47.8674 555.547 48.1667 555.176 48.5682C554.813 48.9621 554.631 49.5 554.631 50.1818C554.631 51.1136 554.975 51.8182 555.665 52.2955C556.362 52.7652 557.244 53 558.312 53ZM571.162 55V31.7273H573.844V40.3182H574.071C574.268 40.0152 574.541 39.6288 574.889 39.1591C575.245 38.6818 575.753 38.2576 576.412 37.8864C577.079 37.5076 577.98 37.3182 579.116 37.3182C580.586 37.3182 581.882 37.6856 583.003 38.4205C584.124 39.1553 584.999 40.197 585.628 41.5455C586.257 42.8939 586.571 44.4848 586.571 46.3182C586.571 48.1667 586.257 49.7689 585.628 51.125C584.999 52.4735 584.128 53.5189 583.014 54.2614C581.901 54.9962 580.616 55.3636 579.162 55.3636C578.041 55.3636 577.143 55.178 576.469 54.8068C575.795 54.428 575.276 54 574.912 53.5227C574.548 53.0379 574.268 52.6364 574.071 52.3182H573.753V55H571.162ZM573.798 46.2727C573.798 47.5909 573.991 48.7538 574.378 49.7614C574.764 50.7614 575.329 51.5455 576.071 52.1136C576.813 52.6742 577.723 52.9545 578.798 52.9545C579.92 52.9545 580.855 52.6591 581.605 52.0682C582.363 51.4697 582.931 50.6667 583.31 49.6591C583.696 48.6439 583.889 47.5152 583.889 46.2727C583.889 45.0455 583.7 43.9394 583.321 42.9545C582.95 41.9621 582.385 41.178 581.628 40.6023C580.878 40.0189 579.935 39.7273 578.798 39.7273C577.707 39.7273 576.791 40.0038 576.048 40.5568C575.306 41.1023 574.745 41.8674 574.366 42.8523C573.988 43.8295 573.798 44.9697 573.798 46.2727ZM598.082 55.3182C596.522 55.3182 595.143 55.0417 593.946 54.4886C592.757 53.928 591.829 53.1591 591.162 52.1818C590.495 51.197 590.166 50.0758 590.173 48.8182C590.166 47.8333 590.359 46.9242 590.753 46.0909C591.147 45.25 591.685 44.5492 592.366 43.9886C593.056 43.4205 593.825 43.0606 594.673 42.9091V42.7727C593.56 42.4848 592.673 41.8598 592.014 40.8977C591.355 39.928 591.029 38.8258 591.037 37.5909C591.029 36.4091 591.329 35.3523 591.935 34.4205C592.541 33.4886 593.374 32.7538 594.435 32.2159C595.503 31.678 596.719 31.4091 598.082 31.4091C599.431 31.4091 600.635 31.678 601.696 32.2159C602.757 32.7538 603.59 33.4886 604.196 34.4205C604.81 35.3523 605.12 36.4091 605.128 37.5909C605.12 38.8258 604.783 39.928 604.116 40.8977C603.457 41.8598 602.582 42.4848 601.491 42.7727V42.9091C602.332 43.0606 603.09 43.4205 603.764 43.9886C604.438 44.5492 604.976 45.25 605.378 46.0909C605.779 46.9242 605.984 47.8333 605.991 48.8182C605.984 50.0758 605.643 51.197 604.969 52.1818C604.302 53.1591 603.374 53.928 602.185 54.4886C601.003 55.0417 599.635 55.3182 598.082 55.3182ZM598.082 52.8182C599.135 52.8182 600.045 52.6477 600.81 52.3068C601.575 51.9659 602.166 51.4848 602.582 50.8636C602.999 50.2424 603.211 49.5152 603.219 48.6818C603.211 47.803 602.984 47.0265 602.537 46.3523C602.09 45.678 601.48 45.1477 600.707 44.7614C599.942 44.375 599.067 44.1818 598.082 44.1818C597.09 44.1818 596.204 44.375 595.423 44.7614C594.651 45.1477 594.041 45.678 593.594 46.3523C593.154 47.0265 592.938 47.803 592.946 48.6818C592.938 49.5152 593.139 50.2424 593.548 50.8636C593.965 51.4848 594.56 51.9659 595.332 52.3068C596.105 52.6477 597.022 52.8182 598.082 52.8182ZM598.082 41.7727C598.916 41.7727 599.654 41.6061 600.298 41.2727C600.95 40.9394 601.461 40.4735 601.832 39.875C602.204 39.2765 602.393 38.5758 602.401 37.7727C602.393 36.9848 602.207 36.2992 601.844 35.7159C601.48 35.125 600.976 34.6705 600.332 34.3523C599.688 34.0265 598.938 33.8636 598.082 33.8636C597.211 33.8636 596.45 34.0265 595.798 34.3523C595.147 34.6705 594.643 35.125 594.287 35.7159C593.931 36.2992 593.757 36.9848 593.764 37.7727C593.757 38.5758 593.935 39.2765 594.298 39.875C594.67 40.4735 595.181 40.9394 595.832 41.2727C596.484 41.6061 597.234 41.7727 598.082 41.7727ZM618.528 31.7273V55H615.71V34.6818H615.574L609.892 38.4545V35.5909L615.71 31.7273H618.528ZM632.812 55.3182C631.1 55.3182 629.642 54.8523 628.438 53.9205C627.233 52.9811 626.313 51.6212 625.676 49.8409C625.04 48.053 624.722 45.8939 624.722 43.3636C624.722 40.8485 625.04 38.7008 625.676 36.9205C626.32 35.1326 627.244 33.7689 628.449 32.8295C629.661 31.8826 631.116 31.4091 632.812 31.4091C634.509 31.4091 635.96 31.8826 637.165 32.8295C638.377 33.7689 639.301 35.1326 639.938 36.9205C640.581 38.7008 640.903 40.8485 640.903 43.3636C640.903 45.8939 640.585 48.053 639.949 49.8409C639.312 51.6212 638.392 52.9811 637.188 53.9205C635.983 54.8523 634.525 55.3182 632.812 55.3182ZM632.812 52.8182C634.509 52.8182 635.828 52 636.767 50.3636C637.706 48.7273 638.176 46.3939 638.176 43.3636C638.176 41.3485 637.96 39.6326 637.528 38.2159C637.104 36.7992 636.491 35.7197 635.688 34.9773C634.892 34.2348 633.934 33.8636 632.812 33.8636C631.131 33.8636 629.816 34.6932 628.869 36.3523C627.922 38.0038 627.449 40.3409 627.449 43.3636C627.449 45.3788 627.661 47.0909 628.085 48.5C628.509 49.9091 629.119 50.9811 629.915 51.7159C630.718 52.4508 631.684 52.8182 632.812 52.8182ZM645.267 37.5455H647.949V56.2727C647.949 57.3485 647.763 58.2803 647.392 59.0682C647.028 59.8561 646.475 60.4659 645.733 60.8977C644.998 61.3295 644.07 61.5455 642.949 61.5455C642.858 61.5455 642.767 61.5455 642.676 61.5455C642.585 61.5455 642.494 61.5455 642.403 61.5455V59.0455C642.494 59.0455 642.578 59.0455 642.653 59.0455C642.729 59.0455 642.812 59.0455 642.903 59.0455C643.722 59.0455 644.32 58.803 644.699 58.3182C645.078 57.8409 645.267 57.1591 645.267 56.2727V37.5455ZM646.585 34.6364C646.063 34.6364 645.612 34.4583 645.233 34.1023C644.862 33.7462 644.676 33.3182 644.676 32.8182C644.676 32.3182 644.862 31.8902 645.233 31.5341C645.612 31.178 646.063 31 646.585 31C647.108 31 647.555 31.178 647.926 31.5341C648.305 31.8902 648.494 32.3182 648.494 32.8182C648.494 33.3182 648.305 33.7462 647.926 34.1023C647.555 34.4583 647.108 34.6364 646.585 34.6364ZM654.815 55.1818C654.255 55.1818 653.774 54.9811 653.372 54.5795C652.971 54.178 652.77 53.697 652.77 53.1364C652.77 52.5758 652.971 52.0947 653.372 51.6932C653.774 51.2917 654.255 51.0909 654.815 51.0909C655.376 51.0909 655.857 51.2917 656.259 51.6932C656.66 52.0947 656.861 52.5758 656.861 53.1364C656.861 53.5076 656.766 53.8485 656.577 54.1591C656.395 54.4697 656.149 54.7197 655.838 54.9091C655.535 55.0909 655.194 55.1818 654.815 55.1818ZM663.628 55.1818C663.067 55.1818 662.586 54.9811 662.185 54.5795C661.783 54.178 661.582 53.697 661.582 53.1364C661.582 52.5758 661.783 52.0947 662.185 51.6932C662.586 51.2917 663.067 51.0909 663.628 51.0909C664.188 51.0909 664.67 51.2917 665.071 51.6932C665.473 52.0947 665.673 52.5758 665.673 53.1364C665.673 53.5076 665.579 53.8485 665.389 54.1591C665.207 54.4697 664.961 54.7197 664.651 54.9091C664.348 55.0909 664.007 55.1818 663.628 55.1818ZM672.44 55.1818C671.88 55.1818 671.399 54.9811 670.997 54.5795C670.596 54.178 670.395 53.697 670.395 53.1364C670.395 52.5758 670.596 52.0947 670.997 51.6932C671.399 51.2917 671.88 51.0909 672.44 51.0909C673.001 51.0909 673.482 51.2917 673.884 51.6932C674.285 52.0947 674.486 52.5758 674.486 53.1364C674.486 53.5076 674.391 53.8485 674.202 54.1591C674.02 54.4697 673.774 54.7197 673.463 54.9091C673.16 55.0909 672.819 55.1818 672.44 55.1818Z" fill="black"/>
<rect x="460" y="492" width="164" height="84" fill="#F2F2F2"/>
<path d="M504.409 547V544.955L512.091 536.545C512.992 535.561 513.735 534.705 514.318 533.977C514.902 533.242 515.333 532.553 515.614 531.909C515.902 531.258 516.045 530.576 516.045 529.864C516.045 529.045 515.848 528.337 515.455 527.739C515.068 527.14 514.538 526.678 513.864 526.352C513.189 526.027 512.432 525.864 511.591 525.864C510.697 525.864 509.917 526.049 509.25 526.42C508.591 526.784 508.08 527.295 507.716 527.955C507.36 528.614 507.182 529.386 507.182 530.273H504.5C504.5 528.909 504.814 527.712 505.443 526.682C506.072 525.652 506.928 524.848 508.011 524.273C509.102 523.697 510.326 523.409 511.682 523.409C513.045 523.409 514.254 523.697 515.307 524.273C516.36 524.848 517.186 525.625 517.784 526.602C518.383 527.58 518.682 528.667 518.682 529.864C518.682 530.72 518.527 531.557 518.216 532.375C517.913 533.186 517.383 534.091 516.625 535.091C515.875 536.083 514.833 537.295 513.5 538.727L508.273 544.318V544.5H519.091V547H504.409ZM531.375 547.318C529.663 547.318 528.205 546.852 527 545.92C525.795 544.981 524.875 543.621 524.239 541.841C523.602 540.053 523.284 537.894 523.284 535.364C523.284 532.848 523.602 530.701 524.239 528.92C524.883 527.133 525.807 525.769 527.011 524.83C528.223 523.883 529.678 523.409 531.375 523.409C533.072 523.409 534.523 523.883 535.727 524.83C536.939 525.769 537.864 527.133 538.5 528.92C539.144 530.701 539.466 532.848 539.466 535.364C539.466 537.894 539.148 540.053 538.511 541.841C537.875 543.621 536.955 544.981 535.75 545.92C534.545 546.852 533.087 547.318 531.375 547.318ZM531.375 544.818C533.072 544.818 534.39 544 535.33 542.364C536.269 540.727 536.739 538.394 536.739 535.364C536.739 533.348 536.523 531.633 536.091 530.216C535.667 528.799 535.053 527.72 534.25 526.977C533.455 526.235 532.496 525.864 531.375 525.864C529.693 525.864 528.379 526.693 527.432 528.352C526.485 530.004 526.011 532.341 526.011 535.364C526.011 537.379 526.223 539.091 526.648 540.5C527.072 541.909 527.682 542.981 528.477 543.716C529.28 544.451 530.246 544.818 531.375 544.818ZM551.375 547.318C549.663 547.318 548.205 546.852 547 545.92C545.795 544.981 544.875 543.621 544.239 541.841C543.602 540.053 543.284 537.894 543.284 535.364C543.284 532.848 543.602 530.701 544.239 528.92C544.883 527.133 545.807 525.769 547.011 524.83C548.223 523.883 549.678 523.409 551.375 523.409C553.072 523.409 554.523 523.883 555.727 524.83C556.939 525.769 557.864 527.133 558.5 528.92C559.144 530.701 559.466 532.848 559.466 535.364C559.466 537.894 559.148 540.053 558.511 541.841C557.875 543.621 556.955 544.981 555.75 545.92C554.545 546.852 553.087 547.318 551.375 547.318ZM551.375 544.818C553.072 544.818 554.39 544 555.33 542.364C556.269 540.727 556.739 538.394 556.739 535.364C556.739 533.348 556.523 531.633 556.091 530.216C555.667 528.799 555.053 527.72 554.25 526.977C553.455 526.235 552.496 525.864 551.375 525.864C549.693 525.864 548.379 526.693 547.432 528.352C546.485 530.004 546.011 532.341 546.011 535.364C546.011 537.379 546.223 539.091 546.648 540.5C547.072 541.909 547.682 542.981 548.477 543.716C549.28 544.451 550.246 544.818 551.375 544.818Z" fill="black"/>
<path d="M670.682 522.636L663.182 550.5H660.727L668.227 522.636H670.682ZM690.679 547.318C689.179 547.318 687.842 547.061 686.668 546.545C685.501 546.03 684.573 545.314 683.884 544.398C683.202 543.473 682.83 542.402 682.77 541.182H685.634C685.694 541.932 685.952 542.58 686.406 543.125C686.861 543.663 687.455 544.08 688.19 544.375C688.925 544.67 689.74 544.818 690.634 544.818C691.634 544.818 692.52 544.644 693.293 544.295C694.065 543.947 694.671 543.462 695.111 542.841C695.55 542.22 695.77 541.5 695.77 540.682C695.77 539.826 695.558 539.072 695.134 538.42C694.709 537.761 694.088 537.246 693.27 536.875C692.452 536.504 691.452 536.318 690.27 536.318H688.406V533.818H690.27C691.194 533.818 692.005 533.652 692.702 533.318C693.406 532.985 693.955 532.515 694.349 531.909C694.751 531.303 694.952 530.591 694.952 529.773C694.952 528.985 694.777 528.299 694.429 527.716C694.08 527.133 693.588 526.678 692.952 526.352C692.323 526.027 691.58 525.864 690.724 525.864C689.921 525.864 689.164 526.011 688.452 526.307C687.747 526.595 687.171 527.015 686.724 527.568C686.277 528.114 686.035 528.773 685.997 529.545H683.27C683.315 528.326 683.683 527.258 684.372 526.341C685.062 525.417 685.963 524.697 687.077 524.182C688.198 523.667 689.429 523.409 690.77 523.409C692.209 523.409 693.444 523.701 694.474 524.284C695.505 524.86 696.296 525.621 696.849 526.568C697.402 527.515 697.679 528.538 697.679 529.636C697.679 530.947 697.334 532.064 696.645 532.989C695.963 533.913 695.035 534.553 693.861 534.909V535.091C695.33 535.333 696.478 535.958 697.304 536.966C698.13 537.966 698.543 539.205 698.543 540.682C698.543 541.947 698.198 543.083 697.509 544.091C696.827 545.091 695.895 545.879 694.713 546.455C693.531 547.03 692.187 547.318 690.679 547.318ZM710.781 547.318C709.069 547.318 707.611 546.852 706.406 545.92C705.202 544.981 704.281 543.621 703.645 541.841C703.009 540.053 702.69 537.894 702.69 535.364C702.69 532.848 703.009 530.701 703.645 528.92C704.289 527.133 705.213 525.769 706.418 524.83C707.63 523.883 709.084 523.409 710.781 523.409C712.478 523.409 713.929 523.883 715.134 524.83C716.346 525.769 717.27 527.133 717.906 528.92C718.55 530.701 718.872 532.848 718.872 535.364C718.872 537.894 718.554 540.053 717.918 541.841C717.281 543.621 716.361 544.981 715.156 545.92C713.952 546.852 712.493 547.318 710.781 547.318ZM710.781 544.818C712.478 544.818 713.796 544 714.736 542.364C715.675 540.727 716.145 538.394 716.145 535.364C716.145 533.348 715.929 531.633 715.497 530.216C715.073 528.799 714.459 527.72 713.656 526.977C712.861 526.235 711.902 525.864 710.781 525.864C709.099 525.864 707.785 526.693 706.838 528.352C705.891 530.004 705.418 532.341 705.418 535.364C705.418 537.379 705.63 539.091 706.054 540.5C706.478 541.909 707.088 542.981 707.884 543.716C708.687 544.451 709.652 544.818 710.781 544.818ZM730.781 547.318C729.069 547.318 727.611 546.852 726.406 545.92C725.202 544.981 724.281 543.621 723.645 541.841C723.009 540.053 722.69 537.894 722.69 535.364C722.69 532.848 723.009 530.701 723.645 528.92C724.289 527.133 725.213 525.769 726.418 524.83C727.63 523.883 729.084 523.409 730.781 523.409C732.478 523.409 733.929 523.883 735.134 524.83C736.346 525.769 737.27 527.133 737.906 528.92C738.55 530.701 738.872 532.848 738.872 535.364C738.872 537.894 738.554 540.053 737.918 541.841C737.281 543.621 736.361 544.981 735.156 545.92C733.952 546.852 732.493 547.318 730.781 547.318ZM730.781 544.818C732.478 544.818 733.796 544 734.736 542.364C735.675 540.727 736.145 538.394 736.145 535.364C736.145 533.348 735.929 531.633 735.497 530.216C735.073 528.799 734.459 527.72 733.656 526.977C732.861 526.235 731.902 525.864 730.781 525.864C729.099 525.864 727.785 526.693 726.838 528.352C725.891 530.004 725.418 532.341 725.418 535.364C725.418 537.379 725.63 539.091 726.054 540.5C726.478 541.909 727.088 542.981 727.884 543.716C728.687 544.451 729.652 544.818 730.781 544.818ZM750.781 547.318C749.069 547.318 747.611 546.852 746.406 545.92C745.202 544.981 744.281 543.621 743.645 541.841C743.009 540.053 742.69 537.894 742.69 535.364C742.69 532.848 743.009 530.701 743.645 528.92C744.289 527.133 745.213 525.769 746.418 524.83C747.63 523.883 749.084 523.409 750.781 523.409C752.478 523.409 753.929 523.883 755.134 524.83C756.346 525.769 757.27 527.133 757.906 528.92C758.55 530.701 758.872 532.848 758.872 535.364C758.872 537.894 758.554 540.053 757.918 541.841C757.281 543.621 756.361 544.981 755.156 545.92C753.952 546.852 752.493 547.318 750.781 547.318ZM750.781 544.818C752.478 544.818 753.796 544 754.736 542.364C755.675 540.727 756.145 538.394 756.145 535.364C756.145 533.348 755.929 531.633 755.497 530.216C755.073 528.799 754.459 527.72 753.656 526.977C752.861 526.235 751.902 525.864 750.781 525.864C749.099 525.864 747.785 526.693 746.838 528.352C745.891 530.004 745.418 532.341 745.418 535.364C745.418 537.379 745.63 539.091 746.054 540.5C746.478 541.909 747.088 542.981 747.884 543.716C748.687 544.451 749.652 544.818 750.781 544.818Z" fill="black"/>
<rect y="761" width="164" height="84" fill="#FFC633"/>
<path d="M48.5455 798.545C48.4091 797.394 47.8561 796.5 46.8864 795.864C45.9167 795.227 44.7273 794.909 43.3182 794.909C42.2879 794.909 41.3864 795.076 40.6136 795.409C39.8485 795.742 39.25 796.201 38.8182 796.784C38.3939 797.367 38.1818 798.03 38.1818 798.773C38.1818 799.394 38.3295 799.928 38.625 800.375C38.928 800.814 39.3144 801.182 39.7841 801.477C40.2538 801.765 40.7462 802.004 41.2614 802.193C41.7765 802.375 42.25 802.523 42.6818 802.636L45.0455 803.273C45.6515 803.432 46.3258 803.652 47.0682 803.932C47.8182 804.212 48.5341 804.595 49.2159 805.08C49.9053 805.557 50.4735 806.17 50.9205 806.92C51.3674 807.67 51.5909 808.591 51.5909 809.682C51.5909 810.939 51.2614 812.076 50.6023 813.091C49.9508 814.106 48.9962 814.913 47.7386 815.511C46.4886 816.11 44.9697 816.409 43.1818 816.409C41.5152 816.409 40.072 816.14 38.8523 815.602C37.6402 815.064 36.6856 814.314 35.9886 813.352C35.2992 812.39 34.9091 811.273 34.8182 810H37.7273C37.803 810.879 38.0985 811.606 38.6136 812.182C39.1364 812.75 39.7955 813.174 40.5909 813.455C41.3939 813.727 42.2576 813.864 43.1818 813.864C44.2576 813.864 45.2235 813.689 46.0795 813.341C46.9356 812.985 47.6136 812.492 48.1136 811.864C48.6136 811.227 48.8636 810.485 48.8636 809.636C48.8636 808.864 48.6477 808.235 48.2159 807.75C47.7841 807.265 47.2159 806.871 46.5114 806.568C45.8068 806.265 45.0455 806 44.2273 805.773L41.3636 804.955C39.5455 804.432 38.1061 803.686 37.0455 802.716C35.9848 801.746 35.4545 800.477 35.4545 798.909C35.4545 797.606 35.8068 796.47 36.5114 795.5C37.2235 794.523 38.178 793.765 39.375 793.227C40.5795 792.682 41.9242 792.409 43.4091 792.409C44.9091 792.409 46.2424 792.678 47.4091 793.216C48.5758 793.746 49.5 794.473 50.1818 795.398C50.8712 796.322 51.2348 797.371 51.2727 798.545H48.5455ZM66.8608 808.864V798.545H69.5426V816H66.8608V813.045H66.679C66.2699 813.932 65.6335 814.686 64.7699 815.307C63.9063 815.92 62.8153 816.227 61.4972 816.227C60.4062 816.227 59.4366 815.989 58.5881 815.511C57.7396 815.027 57.0729 814.299 56.5881 813.33C56.1032 812.352 55.8608 811.121 55.8608 809.636V798.545H58.5426V809.455C58.5426 810.727 58.8987 811.742 59.6108 812.5C60.3305 813.258 61.2472 813.636 62.3608 813.636C63.0275 813.636 63.7055 813.466 64.3949 813.125C65.0919 812.784 65.6752 812.261 66.1449 811.557C66.6222 810.852 66.8608 809.955 66.8608 808.864ZM74.8182 816V792.727H77.5V801.318H77.7273C77.9242 801.015 78.197 800.629 78.5455 800.159C78.9015 799.682 79.4091 799.258 80.0682 798.886C80.7348 798.508 81.6364 798.318 82.7727 798.318C84.2424 798.318 85.5379 798.686 86.6591 799.42C87.7803 800.155 88.6553 801.197 89.2841 802.545C89.9129 803.894 90.2273 805.485 90.2273 807.318C90.2273 809.167 89.9129 810.769 89.2841 812.125C88.6553 813.473 87.7841 814.519 86.6705 815.261C85.5568 815.996 84.2727 816.364 82.8182 816.364C81.697 816.364 80.7992 816.178 80.125 815.807C79.4508 815.428 78.9318 815 78.5682 814.523C78.2045 814.038 77.9242 813.636 77.7273 813.318H77.4091V816H74.8182ZM77.4545 807.273C77.4545 808.591 77.6477 809.754 78.0341 810.761C78.4205 811.761 78.9848 812.545 79.7273 813.114C80.4697 813.674 81.3788 813.955 82.4545 813.955C83.5758 813.955 84.5114 813.659 85.2614 813.068C86.0189 812.47 86.5871 811.667 86.9659 810.659C87.3523 809.644 87.5455 808.515 87.5455 807.273C87.5455 806.045 87.3561 804.939 86.9773 803.955C86.6061 802.962 86.0417 802.178 85.2841 801.602C84.5341 801.019 83.5909 800.727 82.4545 800.727C81.3636 800.727 80.447 801.004 79.7045 801.557C78.9621 802.102 78.4015 802.867 78.0227 803.852C77.6439 804.83 77.4545 805.97 77.4545 807.273ZM94.3295 816V798.545H96.9205V801.273H97.1477C97.5114 800.341 98.0985 799.617 98.9091 799.102C99.7197 798.58 100.693 798.318 101.83 798.318C102.981 798.318 103.939 798.58 104.705 799.102C105.477 799.617 106.08 800.341 106.511 801.273H106.693C107.14 800.371 107.811 799.655 108.705 799.125C109.598 798.587 110.67 798.318 111.92 798.318C113.481 798.318 114.758 798.807 115.75 799.784C116.742 800.754 117.239 802.265 117.239 804.318V816H114.557V804.318C114.557 803.03 114.205 802.11 113.5 801.557C112.795 801.004 111.966 800.727 111.011 800.727C109.784 800.727 108.833 801.098 108.159 801.841C107.485 802.576 107.148 803.508 107.148 804.636V816H104.42V804.045C104.42 803.053 104.098 802.254 103.455 801.648C102.811 801.034 101.981 800.727 100.966 800.727C100.269 800.727 99.6174 800.913 99.0114 801.284C98.4129 801.655 97.928 802.17 97.5568 802.83C97.1932 803.481 97.0114 804.235 97.0114 805.091V816H94.3295ZM122.142 816V798.545H124.824V816H122.142ZM123.506 795.636C122.983 795.636 122.532 795.458 122.153 795.102C121.782 794.746 121.597 794.318 121.597 793.818C121.597 793.318 121.782 792.89 122.153 792.534C122.532 792.178 122.983 792 123.506 792C124.028 792 124.475 792.178 124.847 792.534C125.225 792.89 125.415 793.318 125.415 793.818C125.415 794.318 125.225 794.746 124.847 795.102C124.475 795.458 124.028 795.636 123.506 795.636ZM137.327 798.545V800.818H128.281V798.545H137.327ZM130.918 794.364H133.599V811C133.599 811.758 133.709 812.326 133.929 812.705C134.156 813.076 134.444 813.326 134.793 813.455C135.149 813.576 135.524 813.636 135.918 813.636C136.213 813.636 136.455 813.621 136.645 813.591C136.834 813.553 136.986 813.523 137.099 813.5L137.645 815.909C137.463 815.977 137.209 816.045 136.884 816.114C136.558 816.189 136.145 816.227 135.645 816.227C134.887 816.227 134.145 816.064 133.418 815.739C132.698 815.413 132.099 814.917 131.622 814.25C131.152 813.583 130.918 812.742 130.918 811.727V794.364Z" fill="#1D1D1D"/>
</svg>
