<svg width="683" height="162" viewBox="0 0 683 162" fill="none" xmlns="http://www.w3.org/2000/svg">
<rect x="289" y="116" width="66" height="46" rx="5" fill="#C1FF5C"/>
<rect width="551" height="46" rx="5" fill="#EBEBEB"/>
<path d="M263.972 19.2727V28H262.915V20.3807H262.864L260.733 21.7955V20.7216L262.915 19.2727H263.972ZM269.328 28.1193C268.686 28.1193 268.139 27.9446 267.688 27.5952C267.236 27.2429 266.891 26.733 266.652 26.0653C266.413 25.3949 266.294 24.5852 266.294 23.6364C266.294 22.6932 266.413 21.8878 266.652 21.2202C266.893 20.5497 267.24 20.0384 267.692 19.6861C268.146 19.331 268.692 19.1534 269.328 19.1534C269.964 19.1534 270.509 19.331 270.96 19.6861C271.415 20.0384 271.761 20.5497 272 21.2202C272.241 21.8878 272.362 22.6932 272.362 23.6364C272.362 24.5852 272.243 25.3949 272.004 26.0653C271.766 26.733 271.42 27.2429 270.969 27.5952C270.517 27.9446 269.97 28.1193 269.328 28.1193ZM269.328 27.1818C269.964 27.1818 270.459 26.875 270.811 26.2614C271.163 25.6477 271.339 24.7727 271.339 23.6364C271.339 22.8807 271.259 22.2372 271.097 21.706C270.938 21.1747 270.707 20.7699 270.406 20.4915C270.108 20.2131 269.749 20.0739 269.328 20.0739C268.697 20.0739 268.205 20.3849 267.849 21.0071C267.494 21.6264 267.317 22.5028 267.317 23.6364C267.317 24.392 267.396 25.0341 267.555 25.5625C267.714 26.0909 267.943 26.4929 268.241 26.7685C268.543 27.044 268.905 27.1818 269.328 27.1818ZM276.828 28.1193C276.186 28.1193 275.639 27.9446 275.188 27.5952C274.736 27.2429 274.391 26.733 274.152 26.0653C273.913 25.3949 273.794 24.5852 273.794 23.6364C273.794 22.6932 273.913 21.8878 274.152 21.2202C274.393 20.5497 274.74 20.0384 275.192 19.6861C275.646 19.331 276.192 19.1534 276.828 19.1534C277.464 19.1534 278.009 19.331 278.46 19.6861C278.915 20.0384 279.261 20.5497 279.5 21.2202C279.741 21.8878 279.862 22.6932 279.862 23.6364C279.862 24.5852 279.743 25.3949 279.504 26.0653C279.266 26.733 278.92 27.2429 278.469 27.5952C278.017 27.9446 277.47 28.1193 276.828 28.1193ZM276.828 27.1818C277.464 27.1818 277.959 26.875 278.311 26.2614C278.663 25.6477 278.839 24.7727 278.839 23.6364C278.839 22.8807 278.759 22.2372 278.597 21.706C278.438 21.1747 278.207 20.7699 277.906 20.4915C277.608 20.2131 277.249 20.0739 276.828 20.0739C276.197 20.0739 275.705 20.3849 275.349 21.0071C274.994 21.6264 274.817 22.5028 274.817 23.6364C274.817 24.392 274.896 25.0341 275.055 25.5625C275.214 26.0909 275.443 26.4929 275.741 26.7685C276.043 27.044 276.405 27.1818 276.828 27.1818ZM285.93 26.3636V25.9034C285.93 25.5852 285.996 25.294 286.126 25.0298C286.26 24.7628 286.453 24.5497 286.706 24.3906C286.962 24.2287 287.271 24.1477 287.635 24.1477C288.004 24.1477 288.314 24.2287 288.564 24.3906C288.814 24.5497 289.003 24.7628 289.131 25.0298C289.259 25.294 289.322 25.5852 289.322 25.9034V26.3636C289.322 26.6818 289.257 26.9744 289.126 27.2415C288.999 27.5057 288.808 27.7187 288.555 27.8807C288.305 28.0398 287.999 28.1193 287.635 28.1193C287.266 28.1193 286.955 28.0398 286.702 27.8807C286.449 27.7187 286.257 27.5057 286.126 27.2415C285.996 26.9744 285.93 26.6818 285.93 26.3636ZM286.8 25.9034V26.3636C286.8 26.6278 286.862 26.8651 286.987 27.0753C287.112 27.2827 287.328 27.3864 287.635 27.3864C287.933 27.3864 288.143 27.2827 288.266 27.0753C288.391 26.8651 288.453 26.6278 288.453 26.3636V25.9034C288.453 25.6392 288.393 25.4034 288.274 25.196C288.155 24.9858 287.942 24.8807 287.635 24.8807C287.337 24.8807 287.122 24.9858 286.991 25.196C286.864 25.4034 286.8 25.6392 286.8 25.9034ZM281.584 21.3693V20.9091C281.584 20.5909 281.649 20.2997 281.78 20.0355C281.913 19.7685 282.107 19.5554 282.359 19.3963C282.615 19.2344 282.925 19.1534 283.288 19.1534C283.658 19.1534 283.967 19.2344 284.217 19.3963C284.467 19.5554 284.656 19.7685 284.784 20.0355C284.912 20.2997 284.976 20.5909 284.976 20.9091V21.3693C284.976 21.6875 284.911 21.9801 284.78 22.2472C284.652 22.5114 284.462 22.7244 284.209 22.8864C283.959 23.0455 283.652 23.125 283.288 23.125C282.919 23.125 282.608 23.0455 282.355 22.8864C282.102 22.7244 281.911 22.5114 281.78 22.2472C281.649 21.9801 281.584 21.6875 281.584 21.3693ZM282.453 20.9091V21.3693C282.453 21.6335 282.516 21.8707 282.641 22.081C282.766 22.2884 282.982 22.392 283.288 22.392C283.587 22.392 283.797 22.2884 283.919 22.081C284.044 21.8707 284.107 21.6335 284.107 21.3693V20.9091C284.107 20.6449 284.047 20.4091 283.928 20.2017C283.808 19.9915 283.595 19.8864 283.288 19.8864C282.99 19.8864 282.776 19.9915 282.645 20.2017C282.517 20.4091 282.453 20.6449 282.453 20.9091ZM281.908 28L287.908 19.2727H288.879L282.879 28H281.908Z" fill="black"/>
<rect y="57" width="268" height="46" rx="5" fill="#F5B6FF"/>
<path d="M148.631 85.1193C148.131 85.1193 147.68 85.0199 147.28 84.821C146.879 84.6222 146.558 84.3494 146.317 84.0028C146.075 83.6562 145.943 83.2614 145.92 82.8182H146.943C146.983 83.2131 147.162 83.5398 147.48 83.7983C147.801 84.054 148.185 84.1818 148.631 84.1818C148.989 84.1818 149.307 84.098 149.585 83.9304C149.866 83.7628 150.087 83.5327 150.246 83.2401C150.408 82.9446 150.489 82.6108 150.489 82.2386C150.489 81.858 150.405 81.5185 150.237 81.2202C150.072 80.919 149.845 80.6818 149.555 80.5085C149.266 80.3352 148.935 80.2472 148.562 80.2443C148.295 80.2415 148.021 80.2827 147.74 80.3679C147.459 80.4503 147.227 80.5568 147.045 80.6875L146.057 80.5682L146.585 76.2727H151.119V77.2102H147.472L147.165 79.7841H147.216C147.395 79.642 147.619 79.5241 147.889 79.4304C148.159 79.3366 148.44 79.2898 148.733 79.2898C149.267 79.2898 149.743 79.4176 150.161 79.6733C150.581 79.9261 150.911 80.2727 151.149 80.7131C151.391 81.1534 151.511 81.6562 151.511 82.2216C151.511 82.7784 151.386 83.2756 151.136 83.7131C150.889 84.1477 150.548 84.4915 150.114 84.7443C149.679 84.9943 149.185 85.1193 148.631 85.1193ZM156.051 85.1193C155.409 85.1193 154.862 84.9446 154.41 84.5952C153.958 84.2429 153.613 83.733 153.375 83.0653C153.136 82.3949 153.017 81.5852 153.017 80.6364C153.017 79.6932 153.136 78.8878 153.375 78.2202C153.616 77.5497 153.963 77.0384 154.414 76.6861C154.869 76.331 155.414 76.1534 156.051 76.1534C156.687 76.1534 157.231 76.331 157.683 76.6861C158.137 77.0384 158.484 77.5497 158.723 78.2202C158.964 78.8878 159.085 79.6932 159.085 80.6364C159.085 81.5852 158.966 82.3949 158.727 83.0653C158.488 83.733 158.143 84.2429 157.691 84.5952C157.24 84.9446 156.693 85.1193 156.051 85.1193ZM156.051 84.1818C156.687 84.1818 157.181 83.875 157.534 83.2614C157.886 82.6477 158.062 81.7727 158.062 80.6364C158.062 79.8807 157.981 79.2372 157.819 78.706C157.66 78.1747 157.43 77.7699 157.129 77.4915C156.831 77.2131 156.471 77.0739 156.051 77.0739C155.42 77.0739 154.927 77.3849 154.572 78.0071C154.217 78.6264 154.039 79.5028 154.039 80.6364C154.039 81.392 154.119 82.0341 154.278 82.5625C154.437 83.0909 154.666 83.4929 154.964 83.7685C155.265 84.044 155.627 84.1818 156.051 84.1818ZM165.153 83.3636V82.9034C165.153 82.5852 165.218 82.294 165.349 82.0298C165.483 81.7628 165.676 81.5497 165.929 81.3906C166.184 81.2287 166.494 81.1477 166.858 81.1477C167.227 81.1477 167.537 81.2287 167.787 81.3906C168.037 81.5497 168.225 81.7628 168.353 82.0298C168.481 82.294 168.545 82.5852 168.545 82.9034V83.3636C168.545 83.6818 168.48 83.9744 168.349 84.2415C168.221 84.5057 168.031 84.7187 167.778 84.8807C167.528 85.0398 167.221 85.1193 166.858 85.1193C166.488 85.1193 166.177 85.0398 165.924 84.8807C165.672 84.7187 165.48 84.5057 165.349 84.2415C165.218 83.9744 165.153 83.6818 165.153 83.3636ZM166.022 82.9034V83.3636C166.022 83.6278 166.085 83.8651 166.21 84.0753C166.335 84.2827 166.551 84.3864 166.858 84.3864C167.156 84.3864 167.366 84.2827 167.488 84.0753C167.613 83.8651 167.676 83.6278 167.676 83.3636V82.9034C167.676 82.6392 167.616 82.4034 167.497 82.196C167.377 81.9858 167.164 81.8807 166.858 81.8807C166.559 81.8807 166.345 81.9858 166.214 82.196C166.086 82.4034 166.022 82.6392 166.022 82.9034ZM160.806 78.3693V77.9091C160.806 77.5909 160.872 77.2997 161.002 77.0355C161.136 76.7685 161.329 76.5554 161.582 76.3963C161.838 76.2344 162.147 76.1534 162.511 76.1534C162.88 76.1534 163.19 76.2344 163.44 76.3963C163.69 76.5554 163.879 76.7685 164.007 77.0355C164.135 77.2997 164.199 77.5909 164.199 77.9091V78.3693C164.199 78.6875 164.133 78.9801 164.002 79.2472C163.875 79.5114 163.684 79.7244 163.431 79.8864C163.181 80.0455 162.875 80.125 162.511 80.125C162.142 80.125 161.831 80.0455 161.578 79.8864C161.325 79.7244 161.133 79.5114 161.002 79.2472C160.872 78.9801 160.806 78.6875 160.806 78.3693ZM161.676 77.9091V78.3693C161.676 78.6335 161.738 78.8707 161.863 79.081C161.988 79.2884 162.204 79.392 162.511 79.392C162.809 79.392 163.02 79.2884 163.142 79.081C163.267 78.8707 163.329 78.6335 163.329 78.3693V77.9091C163.329 77.6449 163.27 77.4091 163.15 77.2017C163.031 76.9915 162.818 76.8864 162.511 76.8864C162.213 76.8864 161.998 76.9915 161.868 77.2017C161.74 77.4091 161.676 77.6449 161.676 77.9091ZM161.13 85L167.13 76.2727H168.102L162.102 85H161.13Z" fill="black"/>
<rect y="116" width="150" height="46" rx="5" fill="#C1FF5C"/>
<path d="M66.9332 144.119C66.2969 144.119 65.7301 144.01 65.233 143.791C64.7386 143.57 64.348 143.266 64.0611 142.879C63.777 142.49 63.6307 142.041 63.6222 141.533H65.4801C65.4915 141.746 65.5611 141.933 65.6889 142.095C65.8196 142.254 65.9929 142.378 66.2088 142.466C66.4247 142.554 66.6676 142.598 66.9375 142.598C67.2188 142.598 67.4673 142.548 67.6832 142.449C67.8991 142.349 68.0682 142.212 68.1903 142.036C68.3125 141.859 68.3736 141.656 68.3736 141.426C68.3736 141.193 68.3082 140.987 68.1776 140.808C68.0497 140.626 67.8651 140.484 67.6236 140.382C67.3849 140.28 67.1009 140.229 66.7713 140.229H65.9574V138.874H66.7713C67.0497 138.874 67.2955 138.825 67.5085 138.729C67.7244 138.632 67.892 138.499 68.0114 138.328C68.1307 138.155 68.1903 137.953 68.1903 137.723C68.1903 137.504 68.1378 137.312 68.0327 137.148C67.9304 136.98 67.7855 136.849 67.598 136.756C67.4134 136.662 67.1974 136.615 66.9503 136.615C66.7003 136.615 66.4716 136.661 66.2642 136.751C66.0568 136.839 65.8906 136.966 65.7656 137.131C65.6406 137.295 65.5739 137.489 65.5653 137.71H63.7969C63.8054 137.207 63.9489 136.764 64.2273 136.381C64.5057 135.997 64.8807 135.697 65.3523 135.482C65.8267 135.263 66.3622 135.153 66.9588 135.153C67.5611 135.153 68.0881 135.263 68.5398 135.482C68.9915 135.7 69.3423 135.996 69.5923 136.368C69.8452 136.737 69.9702 137.152 69.9673 137.612C69.9702 138.101 69.8182 138.509 69.5114 138.835C69.2074 139.162 68.8111 139.369 68.3224 139.457V139.526C68.9645 139.608 69.4531 139.831 69.7884 140.195C70.1264 140.555 70.294 141.007 70.2912 141.55C70.294 142.047 70.1506 142.489 69.8608 142.875C69.5739 143.261 69.1776 143.565 68.6719 143.787C68.1662 144.009 67.5866 144.119 66.9332 144.119ZM75.0394 144.192C74.3065 144.189 73.6758 144.009 73.1474 143.651C72.6218 143.293 72.217 142.774 71.9329 142.095C71.6516 141.416 71.5124 140.599 71.5153 139.645C71.5153 138.693 71.6559 137.882 71.9371 137.212C72.2212 136.541 72.6261 136.031 73.1516 135.682C73.68 135.33 74.3093 135.153 75.0394 135.153C75.7695 135.153 76.3974 135.33 76.9229 135.682C77.4513 136.034 77.8576 136.545 78.1417 137.216C78.4258 137.884 78.5664 138.693 78.5636 139.645C78.5636 140.602 78.4215 141.42 78.1374 142.099C77.8562 142.778 77.4528 143.297 76.9272 143.655C76.4016 144.013 75.7724 144.192 75.0394 144.192ZM75.0394 142.662C75.5394 142.662 75.9386 142.411 76.2369 141.908C76.5352 141.405 76.6829 140.651 76.68 139.645C76.68 138.983 76.6119 138.432 76.4755 137.991C76.342 137.551 76.1516 137.22 75.9045 136.999C75.6602 136.777 75.3718 136.666 75.0394 136.666C74.5423 136.666 74.1445 136.915 73.8462 137.412C73.5479 137.909 73.3974 138.653 73.3945 139.645C73.3945 140.315 73.4613 140.875 73.5948 141.324C73.7312 141.77 73.9229 142.105 74.1701 142.33C74.4173 142.551 74.707 142.662 75.0394 142.662ZM84.6562 142.364V141.903C84.6562 141.554 84.7301 141.233 84.8778 140.94C85.0284 140.645 85.2457 140.409 85.5298 140.233C85.8168 140.054 86.1662 139.964 86.5781 139.964C86.9957 139.964 87.3466 140.053 87.6307 140.229C87.9176 140.405 88.1335 140.641 88.2784 140.936C88.4261 141.229 88.5 141.551 88.5 141.903V142.364C88.5 142.713 88.4261 143.036 88.2784 143.331C88.1307 143.624 87.9134 143.858 87.6264 144.034C87.3395 144.213 86.9901 144.303 86.5781 144.303C86.1605 144.303 85.8097 144.213 85.5256 144.034C85.2415 143.858 85.0256 143.624 84.8778 143.331C84.7301 143.036 84.6562 142.713 84.6562 142.364ZM85.8963 141.903V142.364C85.8963 142.565 85.9446 142.756 86.0412 142.935C86.1406 143.114 86.3196 143.203 86.5781 143.203C86.8366 143.203 87.0128 143.115 87.1065 142.939C87.2031 142.763 87.2514 142.571 87.2514 142.364V141.903C87.2514 141.696 87.206 141.503 87.1151 141.324C87.0241 141.145 86.8452 141.055 86.5781 141.055C86.3224 141.055 86.1449 141.145 86.0455 141.324C85.946 141.503 85.8963 141.696 85.8963 141.903ZM80.1776 137.369V136.909C80.1776 136.557 80.2528 136.234 80.4034 135.942C80.554 135.646 80.7713 135.411 81.0554 135.234C81.3423 135.058 81.6889 134.97 82.0952 134.97C82.5156 134.97 82.8679 135.058 83.152 135.234C83.4361 135.411 83.652 135.646 83.7997 135.942C83.9474 136.234 84.0213 136.557 84.0213 136.909V137.369C84.0213 137.722 83.946 138.044 83.7955 138.337C83.6477 138.629 83.4304 138.864 83.1435 139.04C82.8594 139.213 82.5099 139.3 82.0952 139.3C81.6804 139.3 81.3295 139.212 81.0426 139.036C80.7585 138.857 80.5426 138.622 80.3949 138.332C80.25 138.04 80.1776 137.719 80.1776 137.369ZM81.4261 136.909V137.369C81.4261 137.577 81.4744 137.768 81.571 137.945C81.6705 138.121 81.8452 138.209 82.0952 138.209C82.3565 138.209 82.5341 138.121 82.6278 137.945C82.7244 137.768 82.7727 137.577 82.7727 137.369V136.909C82.7727 136.702 82.7273 136.509 82.6364 136.33C82.5455 136.151 82.3651 136.061 82.0952 136.061C81.8423 136.061 81.6676 136.152 81.571 136.334C81.4744 136.516 81.4261 136.707 81.4261 136.909ZM80.7401 144L86.7401 135.273H87.8565L81.8565 144H80.7401Z" fill="black"/>
<path d="M314.972 135.273V144H313.915V136.381H313.864L311.733 137.795V136.722L313.915 135.273H314.972ZM320.209 144.119C319.709 144.119 319.259 144.02 318.858 143.821C318.457 143.622 318.136 143.349 317.895 143.003C317.653 142.656 317.521 142.261 317.499 141.818H318.521C318.561 142.213 318.74 142.54 319.058 142.798C319.379 143.054 319.763 143.182 320.209 143.182C320.567 143.182 320.885 143.098 321.163 142.93C321.445 142.763 321.665 142.533 321.824 142.24C321.986 141.945 322.067 141.611 322.067 141.239C322.067 140.858 321.983 140.518 321.815 140.22C321.651 139.919 321.423 139.682 321.134 139.509C320.844 139.335 320.513 139.247 320.141 139.244C319.874 139.241 319.599 139.283 319.318 139.368C319.037 139.45 318.805 139.557 318.624 139.688L317.635 139.568L318.163 135.273H322.697V136.21H319.05L318.743 138.784H318.794C318.973 138.642 319.197 138.524 319.467 138.43C319.737 138.337 320.018 138.29 320.311 138.29C320.845 138.29 321.321 138.418 321.739 138.673C322.159 138.926 322.489 139.273 322.727 139.713C322.969 140.153 323.089 140.656 323.089 141.222C323.089 141.778 322.964 142.276 322.714 142.713C322.467 143.148 322.126 143.491 321.692 143.744C321.257 143.994 320.763 144.119 320.209 144.119ZM329.231 142.364V141.903C329.231 141.585 329.297 141.294 329.427 141.03C329.561 140.763 329.754 140.55 330.007 140.391C330.262 140.229 330.572 140.148 330.936 140.148C331.305 140.148 331.615 140.229 331.865 140.391C332.115 140.55 332.304 140.763 332.431 141.03C332.559 141.294 332.623 141.585 332.623 141.903V142.364C332.623 142.682 332.558 142.974 332.427 143.241C332.299 143.506 332.109 143.719 331.856 143.881C331.606 144.04 331.299 144.119 330.936 144.119C330.566 144.119 330.255 144.04 330.002 143.881C329.75 143.719 329.558 143.506 329.427 143.241C329.297 142.974 329.231 142.682 329.231 142.364ZM330.1 141.903V142.364C330.1 142.628 330.163 142.865 330.288 143.075C330.413 143.283 330.629 143.386 330.936 143.386C331.234 143.386 331.444 143.283 331.566 143.075C331.691 142.865 331.754 142.628 331.754 142.364V141.903C331.754 141.639 331.694 141.403 331.575 141.196C331.456 140.986 331.243 140.881 330.936 140.881C330.637 140.881 330.423 140.986 330.292 141.196C330.164 141.403 330.1 141.639 330.1 141.903ZM324.885 137.369V136.909C324.885 136.591 324.95 136.3 325.081 136.036C325.214 135.768 325.407 135.555 325.66 135.396C325.916 135.234 326.225 135.153 326.589 135.153C326.958 135.153 327.268 135.234 327.518 135.396C327.768 135.555 327.957 135.768 328.085 136.036C328.213 136.3 328.277 136.591 328.277 136.909V137.369C328.277 137.687 328.211 137.98 328.081 138.247C327.953 138.511 327.762 138.724 327.51 138.886C327.26 139.045 326.953 139.125 326.589 139.125C326.22 139.125 325.909 139.045 325.656 138.886C325.403 138.724 325.211 138.511 325.081 138.247C324.95 137.98 324.885 137.687 324.885 137.369ZM325.754 136.909V137.369C325.754 137.634 325.816 137.871 325.941 138.081C326.066 138.288 326.282 138.392 326.589 138.392C326.887 138.392 327.098 138.288 327.22 138.081C327.345 137.871 327.407 137.634 327.407 137.369V136.909C327.407 136.645 327.348 136.409 327.228 136.202C327.109 135.991 326.896 135.886 326.589 135.886C326.291 135.886 326.076 135.991 325.946 136.202C325.818 136.409 325.754 136.645 325.754 136.909ZM325.208 144L331.208 135.273H332.18L326.18 144H325.208Z" fill="black"/>
<rect x="289" y="57" width="192" height="46" rx="5" fill="#F5B6FF"/>
<path d="M373.699 83.2102V82.3409L377.534 76.2727H378.165V77.6193H377.739L374.841 82.2045V82.2727H380.006V83.2102H373.699ZM377.807 85V82.946V82.5412V76.2727H378.812V85H377.807ZM384.449 85.1193C383.807 85.1193 383.26 84.9446 382.809 84.5952C382.357 84.2429 382.012 83.733 381.773 83.0653C381.534 82.3949 381.415 81.5852 381.415 80.6364C381.415 79.6932 381.534 78.8878 381.773 78.2202C382.015 77.5497 382.361 77.0384 382.813 76.6861C383.267 76.331 383.813 76.1534 384.449 76.1534C385.086 76.1534 385.63 76.331 386.081 76.6861C386.536 77.0384 386.882 77.5497 387.121 78.2202C387.363 78.8878 387.483 79.6932 387.483 80.6364C387.483 81.5852 387.364 82.3949 387.125 83.0653C386.887 83.733 386.542 84.2429 386.09 84.5952C385.638 84.9446 385.091 85.1193 384.449 85.1193ZM384.449 84.1818C385.086 84.1818 385.58 83.875 385.932 83.2614C386.284 82.6477 386.461 81.7727 386.461 80.6364C386.461 79.8807 386.38 79.2372 386.218 78.706C386.059 78.1747 385.828 77.7699 385.527 77.4915C385.229 77.2131 384.87 77.0739 384.449 77.0739C383.819 77.0739 383.326 77.3849 382.971 78.0071C382.615 78.6264 382.438 79.5028 382.438 80.6364C382.438 81.392 382.517 82.0341 382.676 82.5625C382.836 83.0909 383.064 83.4929 383.363 83.7685C383.664 84.044 384.026 84.1818 384.449 84.1818ZM393.551 83.3636V82.9034C393.551 82.5852 393.617 82.294 393.748 82.0298C393.881 81.7628 394.074 81.5497 394.327 81.3906C394.583 81.2287 394.892 81.1477 395.256 81.1477C395.625 81.1477 395.935 81.2287 396.185 81.3906C396.435 81.5497 396.624 81.7628 396.752 82.0298C396.88 82.294 396.944 82.5852 396.944 82.9034V83.3636C396.944 83.6818 396.878 83.9744 396.748 84.2415C396.62 84.5057 396.429 84.7187 396.176 84.8807C395.926 85.0398 395.62 85.1193 395.256 85.1193C394.887 85.1193 394.576 85.0398 394.323 84.8807C394.07 84.7187 393.878 84.5057 393.748 84.2415C393.617 83.9744 393.551 83.6818 393.551 83.3636ZM394.421 82.9034V83.3636C394.421 83.6278 394.483 83.8651 394.608 84.0753C394.733 84.2827 394.949 84.3864 395.256 84.3864C395.554 84.3864 395.765 84.2827 395.887 84.0753C396.012 83.8651 396.074 83.6278 396.074 83.3636V82.9034C396.074 82.6392 396.015 82.4034 395.895 82.196C395.776 81.9858 395.563 81.8807 395.256 81.8807C394.958 81.8807 394.743 81.9858 394.613 82.196C394.485 82.4034 394.421 82.6392 394.421 82.9034ZM389.205 78.3693V77.9091C389.205 77.5909 389.27 77.2997 389.401 77.0355C389.534 76.7685 389.728 76.5554 389.98 76.3963C390.236 76.2344 390.546 76.1534 390.909 76.1534C391.279 76.1534 391.588 76.2344 391.838 76.3963C392.088 76.5554 392.277 76.7685 392.405 77.0355C392.533 77.2997 392.597 77.5909 392.597 77.9091V78.3693C392.597 78.6875 392.532 78.9801 392.401 79.2472C392.273 79.5114 392.083 79.7244 391.83 79.8864C391.58 80.0455 391.273 80.125 390.909 80.125C390.54 80.125 390.229 80.0455 389.976 79.8864C389.723 79.7244 389.532 79.5114 389.401 79.2472C389.27 78.9801 389.205 78.6875 389.205 78.3693ZM390.074 77.9091V78.3693C390.074 78.6335 390.137 78.8707 390.262 79.081C390.387 79.2884 390.603 79.392 390.909 79.392C391.208 79.392 391.418 79.2884 391.54 79.081C391.665 78.8707 391.728 78.6335 391.728 78.3693V77.9091C391.728 77.6449 391.668 77.4091 391.549 77.2017C391.429 76.9915 391.216 76.8864 390.909 76.8864C390.611 76.8864 390.397 76.9915 390.266 77.2017C390.138 77.4091 390.074 77.6449 390.074 77.9091ZM389.529 85L395.529 76.2727H396.5L390.5 85H389.529Z" fill="black"/>
<rect x="502" y="57" width="49" height="46" rx="5" fill="#F5B6FF"/>
<path d="M518.972 76.2727V85H517.915V77.3807H517.864L515.733 78.7955V77.7216L517.915 76.2727H518.972ZM524.328 85.1193C523.686 85.1193 523.139 84.9446 522.688 84.5952C522.236 84.2429 521.891 83.733 521.652 83.0653C521.413 82.3949 521.294 81.5852 521.294 80.6364C521.294 79.6932 521.413 78.8878 521.652 78.2202C521.893 77.5497 522.24 77.0384 522.692 76.6861C523.146 76.331 523.692 76.1534 524.328 76.1534C524.964 76.1534 525.509 76.331 525.96 76.6861C526.415 77.0384 526.761 77.5497 527 78.2202C527.241 78.8878 527.362 79.6932 527.362 80.6364C527.362 81.5852 527.243 82.3949 527.004 83.0653C526.766 83.733 526.42 84.2429 525.969 84.5952C525.517 84.9446 524.97 85.1193 524.328 85.1193ZM524.328 84.1818C524.964 84.1818 525.459 83.875 525.811 83.2614C526.163 82.6477 526.339 81.7727 526.339 80.6364C526.339 79.8807 526.259 79.2372 526.097 78.706C525.938 78.1747 525.707 77.7699 525.406 77.4915C525.108 77.2131 524.749 77.0739 524.328 77.0739C523.697 77.0739 523.205 77.3849 522.849 78.0071C522.494 78.6264 522.317 79.5028 522.317 80.6364C522.317 81.392 522.396 82.0341 522.555 82.5625C522.714 83.0909 522.943 83.4929 523.241 83.7685C523.543 84.044 523.905 84.1818 524.328 84.1818ZM533.43 83.3636V82.9034C533.43 82.5852 533.496 82.294 533.626 82.0298C533.76 81.7628 533.953 81.5497 534.206 81.3906C534.462 81.2287 534.771 81.1477 535.135 81.1477C535.504 81.1477 535.814 81.2287 536.064 81.3906C536.314 81.5497 536.503 81.7628 536.631 82.0298C536.759 82.294 536.822 82.5852 536.822 82.9034V83.3636C536.822 83.6818 536.757 83.9744 536.626 84.2415C536.499 84.5057 536.308 84.7187 536.055 84.8807C535.805 85.0398 535.499 85.1193 535.135 85.1193C534.766 85.1193 534.455 85.0398 534.202 84.8807C533.949 84.7187 533.757 84.5057 533.626 84.2415C533.496 83.9744 533.43 83.6818 533.43 83.3636ZM534.3 82.9034V83.3636C534.3 83.6278 534.362 83.8651 534.487 84.0753C534.612 84.2827 534.828 84.3864 535.135 84.3864C535.433 84.3864 535.643 84.2827 535.766 84.0753C535.891 83.8651 535.953 83.6278 535.953 83.3636V82.9034C535.953 82.6392 535.893 82.4034 535.774 82.196C535.655 81.9858 535.442 81.8807 535.135 81.8807C534.837 81.8807 534.622 81.9858 534.491 82.196C534.364 82.4034 534.3 82.6392 534.3 82.9034ZM529.084 78.3693V77.9091C529.084 77.5909 529.149 77.2997 529.28 77.0355C529.413 76.7685 529.607 76.5554 529.859 76.3963C530.115 76.2344 530.425 76.1534 530.788 76.1534C531.158 76.1534 531.467 76.2344 531.717 76.3963C531.967 76.5554 532.156 76.7685 532.284 77.0355C532.412 77.2997 532.476 77.5909 532.476 77.9091V78.3693C532.476 78.6875 532.411 78.9801 532.28 79.2472C532.152 79.5114 531.962 79.7244 531.709 79.8864C531.459 80.0455 531.152 80.125 530.788 80.125C530.419 80.125 530.108 80.0455 529.855 79.8864C529.602 79.7244 529.411 79.5114 529.28 79.2472C529.149 78.9801 529.084 78.6875 529.084 78.3693ZM529.953 77.9091V78.3693C529.953 78.6335 530.016 78.8707 530.141 79.081C530.266 79.2884 530.482 79.392 530.788 79.392C531.087 79.392 531.297 79.2884 531.419 79.081C531.544 78.8707 531.607 78.6335 531.607 78.3693V77.9091C531.607 77.6449 531.547 77.4091 531.428 77.2017C531.308 76.9915 531.095 76.8864 530.788 76.8864C530.49 76.8864 530.276 76.9915 530.145 77.2017C530.017 77.4091 529.953 77.6449 529.953 77.9091ZM529.408 85L535.408 76.2727H536.379L530.379 85H529.408Z" fill="black"/>
<rect x="502" y="116" width="49" height="46" rx="5" fill="#FFC24D"/>
<path d="M518.972 135.273V144H517.915V136.381H517.864L515.733 137.795V136.722L517.915 135.273H518.972ZM524.328 144.119C523.686 144.119 523.139 143.945 522.688 143.595C522.236 143.243 521.891 142.733 521.652 142.065C521.413 141.395 521.294 140.585 521.294 139.636C521.294 138.693 521.413 137.888 521.652 137.22C521.893 136.55 522.24 136.038 522.692 135.686C523.146 135.331 523.692 135.153 524.328 135.153C524.964 135.153 525.509 135.331 525.96 135.686C526.415 136.038 526.761 136.55 527 137.22C527.241 137.888 527.362 138.693 527.362 139.636C527.362 140.585 527.243 141.395 527.004 142.065C526.766 142.733 526.42 143.243 525.969 143.595C525.517 143.945 524.97 144.119 524.328 144.119ZM524.328 143.182C524.964 143.182 525.459 142.875 525.811 142.261C526.163 141.648 526.339 140.773 526.339 139.636C526.339 138.881 526.259 138.237 526.097 137.706C525.938 137.175 525.707 136.77 525.406 136.491C525.108 136.213 524.749 136.074 524.328 136.074C523.697 136.074 523.205 136.385 522.849 137.007C522.494 137.626 522.317 138.503 522.317 139.636C522.317 140.392 522.396 141.034 522.555 141.562C522.714 142.091 522.943 142.493 523.241 142.768C523.543 143.044 523.905 143.182 524.328 143.182ZM533.43 142.364V141.903C533.43 141.585 533.496 141.294 533.626 141.03C533.76 140.763 533.953 140.55 534.206 140.391C534.462 140.229 534.771 140.148 535.135 140.148C535.504 140.148 535.814 140.229 536.064 140.391C536.314 140.55 536.503 140.763 536.631 141.03C536.759 141.294 536.822 141.585 536.822 141.903V142.364C536.822 142.682 536.757 142.974 536.626 143.241C536.499 143.506 536.308 143.719 536.055 143.881C535.805 144.04 535.499 144.119 535.135 144.119C534.766 144.119 534.455 144.04 534.202 143.881C533.949 143.719 533.757 143.506 533.626 143.241C533.496 142.974 533.43 142.682 533.43 142.364ZM534.3 141.903V142.364C534.3 142.628 534.362 142.865 534.487 143.075C534.612 143.283 534.828 143.386 535.135 143.386C535.433 143.386 535.643 143.283 535.766 143.075C535.891 142.865 535.953 142.628 535.953 142.364V141.903C535.953 141.639 535.893 141.403 535.774 141.196C535.655 140.986 535.442 140.881 535.135 140.881C534.837 140.881 534.622 140.986 534.491 141.196C534.364 141.403 534.3 141.639 534.3 141.903ZM529.084 137.369V136.909C529.084 136.591 529.149 136.3 529.28 136.036C529.413 135.768 529.607 135.555 529.859 135.396C530.115 135.234 530.425 135.153 530.788 135.153C531.158 135.153 531.467 135.234 531.717 135.396C531.967 135.555 532.156 135.768 532.284 136.036C532.412 136.3 532.476 136.591 532.476 136.909V137.369C532.476 137.687 532.411 137.98 532.28 138.247C532.152 138.511 531.962 138.724 531.709 138.886C531.459 139.045 531.152 139.125 530.788 139.125C530.419 139.125 530.108 139.045 529.855 138.886C529.602 138.724 529.411 138.511 529.28 138.247C529.149 137.98 529.084 137.687 529.084 137.369ZM529.953 136.909V137.369C529.953 137.634 530.016 137.871 530.141 138.081C530.266 138.288 530.482 138.392 530.788 138.392C531.087 138.392 531.297 138.288 531.419 138.081C531.544 137.871 531.607 137.634 531.607 137.369V136.909C531.607 136.645 531.547 136.409 531.428 136.202C531.308 135.991 531.095 135.886 530.788 135.886C530.49 135.886 530.276 135.991 530.145 136.202C530.017 136.409 529.953 136.645 529.953 136.909ZM529.408 144L535.408 135.273H536.379L530.379 144H529.408Z" fill="black"/>
<rect x="363" y="116" width="118" height="46" rx="5" fill="#CACACA"/>
<path d="M409.707 144V142.67L412.814 139.794C413.078 139.538 413.3 139.308 413.479 139.104C413.661 138.899 413.798 138.699 413.892 138.503C413.986 138.304 414.033 138.089 414.033 137.859C414.033 137.604 413.974 137.384 413.858 137.199C413.741 137.011 413.582 136.868 413.381 136.768C413.179 136.666 412.95 136.615 412.695 136.615C412.428 136.615 412.195 136.669 411.996 136.777C411.797 136.885 411.643 137.04 411.536 137.241C411.428 137.443 411.374 137.683 411.374 137.962H409.622C409.622 137.391 409.751 136.895 410.01 136.474C410.268 136.054 410.631 135.729 411.097 135.499C411.563 135.268 412.099 135.153 412.707 135.153C413.332 135.153 413.876 135.264 414.339 135.486C414.805 135.705 415.168 136.009 415.426 136.398C415.685 136.787 415.814 137.233 415.814 137.736C415.814 138.065 415.749 138.391 415.618 138.712C415.49 139.033 415.261 139.389 414.932 139.781C414.602 140.17 414.138 140.638 413.538 141.183L412.264 142.432V142.491H415.929V144H409.707ZM420.453 144.119C419.851 144.119 419.314 144.009 418.843 143.787C418.374 143.565 418.002 143.26 417.726 142.871C417.451 142.482 417.307 142.036 417.296 141.533H419.086C419.105 141.871 419.248 142.145 419.512 142.355C419.776 142.565 420.09 142.67 420.453 142.67C420.743 142.67 420.999 142.607 421.221 142.479C421.445 142.348 421.62 142.168 421.745 141.938C421.873 141.705 421.936 141.437 421.936 141.136C421.936 140.83 421.871 140.56 421.74 140.327C421.613 140.094 421.435 139.912 421.208 139.781C420.98 139.651 420.721 139.584 420.428 139.581C420.172 139.581 419.924 139.634 419.682 139.739C419.444 139.844 419.257 139.987 419.124 140.169L417.483 139.875L417.897 135.273H423.232V136.781H419.418L419.192 138.967H419.243C419.397 138.751 419.628 138.572 419.938 138.43C420.248 138.288 420.594 138.217 420.978 138.217C421.503 138.217 421.972 138.341 422.384 138.588C422.796 138.835 423.121 139.175 423.36 139.607C423.598 140.036 423.716 140.53 423.713 141.089C423.716 141.678 423.58 142.2 423.304 142.658C423.032 143.112 422.65 143.47 422.158 143.732C421.669 143.99 421.101 144.119 420.453 144.119ZM429.777 142.364V141.903C429.777 141.554 429.851 141.233 429.999 140.94C430.15 140.645 430.367 140.409 430.651 140.233C430.938 140.054 431.287 139.964 431.699 139.964C432.117 139.964 432.468 140.053 432.752 140.229C433.039 140.405 433.255 140.641 433.4 140.936C433.547 141.229 433.621 141.551 433.621 141.903V142.364C433.621 142.713 433.547 143.036 433.4 143.331C433.252 143.624 433.034 143.858 432.748 144.034C432.461 144.213 432.111 144.303 431.699 144.303C431.282 144.303 430.931 144.213 430.647 144.034C430.363 143.858 430.147 143.624 429.999 143.331C429.851 143.036 429.777 142.713 429.777 142.364ZM431.017 141.903V142.364C431.017 142.565 431.066 142.756 431.162 142.935C431.262 143.114 431.441 143.203 431.699 143.203C431.958 143.203 432.134 143.115 432.228 142.939C432.324 142.763 432.373 142.571 432.373 142.364V141.903C432.373 141.696 432.327 141.503 432.236 141.324C432.145 141.145 431.966 141.055 431.699 141.055C431.444 141.055 431.266 141.145 431.167 141.324C431.067 141.503 431.017 141.696 431.017 141.903ZM425.299 137.369V136.909C425.299 136.557 425.374 136.234 425.525 135.942C425.675 135.646 425.892 135.411 426.176 135.234C426.463 135.058 426.81 134.97 427.216 134.97C427.637 134.97 427.989 135.058 428.273 135.234C428.557 135.411 428.773 135.646 428.921 135.942C429.069 136.234 429.142 136.557 429.142 136.909V137.369C429.142 137.722 429.067 138.044 428.917 138.337C428.769 138.629 428.551 138.864 428.265 139.04C427.98 139.213 427.631 139.3 427.216 139.3C426.801 139.3 426.451 139.212 426.164 139.036C425.88 138.857 425.664 138.622 425.516 138.332C425.371 138.04 425.299 137.719 425.299 137.369ZM426.547 136.909V137.369C426.547 137.577 426.596 137.768 426.692 137.945C426.792 138.121 426.966 138.209 427.216 138.209C427.478 138.209 427.655 138.121 427.749 137.945C427.846 137.768 427.894 137.577 427.894 137.369V136.909C427.894 136.702 427.848 136.509 427.757 136.33C427.667 136.151 427.486 136.061 427.216 136.061C426.963 136.061 426.789 136.152 426.692 136.334C426.596 136.516 426.547 136.707 426.547 136.909ZM425.861 144L431.861 135.273H432.978L426.978 144H425.861Z" fill="black"/>
<rect x="219" y="116" width="49" height="46" rx="5" fill="#FFC24D"/>
<path d="M235.972 135.273V144H234.915V136.381H234.864L232.733 137.795V136.722L234.915 135.273H235.972ZM241.328 144.119C240.686 144.119 240.139 143.945 239.688 143.595C239.236 143.243 238.891 142.733 238.652 142.065C238.413 141.395 238.294 140.585 238.294 139.636C238.294 138.693 238.413 137.888 238.652 137.22C238.893 136.55 239.24 136.038 239.692 135.686C240.146 135.331 240.692 135.153 241.328 135.153C241.964 135.153 242.509 135.331 242.96 135.686C243.415 136.038 243.761 136.55 244 137.22C244.241 137.888 244.362 138.693 244.362 139.636C244.362 140.585 244.243 141.395 244.004 142.065C243.766 142.733 243.42 143.243 242.969 143.595C242.517 143.945 241.97 144.119 241.328 144.119ZM241.328 143.182C241.964 143.182 242.459 142.875 242.811 142.261C243.163 141.648 243.339 140.773 243.339 139.636C243.339 138.881 243.259 138.237 243.097 137.706C242.938 137.175 242.707 136.77 242.406 136.491C242.108 136.213 241.749 136.074 241.328 136.074C240.697 136.074 240.205 136.385 239.849 137.007C239.494 137.626 239.317 138.503 239.317 139.636C239.317 140.392 239.396 141.034 239.555 141.562C239.714 142.091 239.943 142.493 240.241 142.768C240.543 143.044 240.905 143.182 241.328 143.182ZM250.43 142.364V141.903C250.43 141.585 250.496 141.294 250.626 141.03C250.76 140.763 250.953 140.55 251.206 140.391C251.462 140.229 251.771 140.148 252.135 140.148C252.504 140.148 252.814 140.229 253.064 140.391C253.314 140.55 253.503 140.763 253.631 141.03C253.759 141.294 253.822 141.585 253.822 141.903V142.364C253.822 142.682 253.757 142.974 253.626 143.241C253.499 143.506 253.308 143.719 253.055 143.881C252.805 144.04 252.499 144.119 252.135 144.119C251.766 144.119 251.455 144.04 251.202 143.881C250.949 143.719 250.757 143.506 250.626 143.241C250.496 142.974 250.43 142.682 250.43 142.364ZM251.3 141.903V142.364C251.3 142.628 251.362 142.865 251.487 143.075C251.612 143.283 251.828 143.386 252.135 143.386C252.433 143.386 252.643 143.283 252.766 143.075C252.891 142.865 252.953 142.628 252.953 142.364V141.903C252.953 141.639 252.893 141.403 252.774 141.196C252.655 140.986 252.442 140.881 252.135 140.881C251.837 140.881 251.622 140.986 251.491 141.196C251.364 141.403 251.3 141.639 251.3 141.903ZM246.084 137.369V136.909C246.084 136.591 246.149 136.3 246.28 136.036C246.413 135.768 246.607 135.555 246.859 135.396C247.115 135.234 247.425 135.153 247.788 135.153C248.158 135.153 248.467 135.234 248.717 135.396C248.967 135.555 249.156 135.768 249.284 136.036C249.412 136.3 249.476 136.591 249.476 136.909V137.369C249.476 137.687 249.411 137.98 249.28 138.247C249.152 138.511 248.962 138.724 248.709 138.886C248.459 139.045 248.152 139.125 247.788 139.125C247.419 139.125 247.108 139.045 246.855 138.886C246.602 138.724 246.411 138.511 246.28 138.247C246.149 137.98 246.084 137.687 246.084 137.369ZM246.953 136.909V137.369C246.953 137.634 247.016 137.871 247.141 138.081C247.266 138.288 247.482 138.392 247.788 138.392C248.087 138.392 248.297 138.288 248.419 138.081C248.544 137.871 248.607 137.634 248.607 137.369V136.909C248.607 136.645 248.547 136.409 248.428 136.202C248.308 135.991 248.095 135.886 247.788 135.886C247.49 135.886 247.276 135.991 247.145 136.202C247.017 136.409 246.953 136.645 246.953 136.909ZM246.408 144L252.408 135.273H253.379L247.379 144H246.408Z" fill="black"/>
<rect x="160" y="116" width="49" height="46" rx="5" fill="#CACACA"/>
<path d="M176.972 135.273V144H175.915V136.381H175.864L173.733 137.795V136.722L175.915 135.273H176.972ZM182.328 144.119C181.686 144.119 181.139 143.945 180.688 143.595C180.236 143.243 179.891 142.733 179.652 142.065C179.413 141.395 179.294 140.585 179.294 139.636C179.294 138.693 179.413 137.888 179.652 137.22C179.893 136.55 180.24 136.038 180.692 135.686C181.146 135.331 181.692 135.153 182.328 135.153C182.964 135.153 183.509 135.331 183.96 135.686C184.415 136.038 184.761 136.55 185 137.22C185.241 137.888 185.362 138.693 185.362 139.636C185.362 140.585 185.243 141.395 185.004 142.065C184.766 142.733 184.42 143.243 183.969 143.595C183.517 143.945 182.97 144.119 182.328 144.119ZM182.328 143.182C182.964 143.182 183.459 142.875 183.811 142.261C184.163 141.648 184.339 140.773 184.339 139.636C184.339 138.881 184.259 138.237 184.097 137.706C183.938 137.175 183.707 136.77 183.406 136.491C183.108 136.213 182.749 136.074 182.328 136.074C181.697 136.074 181.205 136.385 180.849 137.007C180.494 137.626 180.317 138.503 180.317 139.636C180.317 140.392 180.396 141.034 180.555 141.562C180.714 142.091 180.943 142.493 181.241 142.768C181.543 143.044 181.905 143.182 182.328 143.182ZM191.43 142.364V141.903C191.43 141.585 191.496 141.294 191.626 141.03C191.76 140.763 191.953 140.55 192.206 140.391C192.462 140.229 192.771 140.148 193.135 140.148C193.504 140.148 193.814 140.229 194.064 140.391C194.314 140.55 194.503 140.763 194.631 141.03C194.759 141.294 194.822 141.585 194.822 141.903V142.364C194.822 142.682 194.757 142.974 194.626 143.241C194.499 143.506 194.308 143.719 194.055 143.881C193.805 144.04 193.499 144.119 193.135 144.119C192.766 144.119 192.455 144.04 192.202 143.881C191.949 143.719 191.757 143.506 191.626 143.241C191.496 142.974 191.43 142.682 191.43 142.364ZM192.3 141.903V142.364C192.3 142.628 192.362 142.865 192.487 143.075C192.612 143.283 192.828 143.386 193.135 143.386C193.433 143.386 193.643 143.283 193.766 143.075C193.891 142.865 193.953 142.628 193.953 142.364V141.903C193.953 141.639 193.893 141.403 193.774 141.196C193.655 140.986 193.442 140.881 193.135 140.881C192.837 140.881 192.622 140.986 192.491 141.196C192.364 141.403 192.3 141.639 192.3 141.903ZM187.084 137.369V136.909C187.084 136.591 187.149 136.3 187.28 136.036C187.413 135.768 187.607 135.555 187.859 135.396C188.115 135.234 188.425 135.153 188.788 135.153C189.158 135.153 189.467 135.234 189.717 135.396C189.967 135.555 190.156 135.768 190.284 136.036C190.412 136.3 190.476 136.591 190.476 136.909V137.369C190.476 137.687 190.411 137.98 190.28 138.247C190.152 138.511 189.962 138.724 189.709 138.886C189.459 139.045 189.152 139.125 188.788 139.125C188.419 139.125 188.108 139.045 187.855 138.886C187.602 138.724 187.411 138.511 187.28 138.247C187.149 137.98 187.084 137.687 187.084 137.369ZM187.953 136.909V137.369C187.953 137.634 188.016 137.871 188.141 138.081C188.266 138.288 188.482 138.392 188.788 138.392C189.087 138.392 189.297 138.288 189.419 138.081C189.544 137.871 189.607 137.634 189.607 137.369V136.909C189.607 136.645 189.547 136.409 189.428 136.202C189.308 135.991 189.095 135.886 188.788 135.886C188.49 135.886 188.276 135.991 188.145 136.202C188.017 136.409 187.953 136.645 187.953 136.909ZM187.408 144L193.408 135.273H194.379L188.379 144H187.408Z" fill="black"/>
<path d="M591.327 22H590.392C590.322 21.652 590.196 21.3305 590.014 21.0355C589.835 20.7372 589.61 20.477 589.338 20.255C589.066 20.0329 588.758 19.8606 588.413 19.7379C588.069 19.6153 587.696 19.554 587.295 19.554C586.652 19.554 586.065 19.7214 585.535 20.0561C585.008 20.3909 584.585 20.883 584.267 21.5327C583.952 22.179 583.795 22.9711 583.795 23.9091C583.795 24.8537 583.952 25.6491 584.267 26.2955C584.585 26.9418 585.008 27.4323 585.535 27.767C586.065 28.0985 586.652 28.2642 587.295 28.2642C587.696 28.2642 588.069 28.2029 588.413 28.0803C588.758 27.9576 589.066 27.7869 589.338 27.5682C589.61 27.3461 589.835 27.0859 590.014 26.7876C590.196 26.4893 590.322 26.1662 590.392 25.8182H591.327C591.244 26.2855 591.088 26.7214 590.859 27.1257C590.634 27.5268 590.346 27.8781 589.994 28.1797C589.646 28.4813 589.245 28.7166 588.791 28.8857C588.337 29.0547 587.838 29.1392 587.295 29.1392C586.44 29.1392 585.681 28.9254 585.018 28.4979C584.355 28.067 583.835 27.4605 583.457 26.6783C583.082 25.8961 582.895 24.973 582.895 23.9091C582.895 22.8452 583.082 21.9221 583.457 21.1399C583.835 20.3577 584.355 19.7528 585.018 19.3253C585.681 18.8944 586.44 18.679 587.295 18.679C587.838 18.679 588.337 18.7635 588.791 18.9325C589.245 19.0982 589.646 19.3336 589.994 19.6385C590.346 19.9401 590.634 20.2914 590.859 20.6925C591.088 21.0935 591.244 21.5294 591.327 22ZM596.295 29.1591C595.635 29.1591 595.052 28.9917 594.545 28.657C594.041 28.3222 593.646 27.8598 593.361 27.2699C593.076 26.6766 592.934 25.9922 592.934 25.2166C592.934 24.4344 593.076 23.7467 593.361 23.1534C593.646 22.5568 594.041 22.0928 594.545 21.7614C595.052 21.4266 595.635 21.2592 596.295 21.2592C596.954 21.2592 597.536 21.4266 598.04 21.7614C598.543 22.0961 598.938 22.5601 599.223 23.1534C599.511 23.7467 599.655 24.4344 599.655 25.2166C599.655 25.9922 599.513 26.6766 599.228 27.2699C598.943 27.8598 598.547 28.3222 598.04 28.657C597.536 28.9917 596.954 29.1591 596.295 29.1591ZM596.295 28.3487C596.825 28.3487 597.274 28.2062 597.642 27.9212C598.01 27.6361 598.288 27.2566 598.477 26.7827C598.669 26.3087 598.765 25.7867 598.765 25.2166C598.765 24.6465 598.669 24.1229 598.477 23.6456C598.288 23.1683 598.01 22.7855 597.642 22.4972C597.274 22.2088 596.825 22.0646 596.295 22.0646C595.768 22.0646 595.318 22.2088 594.947 22.4972C594.579 22.7855 594.299 23.1683 594.107 23.6456C593.918 24.1229 593.824 24.6465 593.824 25.2166C593.824 25.7867 593.918 26.3087 594.107 26.7827C594.299 27.2566 594.579 27.6361 594.947 27.9212C595.315 28.2062 595.764 28.3487 596.295 28.3487ZM601.598 29V21.3636H602.458V22.5369H602.538C602.69 22.1425 602.944 21.8326 603.298 21.6072C603.656 21.3786 604.085 21.2642 604.586 21.2642C605.113 21.2642 605.545 21.3885 605.884 21.6371C606.225 21.8823 606.48 22.2204 606.649 22.6513H606.714C606.886 22.227 607.166 21.8906 607.554 21.642C607.945 21.3902 608.419 21.2642 608.976 21.2642C609.685 21.2642 610.245 21.4879 610.656 21.9354C611.067 22.3795 611.273 23.0291 611.273 23.8842V29H610.388V23.8842C610.388 23.281 610.234 22.8286 609.925 22.527C609.617 22.2254 609.211 22.0746 608.707 22.0746C608.124 22.0746 607.675 22.2536 607.36 22.6115C607.045 22.9695 606.888 23.4235 606.888 23.9737V29H605.983V23.8047C605.983 23.2876 605.839 22.87 605.55 22.5518C605.262 22.2337 604.856 22.0746 604.332 22.0746C603.981 22.0746 603.665 22.1607 603.383 22.3331C603.104 22.5054 602.884 22.7457 602.722 23.054C602.563 23.3589 602.483 23.7102 602.483 24.108V29H601.598ZM613.616 29V21.3636H614.476V22.5369H614.555C614.708 22.1425 614.961 21.8326 615.316 21.6072C615.674 21.3786 616.103 21.2642 616.604 21.2642C617.131 21.2642 617.563 21.3885 617.901 21.6371C618.242 21.8823 618.498 22.2204 618.667 22.6513H618.731C618.904 22.227 619.184 21.8906 619.572 21.642C619.963 21.3902 620.437 21.2642 620.993 21.2642C621.703 21.2642 622.263 21.4879 622.674 21.9354C623.085 22.3795 623.29 23.0291 623.29 23.8842V29H622.405V23.8842C622.405 23.281 622.251 22.8286 621.943 22.527C621.635 22.2254 621.229 22.0746 620.725 22.0746C620.142 22.0746 619.693 22.2536 619.378 22.6115C619.063 22.9695 618.905 23.4235 618.905 23.9737V29H618.001V23.8047C618.001 23.2876 617.856 22.87 617.568 22.5518C617.28 22.2337 616.874 22.0746 616.35 22.0746C615.999 22.0746 615.682 22.1607 615.4 22.3331C615.122 22.5054 614.902 22.7457 614.739 23.054C614.58 23.3589 614.501 23.7102 614.501 24.108V29H613.616ZM630.485 26.0817V21.3636H631.37V29H630.485V27.7322H630.416C630.237 28.1233 629.953 28.4498 629.566 28.7116C629.178 28.9702 628.704 29.0994 628.144 29.0994C627.657 29.0994 627.224 28.9934 626.846 28.7812C626.468 28.5658 626.172 28.2509 625.956 27.8366C625.741 27.4223 625.633 26.9136 625.633 26.3104V21.3636H626.518V26.2557C626.518 26.8523 626.694 27.3329 627.045 27.6974C627.396 28.0587 627.847 28.2393 628.397 28.2393C628.742 28.2393 629.074 28.1565 629.392 27.9908C629.71 27.825 629.972 27.5831 630.177 27.2649C630.383 26.9434 630.485 26.549 630.485 26.0817ZM634.598 24.2273V29H633.713V21.3636H634.573V22.5618H634.653C634.832 22.1707 635.11 21.8575 635.488 21.6222C635.869 21.3835 636.34 21.2642 636.9 21.2642C637.414 21.2642 637.865 21.3719 638.252 21.5874C638.643 21.7995 638.947 22.1127 639.162 22.527C639.381 22.9413 639.49 23.45 639.49 24.0533V29H638.605V24.108C638.605 23.4815 638.43 22.986 638.078 22.6214C637.73 22.2569 637.263 22.0746 636.676 22.0746C636.275 22.0746 635.919 22.1607 635.607 22.3331C635.296 22.5054 635.049 22.754 634.867 23.0788C634.688 23.4003 634.598 23.7831 634.598 24.2273ZM641.831 29V21.3636H642.721V29H641.831ZM642.283 20.0511C642.101 20.0511 641.945 19.9898 641.816 19.8672C641.686 19.7412 641.622 19.5904 641.622 19.4148C641.622 19.2391 641.686 19.09 641.816 18.9673C641.945 18.8414 642.101 18.7784 642.283 18.7784C642.465 18.7784 642.621 18.8414 642.75 18.9673C642.88 19.09 642.944 19.2391 642.944 19.4148C642.944 19.5904 642.88 19.7412 642.75 19.8672C642.621 19.9898 642.465 20.0511 642.283 20.0511ZM648.069 21.3636V22.1342H644.425V21.3636H648.069ZM645.563 19.5341H646.453V27.0064C646.453 27.3246 646.508 27.5748 646.617 27.7571C646.726 27.9361 646.869 28.0637 647.045 28.1399C647.22 28.2128 647.407 28.2493 647.606 28.2493C647.722 28.2493 647.822 28.2427 647.905 28.2294C647.988 28.2128 648.06 28.1963 648.123 28.1797L648.312 28.9801C648.226 29.0133 648.12 29.0431 647.994 29.0696C647.868 29.0994 647.712 29.1143 647.527 29.1143C647.202 29.1143 646.889 29.0431 646.587 28.9006C646.289 28.758 646.044 28.5459 645.851 28.2642C645.659 27.9825 645.563 27.6328 645.563 27.2152V19.5341ZM650.695 31.8636C650.519 31.8636 650.355 31.8471 650.203 31.8139C650.05 31.7808 649.929 31.7443 649.84 31.7045L650.078 30.924C650.38 31.0168 650.649 31.05 650.884 31.0234C651.119 31.0002 651.328 30.8942 651.51 30.7053C651.693 30.5196 651.855 30.2346 651.998 29.8501L652.276 29.0746L649.467 21.3636H650.426L652.694 27.8317H652.763L655.03 21.3636H655.99L652.758 30.2081C652.622 30.576 652.455 30.8826 652.256 31.1278C652.057 31.3764 651.827 31.5604 651.565 31.6797C651.306 31.8023 651.016 31.8636 650.695 31.8636Z" fill="#333333"/>
<path d="M590.138 71.8182H591.068V78.5597C591.068 79.2524 590.906 79.8722 590.581 80.419C590.256 80.9626 589.804 81.3918 589.224 81.7067C588.647 82.0182 587.976 82.174 587.21 82.174C586.448 82.174 585.777 82.0166 585.197 81.7017C584.617 81.3868 584.164 80.9576 583.839 80.4141C583.515 79.8705 583.352 79.2524 583.352 78.5597V71.8182H584.282V78.495C584.282 79.0353 584.403 79.5175 584.645 79.9418C584.887 80.3627 585.227 80.6941 585.664 80.9361C586.105 81.178 586.62 81.299 587.21 81.299C587.8 81.299 588.316 81.178 588.756 80.9361C589.197 80.6941 589.537 80.3627 589.776 79.9418C590.018 79.5175 590.138 79.0353 590.138 78.495V71.8182ZM598.717 76.0391L597.907 76.2678C597.827 76.0391 597.714 75.8319 597.569 75.6463C597.423 75.4607 597.232 75.3132 596.997 75.2038C596.765 75.0945 596.476 75.0398 596.132 75.0398C595.615 75.0398 595.19 75.1624 594.859 75.4077C594.528 75.6529 594.362 75.9695 594.362 76.3572C594.362 76.6854 594.475 76.9522 594.7 77.1577C594.929 77.3598 595.28 77.5206 595.754 77.6399L596.907 77.9233C597.547 78.0791 598.026 78.326 598.344 78.6641C598.666 79.0021 598.826 79.4264 598.826 79.9368C598.826 80.3677 598.707 80.7505 598.468 81.0852C598.23 81.42 597.897 81.6835 597.469 81.8757C597.045 82.0646 596.553 82.1591 595.993 82.1591C595.247 82.1591 594.632 81.9917 594.148 81.657C593.664 81.3189 593.354 80.8317 593.218 80.1953L594.069 79.9865C594.178 80.4406 594.392 80.7836 594.71 81.0156C595.031 81.2476 595.454 81.3636 595.978 81.3636C596.564 81.3636 597.033 81.2327 597.385 80.9709C597.736 80.7057 597.912 80.3743 597.912 79.9766C597.912 79.6683 597.809 79.4098 597.603 79.201C597.398 78.9889 597.086 78.8331 596.669 78.7337L595.421 78.4354C594.758 78.2763 594.267 78.0244 593.949 77.6797C593.631 77.335 593.472 76.9074 593.472 76.397C593.472 75.9761 593.586 75.6065 593.815 75.2884C594.044 74.9669 594.359 74.715 594.76 74.5327C595.161 74.3504 595.618 74.2592 596.132 74.2592C596.831 74.2592 597.39 74.4183 597.807 74.7365C598.228 75.0514 598.531 75.4856 598.717 76.0391ZM603.851 82.1591C603.139 82.1591 602.522 81.9934 602.002 81.6619C601.482 81.3272 601.079 80.8648 600.794 80.2749C600.512 79.6816 600.371 78.9988 600.371 78.2266C600.371 77.4576 600.512 76.7749 600.794 76.1783C601.079 75.5784 601.472 75.1094 601.972 74.7713C602.476 74.4299 603.058 74.2592 603.717 74.2592C604.131 74.2592 604.531 74.3355 604.915 74.4879C605.3 74.6371 605.644 74.8674 605.949 75.179C606.258 75.4872 606.501 75.8767 606.68 76.3473C606.859 76.8146 606.949 77.3681 606.949 78.0078V78.4453H600.983V77.6648H606.044C606.044 77.1742 605.944 76.7334 605.746 76.3423C605.55 75.9479 605.277 75.6364 604.925 75.4077C604.577 75.179 604.175 75.0646 603.717 75.0646C603.233 75.0646 602.807 75.1939 602.439 75.4524C602.072 75.7109 601.783 76.0523 601.574 76.4766C601.369 76.9008 601.265 77.3648 601.261 77.8686V78.3359C601.261 78.9425 601.366 79.4728 601.574 79.9268C601.787 80.3776 602.086 80.7273 602.474 80.9759C602.862 81.2244 603.321 81.3487 603.851 81.3487C604.213 81.3487 604.529 81.2924 604.801 81.1797C605.076 81.067 605.306 80.9162 605.492 80.7273C605.681 80.535 605.823 80.3246 605.92 80.0959L606.76 80.3693C606.644 80.6908 606.453 80.9875 606.188 81.2592C605.926 81.531 605.598 81.7498 605.204 81.9155C604.813 82.0779 604.362 82.1591 603.851 82.1591ZM608.899 82V74.3636H609.759V75.5369H609.824C609.976 75.1525 610.241 74.8426 610.619 74.6072C611 74.3686 611.431 74.2493 611.912 74.2493C611.984 74.2493 612.066 74.2509 612.155 74.2543C612.245 74.2576 612.319 74.2609 612.379 74.2642V75.1641C612.339 75.1574 612.27 75.1475 612.17 75.1342C612.071 75.121 611.963 75.1143 611.847 75.1143C611.449 75.1143 611.095 75.1989 610.783 75.3679C610.475 75.5336 610.231 75.764 610.052 76.0589C609.873 76.3539 609.784 76.6903 609.784 77.0682V82H608.899ZM619.02 76.0391L618.209 76.2678C618.13 76.0391 618.017 75.8319 617.871 75.6463C617.725 75.4607 617.535 75.3132 617.3 75.2038C617.068 75.0945 616.779 75.0398 616.434 75.0398C615.917 75.0398 615.493 75.1624 615.162 75.4077C614.83 75.6529 614.665 75.9695 614.665 76.3572C614.665 76.6854 614.777 76.9522 615.003 77.1577C615.231 77.3598 615.583 77.5206 616.057 77.6399L617.21 77.9233C617.85 78.0791 618.329 78.326 618.647 78.6641C618.968 79.0021 619.129 79.4264 619.129 79.9368C619.129 80.3677 619.01 80.7505 618.771 81.0852C618.532 81.42 618.199 81.6835 617.772 81.8757C617.348 82.0646 616.855 82.1591 616.295 82.1591C615.55 82.1591 614.935 81.9917 614.451 81.657C613.967 81.3189 613.657 80.8317 613.521 80.1953L614.371 79.9865C614.481 80.4406 614.694 80.7836 615.013 81.0156C615.334 81.2476 615.757 81.3636 616.28 81.3636C616.867 81.3636 617.336 81.2327 617.687 80.9709C618.039 80.7057 618.214 80.3743 618.214 79.9766C618.214 79.6683 618.112 79.4098 617.906 79.201C617.701 78.9889 617.389 78.8331 616.971 78.7337L615.724 78.4354C615.061 78.2763 614.57 78.0244 614.252 77.6797C613.934 77.335 613.775 76.9074 613.775 76.397C613.775 75.9761 613.889 75.6065 614.118 75.2884C614.346 74.9669 614.661 74.715 615.062 74.5327C615.463 74.3504 615.921 74.2592 616.434 74.2592C617.134 74.2592 617.692 74.4183 618.11 74.7365C618.531 75.0514 618.834 75.4856 619.02 76.0391ZM625.203 82H624.229L627.933 71.8182H628.927L632.631 82H631.656L628.464 73.0263H628.395L625.203 82ZM625.904 78.0973H630.955V78.9325H625.904V78.0973ZM635.663 80.608L635.574 81.1399C635.518 81.4979 635.438 81.8923 635.335 82.3232C635.232 82.754 635.126 83.1634 635.017 83.5511C634.908 83.9389 634.813 84.2505 634.734 84.4858H634.053C634.096 84.2604 634.15 83.9737 634.217 83.6257C634.286 83.2777 634.357 82.8916 634.43 82.4673C634.503 82.0464 634.57 81.6122 634.629 81.1648L634.699 80.608H635.663ZM642.128 82V71.8182H645.563C646.226 71.8182 646.778 71.9342 647.219 72.1662C647.663 72.3982 647.996 72.7147 648.218 73.1158C648.44 73.5168 648.551 73.9725 648.551 74.483C648.551 74.9072 648.48 75.2701 648.337 75.5717C648.195 75.8733 648.001 76.117 647.756 76.3026C647.51 76.4882 647.237 76.6224 646.935 76.7053V76.7848C647.263 76.808 647.581 76.924 647.89 77.1328C648.198 77.3383 648.452 77.6267 648.65 77.9979C648.849 78.3691 648.949 78.8132 648.949 79.3303C648.949 79.844 648.834 80.303 648.606 80.7074C648.377 81.1084 648.026 81.425 647.552 81.657C647.081 81.8857 646.481 82 645.752 82H642.128ZM643.057 81.1648H645.752C646.537 81.1648 647.117 80.9908 647.492 80.6428C647.87 80.2947 648.059 79.8572 648.059 79.3303C648.059 78.9425 647.964 78.5911 647.775 78.2763C647.59 77.9581 647.326 77.7062 646.985 77.5206C646.647 77.335 646.249 77.2422 645.792 77.2422H643.057V81.1648ZM643.057 76.4169H645.648C646.049 76.4169 646.4 76.334 646.702 76.1683C647.003 76.0026 647.238 75.7739 647.407 75.4822C647.577 75.1906 647.661 74.8575 647.661 74.483C647.661 73.9427 647.485 73.5036 647.134 73.1655C646.783 72.8241 646.259 72.6534 645.563 72.6534H643.057V76.4169ZM652.48 80.608L652.39 81.1399C652.334 81.4979 652.254 81.8923 652.152 82.3232C652.049 82.754 651.943 83.1634 651.833 83.5511C651.724 83.9389 651.63 84.2505 651.55 84.4858H650.869C650.912 84.2604 650.967 83.9737 651.033 83.6257C651.103 83.2777 651.174 82.8916 651.247 82.4673C651.32 82.0464 651.386 81.6122 651.446 81.1648L651.515 80.608H652.48ZM666.919 75H665.984C665.914 74.652 665.788 74.3305 665.606 74.0355C665.427 73.7372 665.202 73.477 664.93 73.255C664.658 73.0329 664.35 72.8606 664.005 72.7379C663.66 72.6153 663.288 72.554 662.887 72.554C662.244 72.554 661.657 72.7214 661.127 73.0561C660.6 73.3909 660.177 73.883 659.859 74.5327C659.544 75.179 659.387 75.9711 659.387 76.9091C659.387 77.8537 659.544 78.6491 659.859 79.2955C660.177 79.9418 660.6 80.4323 661.127 80.767C661.657 81.0985 662.244 81.2642 662.887 81.2642C663.288 81.2642 663.66 81.2029 664.005 81.0803C664.35 80.9576 664.658 80.7869 664.93 80.5682C665.202 80.3461 665.427 80.0859 665.606 79.7876C665.788 79.4893 665.914 79.1662 665.984 78.8182H666.919C666.836 79.2855 666.68 79.7214 666.451 80.1257C666.226 80.5268 665.937 80.8781 665.586 81.1797C665.238 81.4813 664.837 81.7166 664.383 81.8857C663.929 82.0547 663.43 82.1392 662.887 82.1392C662.031 82.1392 661.272 81.9254 660.61 81.4979C659.947 81.067 659.426 80.4605 659.048 79.6783C658.674 78.8961 658.487 77.973 658.487 76.9091C658.487 75.8452 658.674 74.9221 659.048 74.1399C659.426 73.3577 659.947 72.7528 660.61 72.3253C661.272 71.8944 662.031 71.679 662.887 71.679C663.43 71.679 663.929 71.7635 664.383 71.9325C664.837 72.0982 665.238 72.3336 665.586 72.6385C665.937 72.9401 666.226 73.2914 666.451 73.6925C666.68 74.0935 666.836 74.5294 666.919 75Z" fill="#333333"/>
<path d="M581.736 130.653V129.818H589.119V130.653H585.892V140H584.962V130.653H581.736ZM592.888 140.159C592.229 140.159 591.645 139.992 591.138 139.657C590.635 139.322 590.24 138.86 589.955 138.27C589.67 137.677 589.528 136.992 589.528 136.217C589.528 135.434 589.67 134.747 589.955 134.153C590.24 133.557 590.635 133.093 591.138 132.761C591.645 132.427 592.229 132.259 592.888 132.259C593.548 132.259 594.13 132.427 594.633 132.761C595.137 133.096 595.532 133.56 595.817 134.153C596.105 134.747 596.249 135.434 596.249 136.217C596.249 136.992 596.107 137.677 595.822 138.27C595.537 138.86 595.14 139.322 594.633 139.657C594.13 139.992 593.548 140.159 592.888 140.159ZM592.888 139.349C593.419 139.349 593.868 139.206 594.236 138.921C594.604 138.636 594.882 138.257 595.071 137.783C595.263 137.309 595.359 136.787 595.359 136.217C595.359 135.647 595.263 135.123 595.071 134.646C594.882 134.168 594.604 133.786 594.236 133.497C593.868 133.209 593.419 133.065 592.888 133.065C592.361 133.065 591.912 133.209 591.541 133.497C591.173 133.786 590.893 134.168 590.701 134.646C590.512 135.123 590.417 135.647 590.417 136.217C590.417 136.787 590.512 137.309 590.701 137.783C590.893 138.257 591.173 138.636 591.541 138.921C591.909 139.206 592.358 139.349 592.888 139.349ZM598.997 137.116L598.987 135.958H599.186L602.766 132.364H603.884L600.349 135.903L600.27 135.918L598.997 137.116ZM598.192 140V129.818H599.077V140H598.192ZM602.95 140L599.847 136.077L600.484 135.466L604.083 140H602.95ZM608.32 140.159C607.608 140.159 606.991 139.993 606.471 139.662C605.95 139.327 605.548 138.865 605.263 138.275C604.981 137.682 604.84 136.999 604.84 136.227C604.84 135.458 604.981 134.775 605.263 134.178C605.548 133.578 605.94 133.109 606.441 132.771C606.945 132.43 607.526 132.259 608.186 132.259C608.6 132.259 609 132.335 609.384 132.488C609.769 132.637 610.113 132.867 610.418 133.179C610.726 133.487 610.97 133.877 611.149 134.347C611.328 134.815 611.417 135.368 611.417 136.008V136.445H605.452V135.665H610.513C610.513 135.174 610.413 134.733 610.214 134.342C610.019 133.948 609.745 133.636 609.394 133.408C609.046 133.179 608.643 133.065 608.186 133.065C607.702 133.065 607.276 133.194 606.908 133.452C606.54 133.711 606.252 134.052 606.043 134.477C605.838 134.901 605.733 135.365 605.73 135.869V136.336C605.73 136.942 605.834 137.473 606.043 137.927C606.255 138.378 606.555 138.727 606.943 138.976C607.331 139.224 607.79 139.349 608.32 139.349C608.681 139.349 608.998 139.292 609.27 139.18C609.545 139.067 609.775 138.916 609.961 138.727C610.15 138.535 610.292 138.325 610.388 138.096L611.229 138.369C611.113 138.691 610.922 138.987 610.657 139.259C610.395 139.531 610.067 139.75 609.672 139.915C609.281 140.078 608.831 140.159 608.32 140.159ZM614.252 135.227V140H613.368V132.364H614.228V133.562H614.307C614.486 133.171 614.765 132.857 615.142 132.622C615.524 132.384 615.994 132.264 616.554 132.264C617.068 132.264 617.519 132.372 617.907 132.587C618.298 132.799 618.601 133.113 618.816 133.527C619.035 133.941 619.145 134.45 619.145 135.053V140H618.26V135.108C618.26 134.482 618.084 133.986 617.733 133.621C617.385 133.257 616.917 133.075 616.331 133.075C615.93 133.075 615.573 133.161 615.262 133.333C614.95 133.505 614.703 133.754 614.521 134.079C614.342 134.4 614.252 134.783 614.252 135.227ZM625.596 140V129.818H626.486V133.82H626.566C626.665 133.592 626.808 133.356 626.993 133.114C627.182 132.872 627.429 132.67 627.734 132.508C628.042 132.342 628.43 132.259 628.898 132.259C629.524 132.259 630.074 132.425 630.548 132.756C631.022 133.085 631.392 133.545 631.657 134.138C631.922 134.728 632.055 135.416 632.055 136.202C632.055 136.991 631.922 137.682 631.657 138.275C631.395 138.868 631.027 139.33 630.553 139.662C630.082 139.993 629.536 140.159 628.912 140.159C628.448 140.159 628.061 140.076 627.749 139.911C627.441 139.745 627.192 139.541 627.003 139.299C626.814 139.054 626.669 138.815 626.566 138.583H626.456V140H625.596ZM626.471 136.187C626.471 136.803 626.563 137.35 626.745 137.827C626.93 138.301 627.196 138.674 627.54 138.946C627.888 139.214 628.309 139.349 628.803 139.349C629.31 139.349 629.739 139.21 630.091 138.931C630.442 138.649 630.709 138.27 630.891 137.793C631.073 137.315 631.165 136.78 631.165 136.187C631.165 135.6 631.073 135.071 630.891 134.601C630.712 134.13 630.447 133.757 630.096 133.482C629.744 133.204 629.314 133.065 628.803 133.065C628.306 133.065 627.883 133.199 627.535 133.467C627.191 133.732 626.927 134.1 626.745 134.571C626.563 135.038 626.471 135.577 626.471 136.187ZM636.131 140.174C635.671 140.174 635.25 140.085 634.868 139.906C634.487 139.723 634.184 139.461 633.959 139.12C633.733 138.775 633.621 138.358 633.621 137.867C633.621 137.489 633.692 137.171 633.834 136.913C633.977 136.654 634.179 136.442 634.441 136.276C634.703 136.111 635.013 135.98 635.371 135.884C635.729 135.787 636.123 135.713 636.554 135.66C636.981 135.607 637.343 135.56 637.638 135.521C637.936 135.481 638.163 135.418 638.319 135.332C638.474 135.246 638.552 135.106 638.552 134.914V134.735C638.552 134.215 638.397 133.805 638.085 133.507C637.777 133.205 637.333 133.055 636.753 133.055C636.202 133.055 635.753 133.176 635.405 133.418C635.061 133.66 634.819 133.945 634.68 134.273L633.839 133.969C634.012 133.552 634.25 133.219 634.555 132.97C634.86 132.718 635.202 132.538 635.579 132.428C635.957 132.316 636.34 132.259 636.728 132.259C637.019 132.259 637.323 132.297 637.638 132.374C637.956 132.45 638.251 132.582 638.523 132.771C638.794 132.957 639.015 133.217 639.184 133.552C639.353 133.883 639.437 134.304 639.437 134.815V140H638.552V138.792H638.498C638.392 139.017 638.234 139.236 638.025 139.448C637.817 139.66 637.555 139.834 637.24 139.97C636.925 140.106 636.555 140.174 636.131 140.174ZM636.251 139.364C636.721 139.364 637.129 139.259 637.474 139.05C637.818 138.842 638.083 138.565 638.269 138.22C638.458 137.872 638.552 137.489 638.552 137.072V135.968C638.486 136.031 638.375 136.087 638.219 136.137C638.067 136.187 637.89 136.232 637.687 136.271C637.488 136.308 637.29 136.339 637.091 136.366C636.892 136.392 636.713 136.415 636.554 136.435C636.123 136.488 635.755 136.571 635.45 136.684C635.145 136.797 634.912 136.952 634.749 137.151C634.587 137.347 634.506 137.599 634.506 137.907C634.506 138.371 634.671 138.731 635.003 138.986C635.334 139.238 635.75 139.364 636.251 139.364ZM642.676 129.818V140H641.791V129.818H642.676ZM647.151 140.174C646.69 140.174 646.269 140.085 645.888 139.906C645.507 139.723 645.204 139.461 644.978 139.12C644.753 138.775 644.64 138.358 644.64 137.867C644.64 137.489 644.711 137.171 644.854 136.913C644.996 136.654 645.199 136.442 645.46 136.276C645.722 136.111 646.032 135.98 646.39 135.884C646.748 135.787 647.142 135.713 647.573 135.66C648.001 135.607 648.362 135.56 648.657 135.521C648.955 135.481 649.182 135.418 649.338 135.332C649.494 135.246 649.572 135.106 649.572 134.914V134.735C649.572 134.215 649.416 133.805 649.105 133.507C648.796 133.205 648.352 133.055 647.772 133.055C647.222 133.055 646.773 133.176 646.425 133.418C646.08 133.66 645.838 133.945 645.699 134.273L644.859 133.969C645.031 133.552 645.27 133.219 645.575 132.97C645.88 132.718 646.221 132.538 646.599 132.428C646.977 132.316 647.36 132.259 647.747 132.259C648.039 132.259 648.342 132.297 648.657 132.374C648.975 132.45 649.27 132.582 649.542 132.771C649.814 132.957 650.034 133.217 650.203 133.552C650.372 133.883 650.457 134.304 650.457 134.815V140H649.572V138.792H649.517C649.411 139.017 649.254 139.236 649.045 139.448C648.836 139.66 648.574 139.834 648.259 139.97C647.945 140.106 647.575 140.174 647.151 140.174ZM647.27 139.364C647.741 139.364 648.148 139.259 648.493 139.05C648.838 138.842 649.103 138.565 649.289 138.22C649.477 137.872 649.572 137.489 649.572 137.072V135.968C649.506 136.031 649.395 136.087 649.239 136.137C649.086 136.187 648.909 136.232 648.707 136.271C648.508 136.308 648.309 136.339 648.11 136.366C647.911 136.392 647.732 136.415 647.573 136.435C647.142 136.488 646.775 136.571 646.47 136.684C646.165 136.797 645.931 136.952 645.769 137.151C645.606 137.347 645.525 137.599 645.525 137.907C645.525 138.371 645.691 138.731 646.022 138.986C646.354 139.238 646.77 139.364 647.27 139.364ZM653.696 135.227V140H652.811V132.364H653.671V133.562H653.751C653.93 133.171 654.208 132.857 654.586 132.622C654.967 132.384 655.438 132.264 655.998 132.264C656.511 132.264 656.962 132.372 657.35 132.587C657.741 132.799 658.044 133.113 658.26 133.527C658.479 133.941 658.588 134.45 658.588 135.053V140H657.703V135.108C657.703 134.482 657.527 133.986 657.176 133.621C656.828 133.257 656.361 133.075 655.774 133.075C655.373 133.075 655.017 133.161 654.705 133.333C654.394 133.505 654.147 133.754 653.964 134.079C653.785 134.4 653.696 134.783 653.696 135.227ZM663.901 140.159C663.219 140.159 662.624 139.988 662.116 139.647C661.613 139.306 661.222 138.838 660.943 138.245C660.665 137.652 660.526 136.976 660.526 136.217C660.526 135.451 660.666 134.77 660.948 134.173C661.233 133.577 661.628 133.109 662.131 132.771C662.635 132.43 663.22 132.259 663.886 132.259C664.397 132.259 664.859 132.359 665.273 132.558C665.688 132.753 666.029 133.03 666.298 133.388C666.569 133.742 666.74 134.157 666.81 134.631H665.915C665.822 134.2 665.598 133.832 665.244 133.527C664.892 133.219 664.445 133.065 663.901 133.065C663.414 133.065 662.983 133.197 662.609 133.462C662.234 133.724 661.941 134.09 661.729 134.561C661.52 135.028 661.415 135.57 661.415 136.187C661.415 136.807 661.518 137.355 661.724 137.832C661.929 138.306 662.218 138.678 662.589 138.946C662.963 139.214 663.401 139.349 663.901 139.349C664.239 139.349 664.548 139.286 664.826 139.16C665.108 139.031 665.343 138.848 665.532 138.613C665.724 138.378 665.853 138.098 665.92 137.773H666.815C666.748 138.233 666.584 138.644 666.322 139.006C666.064 139.364 665.728 139.645 665.313 139.851C664.902 140.056 664.432 140.159 663.901 140.159ZM671.799 140.159C671.086 140.159 670.47 139.993 669.949 139.662C669.429 139.327 669.026 138.865 668.741 138.275C668.459 137.682 668.319 136.999 668.319 136.227C668.319 135.458 668.459 134.775 668.741 134.178C669.026 133.578 669.419 133.109 669.919 132.771C670.423 132.43 671.005 132.259 671.664 132.259C672.079 132.259 672.478 132.335 672.863 132.488C673.247 132.637 673.592 132.867 673.897 133.179C674.205 133.487 674.449 133.877 674.627 134.347C674.806 134.815 674.896 135.368 674.896 136.008V136.445H668.93V135.665H673.991C673.991 135.174 673.892 134.733 673.693 134.342C673.497 133.948 673.224 133.636 672.873 133.408C672.525 133.179 672.122 133.065 671.664 133.065C671.181 133.065 670.755 133.194 670.387 133.452C670.019 133.711 669.73 134.052 669.522 134.477C669.316 134.901 669.212 135.365 669.208 135.869V136.336C669.208 136.942 669.313 137.473 669.522 137.927C669.734 138.378 670.034 138.727 670.422 138.976C670.809 139.224 671.268 139.349 671.799 139.349C672.16 139.349 672.476 139.292 672.748 139.18C673.023 139.067 673.254 138.916 673.439 138.727C673.628 138.535 673.771 138.325 673.867 138.096L674.707 138.369C674.591 138.691 674.4 138.987 674.135 139.259C673.873 139.531 673.545 139.75 673.151 139.915C672.76 140.078 672.309 140.159 671.799 140.159ZM681.977 134.039L681.166 134.268C681.087 134.039 680.974 133.832 680.828 133.646C680.682 133.461 680.492 133.313 680.257 133.204C680.025 133.094 679.736 133.04 679.392 133.04C678.874 133.04 678.45 133.162 678.119 133.408C677.787 133.653 677.622 133.969 677.622 134.357C677.622 134.685 677.734 134.952 677.96 135.158C678.188 135.36 678.54 135.521 679.014 135.64L680.167 135.923C680.807 136.079 681.286 136.326 681.604 136.664C681.925 137.002 682.086 137.426 682.086 137.937C682.086 138.368 681.967 138.75 681.728 139.085C681.49 139.42 681.156 139.683 680.729 139.876C680.305 140.065 679.812 140.159 679.252 140.159C678.507 140.159 677.892 139.992 677.408 139.657C676.924 139.319 676.614 138.832 676.478 138.195L677.328 137.987C677.438 138.441 677.651 138.784 677.97 139.016C678.291 139.248 678.714 139.364 679.237 139.364C679.824 139.364 680.293 139.233 680.644 138.971C680.996 138.706 681.171 138.374 681.171 137.977C681.171 137.668 681.069 137.41 680.863 137.201C680.658 136.989 680.346 136.833 679.928 136.734L678.681 136.435C678.018 136.276 677.527 136.024 677.209 135.68C676.891 135.335 676.732 134.907 676.732 134.397C676.732 133.976 676.846 133.607 677.075 133.288C677.303 132.967 677.618 132.715 678.019 132.533C678.42 132.35 678.878 132.259 679.392 132.259C680.091 132.259 680.649 132.418 681.067 132.737C681.488 133.051 681.791 133.486 681.977 134.039Z" fill="#333333"/>
</svg>
