<svg width="683" height="162" viewBox="0 0 683 162" fill="none" xmlns="http://www.w3.org/2000/svg">
<rect x="359" y="116" width="66" height="46" rx="5" fill="#C1FF5C"/>
<rect width="551" height="46" rx="5" fill="#EBEBEB"/>
<path d="M263.972 19.2727V28H262.915V20.3807H262.864L260.733 21.7955V20.7216L262.915 19.2727H263.972ZM269.328 28.1193C268.686 28.1193 268.139 27.9446 267.688 27.5952C267.236 27.2429 266.891 26.733 266.652 26.0653C266.413 25.3949 266.294 24.5852 266.294 23.6364C266.294 22.6932 266.413 21.8878 266.652 21.2202C266.893 20.5497 267.24 20.0384 267.692 19.6861C268.146 19.331 268.692 19.1534 269.328 19.1534C269.964 19.1534 270.509 19.331 270.96 19.6861C271.415 20.0384 271.761 20.5497 272 21.2202C272.241 21.8878 272.362 22.6932 272.362 23.6364C272.362 24.5852 272.243 25.3949 272.004 26.0653C271.766 26.733 271.42 27.2429 270.969 27.5952C270.517 27.9446 269.97 28.1193 269.328 28.1193ZM269.328 27.1818C269.964 27.1818 270.459 26.875 270.811 26.2614C271.163 25.6477 271.339 24.7727 271.339 23.6364C271.339 22.8807 271.259 22.2372 271.097 21.706C270.938 21.1747 270.707 20.7699 270.406 20.4915C270.108 20.2131 269.749 20.0739 269.328 20.0739C268.697 20.0739 268.205 20.3849 267.849 21.0071C267.494 21.6264 267.317 22.5028 267.317 23.6364C267.317 24.392 267.396 25.0341 267.555 25.5625C267.714 26.0909 267.943 26.4929 268.241 26.7685C268.543 27.044 268.905 27.1818 269.328 27.1818ZM276.828 28.1193C276.186 28.1193 275.639 27.9446 275.188 27.5952C274.736 27.2429 274.391 26.733 274.152 26.0653C273.913 25.3949 273.794 24.5852 273.794 23.6364C273.794 22.6932 273.913 21.8878 274.152 21.2202C274.393 20.5497 274.74 20.0384 275.192 19.6861C275.646 19.331 276.192 19.1534 276.828 19.1534C277.464 19.1534 278.009 19.331 278.46 19.6861C278.915 20.0384 279.261 20.5497 279.5 21.2202C279.741 21.8878 279.862 22.6932 279.862 23.6364C279.862 24.5852 279.743 25.3949 279.504 26.0653C279.266 26.733 278.92 27.2429 278.469 27.5952C278.017 27.9446 277.47 28.1193 276.828 28.1193ZM276.828 27.1818C277.464 27.1818 277.959 26.875 278.311 26.2614C278.663 25.6477 278.839 24.7727 278.839 23.6364C278.839 22.8807 278.759 22.2372 278.597 21.706C278.438 21.1747 278.207 20.7699 277.906 20.4915C277.608 20.2131 277.249 20.0739 276.828 20.0739C276.197 20.0739 275.705 20.3849 275.349 21.0071C274.994 21.6264 274.817 22.5028 274.817 23.6364C274.817 24.392 274.896 25.0341 275.055 25.5625C275.214 26.0909 275.443 26.4929 275.741 26.7685C276.043 27.044 276.405 27.1818 276.828 27.1818ZM285.93 26.3636V25.9034C285.93 25.5852 285.996 25.294 286.126 25.0298C286.26 24.7628 286.453 24.5497 286.706 24.3906C286.962 24.2287 287.271 24.1477 287.635 24.1477C288.004 24.1477 288.314 24.2287 288.564 24.3906C288.814 24.5497 289.003 24.7628 289.131 25.0298C289.259 25.294 289.322 25.5852 289.322 25.9034V26.3636C289.322 26.6818 289.257 26.9744 289.126 27.2415C288.999 27.5057 288.808 27.7187 288.555 27.8807C288.305 28.0398 287.999 28.1193 287.635 28.1193C287.266 28.1193 286.955 28.0398 286.702 27.8807C286.449 27.7187 286.257 27.5057 286.126 27.2415C285.996 26.9744 285.93 26.6818 285.93 26.3636ZM286.8 25.9034V26.3636C286.8 26.6278 286.862 26.8651 286.987 27.0753C287.112 27.2827 287.328 27.3864 287.635 27.3864C287.933 27.3864 288.143 27.2827 288.266 27.0753C288.391 26.8651 288.453 26.6278 288.453 26.3636V25.9034C288.453 25.6392 288.393 25.4034 288.274 25.196C288.155 24.9858 287.942 24.8807 287.635 24.8807C287.337 24.8807 287.122 24.9858 286.991 25.196C286.864 25.4034 286.8 25.6392 286.8 25.9034ZM281.584 21.3693V20.9091C281.584 20.5909 281.649 20.2997 281.78 20.0355C281.913 19.7685 282.107 19.5554 282.359 19.3963C282.615 19.2344 282.925 19.1534 283.288 19.1534C283.658 19.1534 283.967 19.2344 284.217 19.3963C284.467 19.5554 284.656 19.7685 284.784 20.0355C284.912 20.2997 284.976 20.5909 284.976 20.9091V21.3693C284.976 21.6875 284.911 21.9801 284.78 22.2472C284.652 22.5114 284.462 22.7244 284.209 22.8864C283.959 23.0455 283.652 23.125 283.288 23.125C282.919 23.125 282.608 23.0455 282.355 22.8864C282.102 22.7244 281.911 22.5114 281.78 22.2472C281.649 21.9801 281.584 21.6875 281.584 21.3693ZM282.453 20.9091V21.3693C282.453 21.6335 282.516 21.8707 282.641 22.081C282.766 22.2884 282.982 22.392 283.288 22.392C283.587 22.392 283.797 22.2884 283.919 22.081C284.044 21.8707 284.107 21.6335 284.107 21.3693V20.9091C284.107 20.6449 284.047 20.4091 283.928 20.2017C283.808 19.9915 283.595 19.8864 283.288 19.8864C282.99 19.8864 282.776 19.9915 282.645 20.2017C282.517 20.4091 282.453 20.6449 282.453 20.9091ZM281.908 28L287.908 19.2727H288.879L282.879 28H281.908Z" fill="black"/>
<rect y="57" width="338" height="46" rx="5" fill="#F5B6FF"/>
<path d="M148.801 85.1193C148.443 85.1136 148.085 85.0455 147.727 84.9148C147.369 84.7841 147.043 84.5639 146.747 84.2543C146.452 83.9418 146.214 83.5199 146.036 82.9886C145.857 82.4545 145.767 81.7841 145.767 80.9773C145.767 80.2045 145.839 79.5199 145.984 78.9233C146.129 78.3239 146.339 77.8196 146.615 77.4105C146.891 76.9986 147.223 76.6861 147.612 76.473C148.004 76.2599 148.446 76.1534 148.938 76.1534C149.426 76.1534 149.861 76.2514 150.241 76.4474C150.625 76.6406 150.938 76.9105 151.179 77.2571C151.42 77.6037 151.577 78.0028 151.648 78.4545H150.608C150.511 78.0625 150.324 77.7372 150.045 77.4787C149.767 77.2202 149.398 77.0909 148.938 77.0909C148.261 77.0909 147.729 77.3849 147.339 77.973C146.953 78.5611 146.759 79.3864 146.756 80.4489H146.824C146.983 80.2074 147.172 80.0014 147.391 79.831C147.612 79.6577 147.857 79.5241 148.124 79.4304C148.391 79.3366 148.673 79.2898 148.972 79.2898C149.472 79.2898 149.929 79.4148 150.344 79.6648C150.759 79.9119 151.091 80.2543 151.341 80.6918C151.591 81.1264 151.716 81.625 151.716 82.1875C151.716 82.7273 151.595 83.2216 151.354 83.6705C151.112 84.1165 150.773 84.4716 150.335 84.7358C149.901 84.9972 149.389 85.125 148.801 85.1193ZM148.801 84.1818C149.159 84.1818 149.48 84.0923 149.764 83.9134C150.051 83.7344 150.277 83.4943 150.442 83.1932C150.609 82.892 150.693 82.5568 150.693 82.1875C150.693 81.8267 150.612 81.4986 150.45 81.2031C150.291 80.9048 150.071 80.6676 149.79 80.4915C149.511 80.3153 149.193 80.2273 148.835 80.2273C148.565 80.2273 148.314 80.2812 148.081 80.3892C147.848 80.4943 147.643 80.6392 147.467 80.8239C147.294 81.0085 147.158 81.2202 147.058 81.4588C146.959 81.6946 146.909 81.9432 146.909 82.2045C146.909 82.5511 146.99 82.875 147.152 83.1761C147.317 83.4773 147.541 83.7202 147.825 83.9048C148.112 84.0895 148.438 84.1818 148.801 84.1818ZM156.119 85.1193C155.619 85.1193 155.169 85.0199 154.768 84.821C154.368 84.6222 154.047 84.3494 153.805 84.0028C153.564 83.6562 153.431 83.2614 153.409 82.8182H154.431C154.471 83.2131 154.65 83.5398 154.968 83.7983C155.289 84.054 155.673 84.1818 156.119 84.1818C156.477 84.1818 156.795 84.098 157.074 83.9304C157.355 83.7628 157.575 83.5327 157.734 83.2401C157.896 82.9446 157.977 82.6108 157.977 82.2386C157.977 81.858 157.893 81.5185 157.725 81.2202C157.561 80.919 157.333 80.6818 157.044 80.5085C156.754 80.3352 156.423 80.2472 156.051 80.2443C155.784 80.2415 155.51 80.2827 155.228 80.3679C154.947 80.4503 154.716 80.5568 154.534 80.6875L153.545 80.5682L154.074 76.2727H158.608V77.2102H154.96L154.653 79.7841H154.704C154.883 79.642 155.108 79.5241 155.377 79.4304C155.647 79.3366 155.929 79.2898 156.221 79.2898C156.755 79.2898 157.231 79.4176 157.649 79.6733C158.069 79.9261 158.399 80.2727 158.637 80.7131C158.879 81.1534 159 81.6562 159 82.2216C159 82.7784 158.875 83.2756 158.625 83.7131C158.377 84.1477 158.037 84.4915 157.602 84.7443C157.167 84.9943 156.673 85.1193 156.119 85.1193ZM165.141 83.3636V82.9034C165.141 82.5852 165.207 82.294 165.337 82.0298C165.471 81.7628 165.664 81.5497 165.917 81.3906C166.173 81.2287 166.482 81.1477 166.846 81.1477C167.215 81.1477 167.525 81.2287 167.775 81.3906C168.025 81.5497 168.214 81.7628 168.342 82.0298C168.469 82.294 168.533 82.5852 168.533 82.9034V83.3636C168.533 83.6818 168.468 83.9744 168.337 84.2415C168.21 84.5057 168.019 84.7187 167.766 84.8807C167.516 85.0398 167.21 85.1193 166.846 85.1193C166.477 85.1193 166.165 85.0398 165.913 84.8807C165.66 84.7187 165.468 84.5057 165.337 84.2415C165.207 83.9744 165.141 83.6818 165.141 83.3636ZM166.011 82.9034V83.3636C166.011 83.6278 166.073 83.8651 166.198 84.0753C166.323 84.2827 166.539 84.3864 166.846 84.3864C167.144 84.3864 167.354 84.2827 167.477 84.0753C167.602 83.8651 167.664 83.6278 167.664 83.3636V82.9034C167.664 82.6392 167.604 82.4034 167.485 82.196C167.366 81.9858 167.153 81.8807 166.846 81.8807C166.548 81.8807 166.333 81.9858 166.202 82.196C166.075 82.4034 166.011 82.6392 166.011 82.9034ZM160.795 78.3693V77.9091C160.795 77.5909 160.86 77.2997 160.991 77.0355C161.124 76.7685 161.317 76.5554 161.57 76.3963C161.826 76.2344 162.136 76.1534 162.499 76.1534C162.869 76.1534 163.178 76.2344 163.428 76.3963C163.678 76.5554 163.867 76.7685 163.995 77.0355C164.123 77.2997 164.187 77.5909 164.187 77.9091V78.3693C164.187 78.6875 164.121 78.9801 163.991 79.2472C163.863 79.5114 163.673 79.7244 163.42 79.8864C163.17 80.0455 162.863 80.125 162.499 80.125C162.13 80.125 161.819 80.0455 161.566 79.8864C161.313 79.7244 161.121 79.5114 160.991 79.2472C160.86 78.9801 160.795 78.6875 160.795 78.3693ZM161.664 77.9091V78.3693C161.664 78.6335 161.727 78.8707 161.852 79.081C161.977 79.2884 162.192 79.392 162.499 79.392C162.798 79.392 163.008 79.2884 163.13 79.081C163.255 78.8707 163.317 78.6335 163.317 78.3693V77.9091C163.317 77.6449 163.258 77.4091 163.138 77.2017C163.019 76.9915 162.806 76.8864 162.499 76.8864C162.201 76.8864 161.987 76.9915 161.856 77.2017C161.728 77.4091 161.664 77.6449 161.664 77.9091ZM161.119 85L167.119 76.2727H168.09L162.09 85H161.119Z" fill="black"/>
<rect y="116" width="225" height="46" rx="5" fill="#C1FF5C"/>
<path d="M100.699 142.21V141.341L104.534 135.273H105.165V136.619H104.739L101.841 141.205V141.273H107.006V142.21H100.699ZM104.807 144V141.946V141.541V135.273H105.812V144H104.807ZM111.33 144.119C110.83 144.119 110.38 144.02 109.979 143.821C109.578 143.622 109.257 143.349 109.016 143.003C108.775 142.656 108.642 142.261 108.62 141.818H109.642C109.682 142.213 109.861 142.54 110.179 142.798C110.5 143.054 110.884 143.182 111.33 143.182C111.688 143.182 112.006 143.098 112.284 142.93C112.566 142.763 112.786 142.533 112.945 142.24C113.107 141.945 113.188 141.611 113.188 141.239C113.188 140.858 113.104 140.518 112.936 140.22C112.772 139.919 112.544 139.682 112.255 139.509C111.965 139.335 111.634 139.247 111.262 139.244C110.995 139.241 110.721 139.283 110.439 139.368C110.158 139.45 109.926 139.557 109.745 139.688L108.756 139.568L109.284 135.273H113.819V136.21H110.171L109.864 138.784H109.915C110.094 138.642 110.319 138.524 110.588 138.43C110.858 138.337 111.14 138.29 111.432 138.29C111.966 138.29 112.442 138.418 112.86 138.673C113.28 138.926 113.61 139.273 113.848 139.713C114.09 140.153 114.211 140.656 114.211 141.222C114.211 141.778 114.086 142.276 113.836 142.713C113.588 143.148 113.248 143.491 112.813 143.744C112.378 143.994 111.884 144.119 111.33 144.119ZM120.352 142.364V141.903C120.352 141.585 120.418 141.294 120.548 141.03C120.682 140.763 120.875 140.55 121.128 140.391C121.384 140.229 121.693 140.148 122.057 140.148C122.426 140.148 122.736 140.229 122.986 140.391C123.236 140.55 123.425 140.763 123.553 141.03C123.68 141.294 123.744 141.585 123.744 141.903V142.364C123.744 142.682 123.679 142.974 123.548 143.241C123.42 143.506 123.23 143.719 122.977 143.881C122.727 144.04 122.42 144.119 122.057 144.119C121.688 144.119 121.376 144.04 121.124 143.881C120.871 143.719 120.679 143.506 120.548 143.241C120.418 142.974 120.352 142.682 120.352 142.364ZM121.222 141.903V142.364C121.222 142.628 121.284 142.865 121.409 143.075C121.534 143.283 121.75 143.386 122.057 143.386C122.355 143.386 122.565 143.283 122.688 143.075C122.812 142.865 122.875 142.628 122.875 142.364V141.903C122.875 141.639 122.815 141.403 122.696 141.196C122.577 140.986 122.364 140.881 122.057 140.881C121.759 140.881 121.544 140.986 121.413 141.196C121.286 141.403 121.222 141.639 121.222 141.903ZM116.006 137.369V136.909C116.006 136.591 116.071 136.3 116.202 136.036C116.335 135.768 116.528 135.555 116.781 135.396C117.037 135.234 117.347 135.153 117.71 135.153C118.08 135.153 118.389 135.234 118.639 135.396C118.889 135.555 119.078 135.768 119.206 136.036C119.334 136.3 119.398 136.591 119.398 136.909V137.369C119.398 137.687 119.332 137.98 119.202 138.247C119.074 138.511 118.884 138.724 118.631 138.886C118.381 139.045 118.074 139.125 117.71 139.125C117.341 139.125 117.03 139.045 116.777 138.886C116.524 138.724 116.332 138.511 116.202 138.247C116.071 137.98 116.006 137.687 116.006 137.369ZM116.875 136.909V137.369C116.875 137.634 116.938 137.871 117.062 138.081C117.188 138.288 117.403 138.392 117.71 138.392C118.009 138.392 118.219 138.288 118.341 138.081C118.466 137.871 118.528 137.634 118.528 137.369V136.909C118.528 136.645 118.469 136.409 118.349 136.202C118.23 135.991 118.017 135.886 117.71 135.886C117.412 135.886 117.197 135.991 117.067 136.202C116.939 136.409 116.875 136.645 116.875 136.909ZM116.33 144L122.33 135.273H123.301L117.301 144H116.33Z" fill="black"/>
<path d="M384.972 135.273V144H383.915V136.381H383.864L381.733 137.795V136.722L383.915 135.273H384.972ZM390.209 144.119C389.709 144.119 389.259 144.02 388.858 143.821C388.457 143.622 388.136 143.349 387.895 143.003C387.653 142.656 387.521 142.261 387.499 141.818H388.521C388.561 142.213 388.74 142.54 389.058 142.798C389.379 143.054 389.763 143.182 390.209 143.182C390.567 143.182 390.885 143.098 391.163 142.93C391.445 142.763 391.665 142.533 391.824 142.24C391.986 141.945 392.067 141.611 392.067 141.239C392.067 140.858 391.983 140.518 391.815 140.22C391.651 139.919 391.423 139.682 391.134 139.509C390.844 139.335 390.513 139.247 390.141 139.244C389.874 139.241 389.599 139.283 389.318 139.368C389.037 139.45 388.805 139.557 388.624 139.688L387.635 139.568L388.163 135.273H392.697V136.21H389.05L388.743 138.784H388.794C388.973 138.642 389.197 138.524 389.467 138.43C389.737 138.337 390.018 138.29 390.311 138.29C390.845 138.29 391.321 138.418 391.739 138.673C392.159 138.926 392.489 139.273 392.727 139.713C392.969 140.153 393.089 140.656 393.089 141.222C393.089 141.778 392.964 142.276 392.714 142.713C392.467 143.148 392.126 143.491 391.692 143.744C391.257 143.994 390.763 144.119 390.209 144.119ZM399.231 142.364V141.903C399.231 141.585 399.297 141.294 399.427 141.03C399.561 140.763 399.754 140.55 400.007 140.391C400.262 140.229 400.572 140.148 400.936 140.148C401.305 140.148 401.615 140.229 401.865 140.391C402.115 140.55 402.304 140.763 402.431 141.03C402.559 141.294 402.623 141.585 402.623 141.903V142.364C402.623 142.682 402.558 142.974 402.427 143.241C402.299 143.506 402.109 143.719 401.856 143.881C401.606 144.04 401.299 144.119 400.936 144.119C400.566 144.119 400.255 144.04 400.002 143.881C399.75 143.719 399.558 143.506 399.427 143.241C399.297 142.974 399.231 142.682 399.231 142.364ZM400.1 141.903V142.364C400.1 142.628 400.163 142.865 400.288 143.075C400.413 143.283 400.629 143.386 400.936 143.386C401.234 143.386 401.444 143.283 401.566 143.075C401.691 142.865 401.754 142.628 401.754 142.364V141.903C401.754 141.639 401.694 141.403 401.575 141.196C401.456 140.986 401.243 140.881 400.936 140.881C400.637 140.881 400.423 140.986 400.292 141.196C400.164 141.403 400.1 141.639 400.1 141.903ZM394.885 137.369V136.909C394.885 136.591 394.95 136.3 395.081 136.036C395.214 135.768 395.407 135.555 395.66 135.396C395.916 135.234 396.225 135.153 396.589 135.153C396.958 135.153 397.268 135.234 397.518 135.396C397.768 135.555 397.957 135.768 398.085 136.036C398.213 136.3 398.277 136.591 398.277 136.909V137.369C398.277 137.687 398.211 137.98 398.081 138.247C397.953 138.511 397.762 138.724 397.51 138.886C397.26 139.045 396.953 139.125 396.589 139.125C396.22 139.125 395.909 139.045 395.656 138.886C395.403 138.724 395.211 138.511 395.081 138.247C394.95 137.98 394.885 137.687 394.885 137.369ZM395.754 136.909V137.369C395.754 137.634 395.816 137.871 395.941 138.081C396.066 138.288 396.282 138.392 396.589 138.392C396.887 138.392 397.098 138.288 397.22 138.081C397.345 137.871 397.407 137.634 397.407 137.369V136.909C397.407 136.645 397.348 136.409 397.228 136.202C397.109 135.991 396.896 135.886 396.589 135.886C396.291 135.886 396.076 135.991 395.946 136.202C395.818 136.409 395.754 136.645 395.754 136.909ZM395.208 144L401.208 135.273H402.18L396.18 144H395.208Z" fill="black"/>
<rect x="359" y="57" width="123" height="46" rx="5" fill="#F5B6FF"/>
<path d="M408.903 85V84.233L411.784 81.0795C412.122 80.7102 412.401 80.3892 412.619 80.1165C412.838 79.8409 413 79.5824 413.105 79.3409C413.213 79.0966 413.267 78.8409 413.267 78.5739C413.267 78.267 413.193 78.0014 413.045 77.777C412.901 77.5526 412.702 77.3793 412.449 77.2571C412.196 77.1349 411.912 77.0739 411.597 77.0739C411.261 77.0739 410.969 77.1435 410.719 77.2827C410.472 77.419 410.28 77.6108 410.143 77.858C410.01 78.1051 409.943 78.3949 409.943 78.7273H408.938C408.938 78.2159 409.055 77.767 409.291 77.3807C409.527 76.9943 409.848 76.6932 410.254 76.4773C410.663 76.2614 411.122 76.1534 411.631 76.1534C412.142 76.1534 412.595 76.2614 412.99 76.4773C413.385 76.6932 413.695 76.9844 413.919 77.3509C414.143 77.7173 414.256 78.125 414.256 78.5739C414.256 78.8949 414.197 79.2088 414.081 79.5156C413.967 79.8196 413.768 80.1591 413.484 80.5341C413.203 80.9062 412.812 81.3608 412.312 81.8977L410.352 83.9943V84.0625H414.409V85H408.903ZM418.896 85.1193C418.396 85.1193 417.946 85.0199 417.545 84.821C417.145 84.6222 416.824 84.3494 416.582 84.0028C416.341 83.6562 416.209 83.2614 416.186 82.8182H417.209C417.249 83.2131 417.428 83.5398 417.746 83.7983C418.067 84.054 418.45 84.1818 418.896 84.1818C419.254 84.1818 419.572 84.098 419.851 83.9304C420.132 83.7628 420.352 83.5327 420.511 83.2401C420.673 82.9446 420.754 82.6108 420.754 82.2386C420.754 81.858 420.67 81.5185 420.503 81.2202C420.338 80.919 420.111 80.6818 419.821 80.5085C419.531 80.3352 419.2 80.2472 418.828 80.2443C418.561 80.2415 418.287 80.2827 418.006 80.3679C417.724 80.4503 417.493 80.5568 417.311 80.6875L416.322 80.5682L416.851 76.2727H421.385V77.2102H417.737L417.43 79.7841H417.482C417.661 79.642 417.885 79.5241 418.155 79.4304C418.425 79.3366 418.706 79.2898 418.999 79.2898C419.533 79.2898 420.009 79.4176 420.426 79.6733C420.847 79.9261 421.176 80.2727 421.415 80.7131C421.656 81.1534 421.777 81.6562 421.777 82.2216C421.777 82.7784 421.652 83.2756 421.402 83.7131C421.155 84.1477 420.814 84.4915 420.379 84.7443C419.945 84.9943 419.45 85.1193 418.896 85.1193ZM427.919 83.3636V82.9034C427.919 82.5852 427.984 82.294 428.115 82.0298C428.248 81.7628 428.441 81.5497 428.694 81.3906C428.95 81.2287 429.26 81.1477 429.623 81.1477C429.993 81.1477 430.302 81.2287 430.552 81.3906C430.802 81.5497 430.991 81.7628 431.119 82.0298C431.247 82.294 431.311 82.5852 431.311 82.9034V83.3636C431.311 83.6818 431.245 83.9744 431.115 84.2415C430.987 84.5057 430.797 84.7187 430.544 84.8807C430.294 85.0398 429.987 85.1193 429.623 85.1193C429.254 85.1193 428.943 85.0398 428.69 84.8807C428.437 84.7187 428.245 84.5057 428.115 84.2415C427.984 83.9744 427.919 83.6818 427.919 83.3636ZM428.788 82.9034V83.3636C428.788 83.6278 428.85 83.8651 428.975 84.0753C429.1 84.2827 429.316 84.3864 429.623 84.3864C429.922 84.3864 430.132 84.2827 430.254 84.0753C430.379 83.8651 430.441 83.6278 430.441 83.3636V82.9034C430.441 82.6392 430.382 82.4034 430.262 82.196C430.143 81.9858 429.93 81.8807 429.623 81.8807C429.325 81.8807 429.11 81.9858 428.98 82.196C428.852 82.4034 428.788 82.6392 428.788 82.9034ZM423.572 78.3693V77.9091C423.572 77.5909 423.637 77.2997 423.768 77.0355C423.902 76.7685 424.095 76.5554 424.348 76.3963C424.603 76.2344 424.913 76.1534 425.277 76.1534C425.646 76.1534 425.956 76.2344 426.206 76.3963C426.456 76.5554 426.645 76.7685 426.772 77.0355C426.9 77.2997 426.964 77.5909 426.964 77.9091V78.3693C426.964 78.6875 426.899 78.9801 426.768 79.2472C426.64 79.5114 426.45 79.7244 426.197 79.8864C425.947 80.0455 425.64 80.125 425.277 80.125C424.907 80.125 424.596 80.0455 424.343 79.8864C424.091 79.7244 423.899 79.5114 423.768 79.2472C423.637 78.9801 423.572 78.6875 423.572 78.3693ZM424.441 77.9091V78.3693C424.441 78.6335 424.504 78.8707 424.629 79.081C424.754 79.2884 424.97 79.392 425.277 79.392C425.575 79.392 425.785 79.2884 425.907 79.081C426.032 78.8707 426.095 78.6335 426.095 78.3693V77.9091C426.095 77.6449 426.035 77.4091 425.916 77.2017C425.797 76.9915 425.583 76.8864 425.277 76.8864C424.978 76.8864 424.764 76.9915 424.633 77.2017C424.505 77.4091 424.441 77.6449 424.441 77.9091ZM423.896 85L429.896 76.2727H430.868L424.868 85H423.896Z" fill="black"/>
<rect x="502" y="57" width="49" height="46" rx="5" fill="#F5B6FF"/>
<path d="M518.972 76.2727V85H517.915V77.3807H517.864L515.733 78.7955V77.7216L517.915 76.2727H518.972ZM524.328 85.1193C523.686 85.1193 523.139 84.9446 522.688 84.5952C522.236 84.2429 521.891 83.733 521.652 83.0653C521.413 82.3949 521.294 81.5852 521.294 80.6364C521.294 79.6932 521.413 78.8878 521.652 78.2202C521.893 77.5497 522.24 77.0384 522.692 76.6861C523.146 76.331 523.692 76.1534 524.328 76.1534C524.964 76.1534 525.509 76.331 525.96 76.6861C526.415 77.0384 526.761 77.5497 527 78.2202C527.241 78.8878 527.362 79.6932 527.362 80.6364C527.362 81.5852 527.243 82.3949 527.004 83.0653C526.766 83.733 526.42 84.2429 525.969 84.5952C525.517 84.9446 524.97 85.1193 524.328 85.1193ZM524.328 84.1818C524.964 84.1818 525.459 83.875 525.811 83.2614C526.163 82.6477 526.339 81.7727 526.339 80.6364C526.339 79.8807 526.259 79.2372 526.097 78.706C525.938 78.1747 525.707 77.7699 525.406 77.4915C525.108 77.2131 524.749 77.0739 524.328 77.0739C523.697 77.0739 523.205 77.3849 522.849 78.0071C522.494 78.6264 522.317 79.5028 522.317 80.6364C522.317 81.392 522.396 82.0341 522.555 82.5625C522.714 83.0909 522.943 83.4929 523.241 83.7685C523.543 84.044 523.905 84.1818 524.328 84.1818ZM533.43 83.3636V82.9034C533.43 82.5852 533.496 82.294 533.626 82.0298C533.76 81.7628 533.953 81.5497 534.206 81.3906C534.462 81.2287 534.771 81.1477 535.135 81.1477C535.504 81.1477 535.814 81.2287 536.064 81.3906C536.314 81.5497 536.503 81.7628 536.631 82.0298C536.759 82.294 536.822 82.5852 536.822 82.9034V83.3636C536.822 83.6818 536.757 83.9744 536.626 84.2415C536.499 84.5057 536.308 84.7187 536.055 84.8807C535.805 85.0398 535.499 85.1193 535.135 85.1193C534.766 85.1193 534.455 85.0398 534.202 84.8807C533.949 84.7187 533.757 84.5057 533.626 84.2415C533.496 83.9744 533.43 83.6818 533.43 83.3636ZM534.3 82.9034V83.3636C534.3 83.6278 534.362 83.8651 534.487 84.0753C534.612 84.2827 534.828 84.3864 535.135 84.3864C535.433 84.3864 535.643 84.2827 535.766 84.0753C535.891 83.8651 535.953 83.6278 535.953 83.3636V82.9034C535.953 82.6392 535.893 82.4034 535.774 82.196C535.655 81.9858 535.442 81.8807 535.135 81.8807C534.837 81.8807 534.622 81.9858 534.491 82.196C534.364 82.4034 534.3 82.6392 534.3 82.9034ZM529.084 78.3693V77.9091C529.084 77.5909 529.149 77.2997 529.28 77.0355C529.413 76.7685 529.607 76.5554 529.859 76.3963C530.115 76.2344 530.425 76.1534 530.788 76.1534C531.158 76.1534 531.467 76.2344 531.717 76.3963C531.967 76.5554 532.156 76.7685 532.284 77.0355C532.412 77.2997 532.476 77.5909 532.476 77.9091V78.3693C532.476 78.6875 532.411 78.9801 532.28 79.2472C532.152 79.5114 531.962 79.7244 531.709 79.8864C531.459 80.0455 531.152 80.125 530.788 80.125C530.419 80.125 530.108 80.0455 529.855 79.8864C529.602 79.7244 529.411 79.5114 529.28 79.2472C529.149 78.9801 529.084 78.6875 529.084 78.3693ZM529.953 77.9091V78.3693C529.953 78.6335 530.016 78.8707 530.141 79.081C530.266 79.2884 530.482 79.392 530.788 79.392C531.087 79.392 531.297 79.2884 531.419 79.081C531.544 78.8707 531.607 78.6335 531.607 78.3693V77.9091C531.607 77.6449 531.547 77.4091 531.428 77.2017C531.308 76.9915 531.095 76.8864 530.788 76.8864C530.49 76.8864 530.276 76.9915 530.145 77.2017C530.017 77.4091 529.953 77.6449 529.953 77.9091ZM529.408 85L535.408 76.2727H536.379L530.379 85H529.408Z" fill="black"/>
<rect x="502" y="116" width="49" height="46" rx="5" fill="#FFC24D"/>
<path d="M518.972 135.273V144H517.915V136.381H517.864L515.733 137.795V136.722L517.915 135.273H518.972ZM524.328 144.119C523.686 144.119 523.139 143.945 522.688 143.595C522.236 143.243 521.891 142.733 521.652 142.065C521.413 141.395 521.294 140.585 521.294 139.636C521.294 138.693 521.413 137.888 521.652 137.22C521.893 136.55 522.24 136.038 522.692 135.686C523.146 135.331 523.692 135.153 524.328 135.153C524.964 135.153 525.509 135.331 525.96 135.686C526.415 136.038 526.761 136.55 527 137.22C527.241 137.888 527.362 138.693 527.362 139.636C527.362 140.585 527.243 141.395 527.004 142.065C526.766 142.733 526.42 143.243 525.969 143.595C525.517 143.945 524.97 144.119 524.328 144.119ZM524.328 143.182C524.964 143.182 525.459 142.875 525.811 142.261C526.163 141.648 526.339 140.773 526.339 139.636C526.339 138.881 526.259 138.237 526.097 137.706C525.938 137.175 525.707 136.77 525.406 136.491C525.108 136.213 524.749 136.074 524.328 136.074C523.697 136.074 523.205 136.385 522.849 137.007C522.494 137.626 522.317 138.503 522.317 139.636C522.317 140.392 522.396 141.034 522.555 141.562C522.714 142.091 522.943 142.493 523.241 142.768C523.543 143.044 523.905 143.182 524.328 143.182ZM533.43 142.364V141.903C533.43 141.585 533.496 141.294 533.626 141.03C533.76 140.763 533.953 140.55 534.206 140.391C534.462 140.229 534.771 140.148 535.135 140.148C535.504 140.148 535.814 140.229 536.064 140.391C536.314 140.55 536.503 140.763 536.631 141.03C536.759 141.294 536.822 141.585 536.822 141.903V142.364C536.822 142.682 536.757 142.974 536.626 143.241C536.499 143.506 536.308 143.719 536.055 143.881C535.805 144.04 535.499 144.119 535.135 144.119C534.766 144.119 534.455 144.04 534.202 143.881C533.949 143.719 533.757 143.506 533.626 143.241C533.496 142.974 533.43 142.682 533.43 142.364ZM534.3 141.903V142.364C534.3 142.628 534.362 142.865 534.487 143.075C534.612 143.283 534.828 143.386 535.135 143.386C535.433 143.386 535.643 143.283 535.766 143.075C535.891 142.865 535.953 142.628 535.953 142.364V141.903C535.953 141.639 535.893 141.403 535.774 141.196C535.655 140.986 535.442 140.881 535.135 140.881C534.837 140.881 534.622 140.986 534.491 141.196C534.364 141.403 534.3 141.639 534.3 141.903ZM529.084 137.369V136.909C529.084 136.591 529.149 136.3 529.28 136.036C529.413 135.768 529.607 135.555 529.859 135.396C530.115 135.234 530.425 135.153 530.788 135.153C531.158 135.153 531.467 135.234 531.717 135.396C531.967 135.555 532.156 135.768 532.284 136.036C532.412 136.3 532.476 136.591 532.476 136.909V137.369C532.476 137.687 532.411 137.98 532.28 138.247C532.152 138.511 531.962 138.724 531.709 138.886C531.459 139.045 531.152 139.125 530.788 139.125C530.419 139.125 530.108 139.045 529.855 138.886C529.602 138.724 529.411 138.511 529.28 138.247C529.149 137.98 529.084 137.687 529.084 137.369ZM529.953 136.909V137.369C529.953 137.634 530.016 137.871 530.141 138.081C530.266 138.288 530.482 138.392 530.788 138.392C531.087 138.392 531.297 138.288 531.419 138.081C531.544 137.871 531.607 137.634 531.607 137.369V136.909C531.607 136.645 531.547 136.409 531.428 136.202C531.308 135.991 531.095 135.886 530.788 135.886C530.49 135.886 530.276 135.991 530.145 136.202C530.017 136.409 529.953 136.645 529.953 136.909ZM529.408 144L535.408 135.273H536.379L530.379 144H529.408Z" fill="black"/>
<rect x="433" y="116" width="49" height="46" rx="5" fill="#CACACA"/>
<path d="M449.972 135.273V144H448.915V136.381H448.864L446.733 137.795V136.722L448.915 135.273H449.972ZM455.328 144.119C454.686 144.119 454.139 143.945 453.688 143.595C453.236 143.243 452.891 142.733 452.652 142.065C452.413 141.395 452.294 140.585 452.294 139.636C452.294 138.693 452.413 137.888 452.652 137.22C452.893 136.55 453.24 136.038 453.692 135.686C454.146 135.331 454.692 135.153 455.328 135.153C455.964 135.153 456.509 135.331 456.96 135.686C457.415 136.038 457.761 136.55 458 137.22C458.241 137.888 458.362 138.693 458.362 139.636C458.362 140.585 458.243 141.395 458.004 142.065C457.766 142.733 457.42 143.243 456.969 143.595C456.517 143.945 455.97 144.119 455.328 144.119ZM455.328 143.182C455.964 143.182 456.459 142.875 456.811 142.261C457.163 141.648 457.339 140.773 457.339 139.636C457.339 138.881 457.259 138.237 457.097 137.706C456.938 137.175 456.707 136.77 456.406 136.491C456.108 136.213 455.749 136.074 455.328 136.074C454.697 136.074 454.205 136.385 453.849 137.007C453.494 137.626 453.317 138.503 453.317 139.636C453.317 140.392 453.396 141.034 453.555 141.562C453.714 142.091 453.943 142.493 454.241 142.768C454.543 143.044 454.905 143.182 455.328 143.182ZM464.43 142.364V141.903C464.43 141.585 464.496 141.294 464.626 141.03C464.76 140.763 464.953 140.55 465.206 140.391C465.462 140.229 465.771 140.148 466.135 140.148C466.504 140.148 466.814 140.229 467.064 140.391C467.314 140.55 467.503 140.763 467.631 141.03C467.759 141.294 467.822 141.585 467.822 141.903V142.364C467.822 142.682 467.757 142.974 467.626 143.241C467.499 143.506 467.308 143.719 467.055 143.881C466.805 144.04 466.499 144.119 466.135 144.119C465.766 144.119 465.455 144.04 465.202 143.881C464.949 143.719 464.757 143.506 464.626 143.241C464.496 142.974 464.43 142.682 464.43 142.364ZM465.3 141.903V142.364C465.3 142.628 465.362 142.865 465.487 143.075C465.612 143.283 465.828 143.386 466.135 143.386C466.433 143.386 466.643 143.283 466.766 143.075C466.891 142.865 466.953 142.628 466.953 142.364V141.903C466.953 141.639 466.893 141.403 466.774 141.196C466.655 140.986 466.442 140.881 466.135 140.881C465.837 140.881 465.622 140.986 465.491 141.196C465.364 141.403 465.3 141.639 465.3 141.903ZM460.084 137.369V136.909C460.084 136.591 460.149 136.3 460.28 136.036C460.413 135.768 460.607 135.555 460.859 135.396C461.115 135.234 461.425 135.153 461.788 135.153C462.158 135.153 462.467 135.234 462.717 135.396C462.967 135.555 463.156 135.768 463.284 136.036C463.412 136.3 463.476 136.591 463.476 136.909V137.369C463.476 137.687 463.411 137.98 463.28 138.247C463.152 138.511 462.962 138.724 462.709 138.886C462.459 139.045 462.152 139.125 461.788 139.125C461.419 139.125 461.108 139.045 460.855 138.886C460.602 138.724 460.411 138.511 460.28 138.247C460.149 137.98 460.084 137.687 460.084 137.369ZM460.953 136.909V137.369C460.953 137.634 461.016 137.871 461.141 138.081C461.266 138.288 461.482 138.392 461.788 138.392C462.087 138.392 462.297 138.288 462.419 138.081C462.544 137.871 462.607 137.634 462.607 137.369V136.909C462.607 136.645 462.547 136.409 462.428 136.202C462.308 135.991 462.095 135.886 461.788 135.886C461.49 135.886 461.276 135.991 461.145 136.202C461.017 136.409 460.953 136.645 460.953 136.909ZM460.408 144L466.408 135.273H467.379L461.379 144H460.408Z" fill="black"/>
<rect x="289" y="116" width="49" height="46" rx="5" fill="#FFC24D"/>
<path d="M305.972 135.273V144H304.915V136.381H304.864L302.733 137.795V136.722L304.915 135.273H305.972ZM311.328 144.119C310.686 144.119 310.139 143.945 309.688 143.595C309.236 143.243 308.891 142.733 308.652 142.065C308.413 141.395 308.294 140.585 308.294 139.636C308.294 138.693 308.413 137.888 308.652 137.22C308.893 136.55 309.24 136.038 309.692 135.686C310.146 135.331 310.692 135.153 311.328 135.153C311.964 135.153 312.509 135.331 312.96 135.686C313.415 136.038 313.761 136.55 314 137.22C314.241 137.888 314.362 138.693 314.362 139.636C314.362 140.585 314.243 141.395 314.004 142.065C313.766 142.733 313.42 143.243 312.969 143.595C312.517 143.945 311.97 144.119 311.328 144.119ZM311.328 143.182C311.964 143.182 312.459 142.875 312.811 142.261C313.163 141.648 313.339 140.773 313.339 139.636C313.339 138.881 313.259 138.237 313.097 137.706C312.938 137.175 312.707 136.77 312.406 136.491C312.108 136.213 311.749 136.074 311.328 136.074C310.697 136.074 310.205 136.385 309.849 137.007C309.494 137.626 309.317 138.503 309.317 139.636C309.317 140.392 309.396 141.034 309.555 141.562C309.714 142.091 309.943 142.493 310.241 142.768C310.543 143.044 310.905 143.182 311.328 143.182ZM320.43 142.364V141.903C320.43 141.585 320.496 141.294 320.626 141.03C320.76 140.763 320.953 140.55 321.206 140.391C321.462 140.229 321.771 140.148 322.135 140.148C322.504 140.148 322.814 140.229 323.064 140.391C323.314 140.55 323.503 140.763 323.631 141.03C323.759 141.294 323.822 141.585 323.822 141.903V142.364C323.822 142.682 323.757 142.974 323.626 143.241C323.499 143.506 323.308 143.719 323.055 143.881C322.805 144.04 322.499 144.119 322.135 144.119C321.766 144.119 321.455 144.04 321.202 143.881C320.949 143.719 320.757 143.506 320.626 143.241C320.496 142.974 320.43 142.682 320.43 142.364ZM321.3 141.903V142.364C321.3 142.628 321.362 142.865 321.487 143.075C321.612 143.283 321.828 143.386 322.135 143.386C322.433 143.386 322.643 143.283 322.766 143.075C322.891 142.865 322.953 142.628 322.953 142.364V141.903C322.953 141.639 322.893 141.403 322.774 141.196C322.655 140.986 322.442 140.881 322.135 140.881C321.837 140.881 321.622 140.986 321.491 141.196C321.364 141.403 321.3 141.639 321.3 141.903ZM316.084 137.369V136.909C316.084 136.591 316.149 136.3 316.28 136.036C316.413 135.768 316.607 135.555 316.859 135.396C317.115 135.234 317.425 135.153 317.788 135.153C318.158 135.153 318.467 135.234 318.717 135.396C318.967 135.555 319.156 135.768 319.284 136.036C319.412 136.3 319.476 136.591 319.476 136.909V137.369C319.476 137.687 319.411 137.98 319.28 138.247C319.152 138.511 318.962 138.724 318.709 138.886C318.459 139.045 318.152 139.125 317.788 139.125C317.419 139.125 317.108 139.045 316.855 138.886C316.602 138.724 316.411 138.511 316.28 138.247C316.149 137.98 316.084 137.687 316.084 137.369ZM316.953 136.909V137.369C316.953 137.634 317.016 137.871 317.141 138.081C317.266 138.288 317.482 138.392 317.788 138.392C318.087 138.392 318.297 138.288 318.419 138.081C318.544 137.871 318.607 137.634 318.607 137.369V136.909C318.607 136.645 318.547 136.409 318.428 136.202C318.308 135.991 318.095 135.886 317.788 135.886C317.49 135.886 317.276 135.991 317.145 136.202C317.017 136.409 316.953 136.645 316.953 136.909ZM316.408 144L322.408 135.273H323.379L317.379 144H316.408Z" fill="black"/>
<rect x="232" y="116" width="49" height="46" rx="5" fill="#CACACA"/>
<path d="M248.972 135.273V144H247.915V136.381H247.864L245.733 137.795V136.722L247.915 135.273H248.972ZM254.328 144.119C253.686 144.119 253.139 143.945 252.688 143.595C252.236 143.243 251.891 142.733 251.652 142.065C251.413 141.395 251.294 140.585 251.294 139.636C251.294 138.693 251.413 137.888 251.652 137.22C251.893 136.55 252.24 136.038 252.692 135.686C253.146 135.331 253.692 135.153 254.328 135.153C254.964 135.153 255.509 135.331 255.96 135.686C256.415 136.038 256.761 136.55 257 137.22C257.241 137.888 257.362 138.693 257.362 139.636C257.362 140.585 257.243 141.395 257.004 142.065C256.766 142.733 256.42 143.243 255.969 143.595C255.517 143.945 254.97 144.119 254.328 144.119ZM254.328 143.182C254.964 143.182 255.459 142.875 255.811 142.261C256.163 141.648 256.339 140.773 256.339 139.636C256.339 138.881 256.259 138.237 256.097 137.706C255.938 137.175 255.707 136.77 255.406 136.491C255.108 136.213 254.749 136.074 254.328 136.074C253.697 136.074 253.205 136.385 252.849 137.007C252.494 137.626 252.317 138.503 252.317 139.636C252.317 140.392 252.396 141.034 252.555 141.562C252.714 142.091 252.943 142.493 253.241 142.768C253.543 143.044 253.905 143.182 254.328 143.182ZM263.43 142.364V141.903C263.43 141.585 263.496 141.294 263.626 141.03C263.76 140.763 263.953 140.55 264.206 140.391C264.462 140.229 264.771 140.148 265.135 140.148C265.504 140.148 265.814 140.229 266.064 140.391C266.314 140.55 266.503 140.763 266.631 141.03C266.759 141.294 266.822 141.585 266.822 141.903V142.364C266.822 142.682 266.757 142.974 266.626 143.241C266.499 143.506 266.308 143.719 266.055 143.881C265.805 144.04 265.499 144.119 265.135 144.119C264.766 144.119 264.455 144.04 264.202 143.881C263.949 143.719 263.757 143.506 263.626 143.241C263.496 142.974 263.43 142.682 263.43 142.364ZM264.3 141.903V142.364C264.3 142.628 264.362 142.865 264.487 143.075C264.612 143.283 264.828 143.386 265.135 143.386C265.433 143.386 265.643 143.283 265.766 143.075C265.891 142.865 265.953 142.628 265.953 142.364V141.903C265.953 141.639 265.893 141.403 265.774 141.196C265.655 140.986 265.442 140.881 265.135 140.881C264.837 140.881 264.622 140.986 264.491 141.196C264.364 141.403 264.3 141.639 264.3 141.903ZM259.084 137.369V136.909C259.084 136.591 259.149 136.3 259.28 136.036C259.413 135.768 259.607 135.555 259.859 135.396C260.115 135.234 260.425 135.153 260.788 135.153C261.158 135.153 261.467 135.234 261.717 135.396C261.967 135.555 262.156 135.768 262.284 136.036C262.412 136.3 262.476 136.591 262.476 136.909V137.369C262.476 137.687 262.411 137.98 262.28 138.247C262.152 138.511 261.962 138.724 261.709 138.886C261.459 139.045 261.152 139.125 260.788 139.125C260.419 139.125 260.108 139.045 259.855 138.886C259.602 138.724 259.411 138.511 259.28 138.247C259.149 137.98 259.084 137.687 259.084 137.369ZM259.953 136.909V137.369C259.953 137.634 260.016 137.871 260.141 138.081C260.266 138.288 260.482 138.392 260.788 138.392C261.087 138.392 261.297 138.288 261.419 138.081C261.544 137.871 261.607 137.634 261.607 137.369V136.909C261.607 136.645 261.547 136.409 261.428 136.202C261.308 135.991 261.095 135.886 260.788 135.886C260.49 135.886 260.276 135.991 260.145 136.202C260.017 136.409 259.953 136.645 259.953 136.909ZM259.408 144L265.408 135.273H266.379L260.379 144H259.408Z" fill="black"/>
<path d="M591.327 22H590.392C590.322 21.652 590.196 21.3305 590.014 21.0355C589.835 20.7372 589.61 20.477 589.338 20.255C589.066 20.0329 588.758 19.8606 588.413 19.7379C588.069 19.6153 587.696 19.554 587.295 19.554C586.652 19.554 586.065 19.7214 585.535 20.0561C585.008 20.3909 584.585 20.883 584.267 21.5327C583.952 22.179 583.795 22.9711 583.795 23.9091C583.795 24.8537 583.952 25.6491 584.267 26.2955C584.585 26.9418 585.008 27.4323 585.535 27.767C586.065 28.0985 586.652 28.2642 587.295 28.2642C587.696 28.2642 588.069 28.2029 588.413 28.0803C588.758 27.9576 589.066 27.7869 589.338 27.5682C589.61 27.3461 589.835 27.0859 590.014 26.7876C590.196 26.4893 590.322 26.1662 590.392 25.8182H591.327C591.244 26.2855 591.088 26.7214 590.859 27.1257C590.634 27.5268 590.346 27.8781 589.994 28.1797C589.646 28.4813 589.245 28.7166 588.791 28.8857C588.337 29.0547 587.838 29.1392 587.295 29.1392C586.44 29.1392 585.681 28.9254 585.018 28.4979C584.355 28.067 583.835 27.4605 583.457 26.6783C583.082 25.8961 582.895 24.973 582.895 23.9091C582.895 22.8452 583.082 21.9221 583.457 21.1399C583.835 20.3577 584.355 19.7528 585.018 19.3253C585.681 18.8944 586.44 18.679 587.295 18.679C587.838 18.679 588.337 18.7635 588.791 18.9325C589.245 19.0982 589.646 19.3336 589.994 19.6385C590.346 19.9401 590.634 20.2914 590.859 20.6925C591.088 21.0935 591.244 21.5294 591.327 22ZM596.295 29.1591C595.635 29.1591 595.052 28.9917 594.545 28.657C594.041 28.3222 593.646 27.8598 593.361 27.2699C593.076 26.6766 592.934 25.9922 592.934 25.2166C592.934 24.4344 593.076 23.7467 593.361 23.1534C593.646 22.5568 594.041 22.0928 594.545 21.7614C595.052 21.4266 595.635 21.2592 596.295 21.2592C596.954 21.2592 597.536 21.4266 598.04 21.7614C598.543 22.0961 598.938 22.5601 599.223 23.1534C599.511 23.7467 599.655 24.4344 599.655 25.2166C599.655 25.9922 599.513 26.6766 599.228 27.2699C598.943 27.8598 598.547 28.3222 598.04 28.657C597.536 28.9917 596.954 29.1591 596.295 29.1591ZM596.295 28.3487C596.825 28.3487 597.274 28.2062 597.642 27.9212C598.01 27.6361 598.288 27.2566 598.477 26.7827C598.669 26.3087 598.765 25.7867 598.765 25.2166C598.765 24.6465 598.669 24.1229 598.477 23.6456C598.288 23.1683 598.01 22.7855 597.642 22.4972C597.274 22.2088 596.825 22.0646 596.295 22.0646C595.768 22.0646 595.318 22.2088 594.947 22.4972C594.579 22.7855 594.299 23.1683 594.107 23.6456C593.918 24.1229 593.824 24.6465 593.824 25.2166C593.824 25.7867 593.918 26.3087 594.107 26.7827C594.299 27.2566 594.579 27.6361 594.947 27.9212C595.315 28.2062 595.764 28.3487 596.295 28.3487ZM601.598 29V21.3636H602.458V22.5369H602.538C602.69 22.1425 602.944 21.8326 603.298 21.6072C603.656 21.3786 604.085 21.2642 604.586 21.2642C605.113 21.2642 605.545 21.3885 605.884 21.6371C606.225 21.8823 606.48 22.2204 606.649 22.6513H606.714C606.886 22.227 607.166 21.8906 607.554 21.642C607.945 21.3902 608.419 21.2642 608.976 21.2642C609.685 21.2642 610.245 21.4879 610.656 21.9354C611.067 22.3795 611.273 23.0291 611.273 23.8842V29H610.388V23.8842C610.388 23.281 610.234 22.8286 609.925 22.527C609.617 22.2254 609.211 22.0746 608.707 22.0746C608.124 22.0746 607.675 22.2536 607.36 22.6115C607.045 22.9695 606.888 23.4235 606.888 23.9737V29H605.983V23.8047C605.983 23.2876 605.839 22.87 605.55 22.5518C605.262 22.2337 604.856 22.0746 604.332 22.0746C603.981 22.0746 603.665 22.1607 603.383 22.3331C603.104 22.5054 602.884 22.7457 602.722 23.054C602.563 23.3589 602.483 23.7102 602.483 24.108V29H601.598ZM613.616 29V21.3636H614.476V22.5369H614.555C614.708 22.1425 614.961 21.8326 615.316 21.6072C615.674 21.3786 616.103 21.2642 616.604 21.2642C617.131 21.2642 617.563 21.3885 617.901 21.6371C618.242 21.8823 618.498 22.2204 618.667 22.6513H618.731C618.904 22.227 619.184 21.8906 619.572 21.642C619.963 21.3902 620.437 21.2642 620.993 21.2642C621.703 21.2642 622.263 21.4879 622.674 21.9354C623.085 22.3795 623.29 23.0291 623.29 23.8842V29H622.405V23.8842C622.405 23.281 622.251 22.8286 621.943 22.527C621.635 22.2254 621.229 22.0746 620.725 22.0746C620.142 22.0746 619.693 22.2536 619.378 22.6115C619.063 22.9695 618.905 23.4235 618.905 23.9737V29H618.001V23.8047C618.001 23.2876 617.856 22.87 617.568 22.5518C617.28 22.2337 616.874 22.0746 616.35 22.0746C615.999 22.0746 615.682 22.1607 615.4 22.3331C615.122 22.5054 614.902 22.7457 614.739 23.054C614.58 23.3589 614.501 23.7102 614.501 24.108V29H613.616ZM630.485 26.0817V21.3636H631.37V29H630.485V27.7322H630.416C630.237 28.1233 629.953 28.4498 629.566 28.7116C629.178 28.9702 628.704 29.0994 628.144 29.0994C627.657 29.0994 627.224 28.9934 626.846 28.7812C626.468 28.5658 626.172 28.2509 625.956 27.8366C625.741 27.4223 625.633 26.9136 625.633 26.3104V21.3636H626.518V26.2557C626.518 26.8523 626.694 27.3329 627.045 27.6974C627.396 28.0587 627.847 28.2393 628.397 28.2393C628.742 28.2393 629.074 28.1565 629.392 27.9908C629.71 27.825 629.972 27.5831 630.177 27.2649C630.383 26.9434 630.485 26.549 630.485 26.0817ZM634.598 24.2273V29H633.713V21.3636H634.573V22.5618H634.653C634.832 22.1707 635.11 21.8575 635.488 21.6222C635.869 21.3835 636.34 21.2642 636.9 21.2642C637.414 21.2642 637.865 21.3719 638.252 21.5874C638.643 21.7995 638.947 22.1127 639.162 22.527C639.381 22.9413 639.49 23.45 639.49 24.0533V29H638.605V24.108C638.605 23.4815 638.43 22.986 638.078 22.6214C637.73 22.2569 637.263 22.0746 636.676 22.0746C636.275 22.0746 635.919 22.1607 635.607 22.3331C635.296 22.5054 635.049 22.754 634.867 23.0788C634.688 23.4003 634.598 23.7831 634.598 24.2273ZM641.831 29V21.3636H642.721V29H641.831ZM642.283 20.0511C642.101 20.0511 641.945 19.9898 641.816 19.8672C641.686 19.7412 641.622 19.5904 641.622 19.4148C641.622 19.2391 641.686 19.09 641.816 18.9673C641.945 18.8414 642.101 18.7784 642.283 18.7784C642.465 18.7784 642.621 18.8414 642.75 18.9673C642.88 19.09 642.944 19.2391 642.944 19.4148C642.944 19.5904 642.88 19.7412 642.75 19.8672C642.621 19.9898 642.465 20.0511 642.283 20.0511ZM648.069 21.3636V22.1342H644.425V21.3636H648.069ZM645.563 19.5341H646.453V27.0064C646.453 27.3246 646.508 27.5748 646.617 27.7571C646.726 27.9361 646.869 28.0637 647.045 28.1399C647.22 28.2128 647.407 28.2493 647.606 28.2493C647.722 28.2493 647.822 28.2427 647.905 28.2294C647.988 28.2128 648.06 28.1963 648.123 28.1797L648.312 28.9801C648.226 29.0133 648.12 29.0431 647.994 29.0696C647.868 29.0994 647.712 29.1143 647.527 29.1143C647.202 29.1143 646.889 29.0431 646.587 28.9006C646.289 28.758 646.044 28.5459 645.851 28.2642C645.659 27.9825 645.563 27.6328 645.563 27.2152V19.5341ZM650.695 31.8636C650.519 31.8636 650.355 31.8471 650.203 31.8139C650.05 31.7808 649.929 31.7443 649.84 31.7045L650.078 30.924C650.38 31.0168 650.649 31.05 650.884 31.0234C651.119 31.0002 651.328 30.8942 651.51 30.7053C651.693 30.5196 651.855 30.2346 651.998 29.8501L652.276 29.0746L649.467 21.3636H650.426L652.694 27.8317H652.763L655.03 21.3636H655.99L652.758 30.2081C652.622 30.576 652.455 30.8826 652.256 31.1278C652.057 31.3764 651.827 31.5604 651.565 31.6797C651.306 31.8023 651.016 31.8636 650.695 31.8636Z" fill="#333333"/>
<path d="M590.138 71.8182H591.068V78.5597C591.068 79.2524 590.906 79.8722 590.581 80.419C590.256 80.9626 589.804 81.3918 589.224 81.7067C588.647 82.0182 587.976 82.174 587.21 82.174C586.448 82.174 585.777 82.0166 585.197 81.7017C584.617 81.3868 584.164 80.9576 583.839 80.4141C583.515 79.8705 583.352 79.2524 583.352 78.5597V71.8182H584.282V78.495C584.282 79.0353 584.403 79.5175 584.645 79.9418C584.887 80.3627 585.227 80.6941 585.664 80.9361C586.105 81.178 586.62 81.299 587.21 81.299C587.8 81.299 588.316 81.178 588.756 80.9361C589.197 80.6941 589.537 80.3627 589.776 79.9418C590.018 79.5175 590.138 79.0353 590.138 78.495V71.8182ZM598.717 76.0391L597.907 76.2678C597.827 76.0391 597.714 75.8319 597.569 75.6463C597.423 75.4607 597.232 75.3132 596.997 75.2038C596.765 75.0945 596.476 75.0398 596.132 75.0398C595.615 75.0398 595.19 75.1624 594.859 75.4077C594.528 75.6529 594.362 75.9695 594.362 76.3572C594.362 76.6854 594.475 76.9522 594.7 77.1577C594.929 77.3598 595.28 77.5206 595.754 77.6399L596.907 77.9233C597.547 78.0791 598.026 78.326 598.344 78.6641C598.666 79.0021 598.826 79.4264 598.826 79.9368C598.826 80.3677 598.707 80.7505 598.468 81.0852C598.23 81.42 597.897 81.6835 597.469 81.8757C597.045 82.0646 596.553 82.1591 595.993 82.1591C595.247 82.1591 594.632 81.9917 594.148 81.657C593.664 81.3189 593.354 80.8317 593.218 80.1953L594.069 79.9865C594.178 80.4406 594.392 80.7836 594.71 81.0156C595.031 81.2476 595.454 81.3636 595.978 81.3636C596.564 81.3636 597.033 81.2327 597.385 80.9709C597.736 80.7057 597.912 80.3743 597.912 79.9766C597.912 79.6683 597.809 79.4098 597.603 79.201C597.398 78.9889 597.086 78.8331 596.669 78.7337L595.421 78.4354C594.758 78.2763 594.267 78.0244 593.949 77.6797C593.631 77.335 593.472 76.9074 593.472 76.397C593.472 75.9761 593.586 75.6065 593.815 75.2884C594.044 74.9669 594.359 74.715 594.76 74.5327C595.161 74.3504 595.618 74.2592 596.132 74.2592C596.831 74.2592 597.39 74.4183 597.807 74.7365C598.228 75.0514 598.531 75.4856 598.717 76.0391ZM603.851 82.1591C603.139 82.1591 602.522 81.9934 602.002 81.6619C601.482 81.3272 601.079 80.8648 600.794 80.2749C600.512 79.6816 600.371 78.9988 600.371 78.2266C600.371 77.4576 600.512 76.7749 600.794 76.1783C601.079 75.5784 601.472 75.1094 601.972 74.7713C602.476 74.4299 603.058 74.2592 603.717 74.2592C604.131 74.2592 604.531 74.3355 604.915 74.4879C605.3 74.6371 605.644 74.8674 605.949 75.179C606.258 75.4872 606.501 75.8767 606.68 76.3473C606.859 76.8146 606.949 77.3681 606.949 78.0078V78.4453H600.983V77.6648H606.044C606.044 77.1742 605.944 76.7334 605.746 76.3423C605.55 75.9479 605.277 75.6364 604.925 75.4077C604.577 75.179 604.175 75.0646 603.717 75.0646C603.233 75.0646 602.807 75.1939 602.439 75.4524C602.072 75.7109 601.783 76.0523 601.574 76.4766C601.369 76.9008 601.265 77.3648 601.261 77.8686V78.3359C601.261 78.9425 601.366 79.4728 601.574 79.9268C601.787 80.3776 602.086 80.7273 602.474 80.9759C602.862 81.2244 603.321 81.3487 603.851 81.3487C604.213 81.3487 604.529 81.2924 604.801 81.1797C605.076 81.067 605.306 80.9162 605.492 80.7273C605.681 80.535 605.823 80.3246 605.92 80.0959L606.76 80.3693C606.644 80.6908 606.453 80.9875 606.188 81.2592C605.926 81.531 605.598 81.7498 605.204 81.9155C604.813 82.0779 604.362 82.1591 603.851 82.1591ZM608.899 82V74.3636H609.759V75.5369H609.824C609.976 75.1525 610.241 74.8426 610.619 74.6072C611 74.3686 611.431 74.2493 611.912 74.2493C611.984 74.2493 612.066 74.2509 612.155 74.2543C612.245 74.2576 612.319 74.2609 612.379 74.2642V75.1641C612.339 75.1574 612.27 75.1475 612.17 75.1342C612.071 75.121 611.963 75.1143 611.847 75.1143C611.449 75.1143 611.095 75.1989 610.783 75.3679C610.475 75.5336 610.231 75.764 610.052 76.0589C609.873 76.3539 609.784 76.6903 609.784 77.0682V82H608.899ZM619.02 76.0391L618.209 76.2678C618.13 76.0391 618.017 75.8319 617.871 75.6463C617.725 75.4607 617.535 75.3132 617.3 75.2038C617.068 75.0945 616.779 75.0398 616.434 75.0398C615.917 75.0398 615.493 75.1624 615.162 75.4077C614.83 75.6529 614.665 75.9695 614.665 76.3572C614.665 76.6854 614.777 76.9522 615.003 77.1577C615.231 77.3598 615.583 77.5206 616.057 77.6399L617.21 77.9233C617.85 78.0791 618.329 78.326 618.647 78.6641C618.968 79.0021 619.129 79.4264 619.129 79.9368C619.129 80.3677 619.01 80.7505 618.771 81.0852C618.532 81.42 618.199 81.6835 617.772 81.8757C617.348 82.0646 616.855 82.1591 616.295 82.1591C615.55 82.1591 614.935 81.9917 614.451 81.657C613.967 81.3189 613.657 80.8317 613.521 80.1953L614.371 79.9865C614.481 80.4406 614.694 80.7836 615.013 81.0156C615.334 81.2476 615.757 81.3636 616.28 81.3636C616.867 81.3636 617.336 81.2327 617.687 80.9709C618.039 80.7057 618.214 80.3743 618.214 79.9766C618.214 79.6683 618.112 79.4098 617.906 79.201C617.701 78.9889 617.389 78.8331 616.971 78.7337L615.724 78.4354C615.061 78.2763 614.57 78.0244 614.252 77.6797C613.934 77.335 613.775 76.9074 613.775 76.397C613.775 75.9761 613.889 75.6065 614.118 75.2884C614.346 74.9669 614.661 74.715 615.062 74.5327C615.463 74.3504 615.921 74.2592 616.434 74.2592C617.134 74.2592 617.692 74.4183 618.11 74.7365C618.531 75.0514 618.834 75.4856 619.02 76.0391ZM625.203 82H624.229L627.933 71.8182H628.927L632.631 82H631.656L628.464 73.0263H628.395L625.203 82ZM625.904 78.0973H630.955V78.9325H625.904V78.0973ZM635.663 80.608L635.574 81.1399C635.518 81.4979 635.438 81.8923 635.335 82.3232C635.232 82.754 635.126 83.1634 635.017 83.5511C634.908 83.9389 634.813 84.2505 634.734 84.4858H634.053C634.096 84.2604 634.15 83.9737 634.217 83.6257C634.286 83.2777 634.357 82.8916 634.43 82.4673C634.503 82.0464 634.57 81.6122 634.629 81.1648L634.699 80.608H635.663ZM642.128 82V71.8182H645.563C646.226 71.8182 646.778 71.9342 647.219 72.1662C647.663 72.3982 647.996 72.7147 648.218 73.1158C648.44 73.5168 648.551 73.9725 648.551 74.483C648.551 74.9072 648.48 75.2701 648.337 75.5717C648.195 75.8733 648.001 76.117 647.756 76.3026C647.51 76.4882 647.237 76.6224 646.935 76.7053V76.7848C647.263 76.808 647.581 76.924 647.89 77.1328C648.198 77.3383 648.452 77.6267 648.65 77.9979C648.849 78.3691 648.949 78.8132 648.949 79.3303C648.949 79.844 648.834 80.303 648.606 80.7074C648.377 81.1084 648.026 81.425 647.552 81.657C647.081 81.8857 646.481 82 645.752 82H642.128ZM643.057 81.1648H645.752C646.537 81.1648 647.117 80.9908 647.492 80.6428C647.87 80.2947 648.059 79.8572 648.059 79.3303C648.059 78.9425 647.964 78.5911 647.775 78.2763C647.59 77.9581 647.326 77.7062 646.985 77.5206C646.647 77.335 646.249 77.2422 645.792 77.2422H643.057V81.1648ZM643.057 76.4169H645.648C646.049 76.4169 646.4 76.334 646.702 76.1683C647.003 76.0026 647.238 75.7739 647.407 75.4822C647.577 75.1906 647.661 74.8575 647.661 74.483C647.661 73.9427 647.485 73.5036 647.134 73.1655C646.783 72.8241 646.259 72.6534 645.563 72.6534H643.057V76.4169ZM652.48 80.608L652.39 81.1399C652.334 81.4979 652.254 81.8923 652.152 82.3232C652.049 82.754 651.943 83.1634 651.833 83.5511C651.724 83.9389 651.63 84.2505 651.55 84.4858H650.869C650.912 84.2604 650.967 83.9737 651.033 83.6257C651.103 83.2777 651.174 82.8916 651.247 82.4673C651.32 82.0464 651.386 81.6122 651.446 81.1648L651.515 80.608H652.48ZM666.919 75H665.984C665.914 74.652 665.788 74.3305 665.606 74.0355C665.427 73.7372 665.202 73.477 664.93 73.255C664.658 73.0329 664.35 72.8606 664.005 72.7379C663.66 72.6153 663.288 72.554 662.887 72.554C662.244 72.554 661.657 72.7214 661.127 73.0561C660.6 73.3909 660.177 73.883 659.859 74.5327C659.544 75.179 659.387 75.9711 659.387 76.9091C659.387 77.8537 659.544 78.6491 659.859 79.2955C660.177 79.9418 660.6 80.4323 661.127 80.767C661.657 81.0985 662.244 81.2642 662.887 81.2642C663.288 81.2642 663.66 81.2029 664.005 81.0803C664.35 80.9576 664.658 80.7869 664.93 80.5682C665.202 80.3461 665.427 80.0859 665.606 79.7876C665.788 79.4893 665.914 79.1662 665.984 78.8182H666.919C666.836 79.2855 666.68 79.7214 666.451 80.1257C666.226 80.5268 665.937 80.8781 665.586 81.1797C665.238 81.4813 664.837 81.7166 664.383 81.8857C663.929 82.0547 663.43 82.1392 662.887 82.1392C662.031 82.1392 661.272 81.9254 660.61 81.4979C659.947 81.067 659.426 80.4605 659.048 79.6783C658.674 78.8961 658.487 77.973 658.487 76.9091C658.487 75.8452 658.674 74.9221 659.048 74.1399C659.426 73.3577 659.947 72.7528 660.61 72.3253C661.272 71.8944 662.031 71.679 662.887 71.679C663.43 71.679 663.929 71.7635 664.383 71.9325C664.837 72.0982 665.238 72.3336 665.586 72.6385C665.937 72.9401 666.226 73.2914 666.451 73.6925C666.68 74.0935 666.836 74.5294 666.919 75Z" fill="#333333"/>
<path d="M581.736 130.653V129.818H589.119V130.653H585.892V140H584.962V130.653H581.736ZM592.888 140.159C592.229 140.159 591.645 139.992 591.138 139.657C590.635 139.322 590.24 138.86 589.955 138.27C589.67 137.677 589.528 136.992 589.528 136.217C589.528 135.434 589.67 134.747 589.955 134.153C590.24 133.557 590.635 133.093 591.138 132.761C591.645 132.427 592.229 132.259 592.888 132.259C593.548 132.259 594.13 132.427 594.633 132.761C595.137 133.096 595.532 133.56 595.817 134.153C596.105 134.747 596.249 135.434 596.249 136.217C596.249 136.992 596.107 137.677 595.822 138.27C595.537 138.86 595.14 139.322 594.633 139.657C594.13 139.992 593.548 140.159 592.888 140.159ZM592.888 139.349C593.419 139.349 593.868 139.206 594.236 138.921C594.604 138.636 594.882 138.257 595.071 137.783C595.263 137.309 595.359 136.787 595.359 136.217C595.359 135.647 595.263 135.123 595.071 134.646C594.882 134.168 594.604 133.786 594.236 133.497C593.868 133.209 593.419 133.065 592.888 133.065C592.361 133.065 591.912 133.209 591.541 133.497C591.173 133.786 590.893 134.168 590.701 134.646C590.512 135.123 590.417 135.647 590.417 136.217C590.417 136.787 590.512 137.309 590.701 137.783C590.893 138.257 591.173 138.636 591.541 138.921C591.909 139.206 592.358 139.349 592.888 139.349ZM598.997 137.116L598.987 135.958H599.186L602.766 132.364H603.884L600.349 135.903L600.27 135.918L598.997 137.116ZM598.192 140V129.818H599.077V140H598.192ZM602.95 140L599.847 136.077L600.484 135.466L604.083 140H602.95ZM608.32 140.159C607.608 140.159 606.991 139.993 606.471 139.662C605.95 139.327 605.548 138.865 605.263 138.275C604.981 137.682 604.84 136.999 604.84 136.227C604.84 135.458 604.981 134.775 605.263 134.178C605.548 133.578 605.94 133.109 606.441 132.771C606.945 132.43 607.526 132.259 608.186 132.259C608.6 132.259 609 132.335 609.384 132.488C609.769 132.637 610.113 132.867 610.418 133.179C610.726 133.487 610.97 133.877 611.149 134.347C611.328 134.815 611.417 135.368 611.417 136.008V136.445H605.452V135.665H610.513C610.513 135.174 610.413 134.733 610.214 134.342C610.019 133.948 609.745 133.636 609.394 133.408C609.046 133.179 608.643 133.065 608.186 133.065C607.702 133.065 607.276 133.194 606.908 133.452C606.54 133.711 606.252 134.052 606.043 134.477C605.838 134.901 605.733 135.365 605.73 135.869V136.336C605.73 136.942 605.834 137.473 606.043 137.927C606.255 138.378 606.555 138.727 606.943 138.976C607.331 139.224 607.79 139.349 608.32 139.349C608.681 139.349 608.998 139.292 609.27 139.18C609.545 139.067 609.775 138.916 609.961 138.727C610.15 138.535 610.292 138.325 610.388 138.096L611.229 138.369C611.113 138.691 610.922 138.987 610.657 139.259C610.395 139.531 610.067 139.75 609.672 139.915C609.281 140.078 608.831 140.159 608.32 140.159ZM614.252 135.227V140H613.368V132.364H614.228V133.562H614.307C614.486 133.171 614.765 132.857 615.142 132.622C615.524 132.384 615.994 132.264 616.554 132.264C617.068 132.264 617.519 132.372 617.907 132.587C618.298 132.799 618.601 133.113 618.816 133.527C619.035 133.941 619.145 134.45 619.145 135.053V140H618.26V135.108C618.26 134.482 618.084 133.986 617.733 133.621C617.385 133.257 616.917 133.075 616.331 133.075C615.93 133.075 615.573 133.161 615.262 133.333C614.95 133.505 614.703 133.754 614.521 134.079C614.342 134.4 614.252 134.783 614.252 135.227ZM625.596 140V129.818H626.486V133.82H626.566C626.665 133.592 626.808 133.356 626.993 133.114C627.182 132.872 627.429 132.67 627.734 132.508C628.042 132.342 628.43 132.259 628.898 132.259C629.524 132.259 630.074 132.425 630.548 132.756C631.022 133.085 631.392 133.545 631.657 134.138C631.922 134.728 632.055 135.416 632.055 136.202C632.055 136.991 631.922 137.682 631.657 138.275C631.395 138.868 631.027 139.33 630.553 139.662C630.082 139.993 629.536 140.159 628.912 140.159C628.448 140.159 628.061 140.076 627.749 139.911C627.441 139.745 627.192 139.541 627.003 139.299C626.814 139.054 626.669 138.815 626.566 138.583H626.456V140H625.596ZM626.471 136.187C626.471 136.803 626.563 137.35 626.745 137.827C626.93 138.301 627.196 138.674 627.54 138.946C627.888 139.214 628.309 139.349 628.803 139.349C629.31 139.349 629.739 139.21 630.091 138.931C630.442 138.649 630.709 138.27 630.891 137.793C631.073 137.315 631.165 136.78 631.165 136.187C631.165 135.6 631.073 135.071 630.891 134.601C630.712 134.13 630.447 133.757 630.096 133.482C629.744 133.204 629.314 133.065 628.803 133.065C628.306 133.065 627.883 133.199 627.535 133.467C627.191 133.732 626.927 134.1 626.745 134.571C626.563 135.038 626.471 135.577 626.471 136.187ZM636.131 140.174C635.671 140.174 635.25 140.085 634.868 139.906C634.487 139.723 634.184 139.461 633.959 139.12C633.733 138.775 633.621 138.358 633.621 137.867C633.621 137.489 633.692 137.171 633.834 136.913C633.977 136.654 634.179 136.442 634.441 136.276C634.703 136.111 635.013 135.98 635.371 135.884C635.729 135.787 636.123 135.713 636.554 135.66C636.981 135.607 637.343 135.56 637.638 135.521C637.936 135.481 638.163 135.418 638.319 135.332C638.474 135.246 638.552 135.106 638.552 134.914V134.735C638.552 134.215 638.397 133.805 638.085 133.507C637.777 133.205 637.333 133.055 636.753 133.055C636.202 133.055 635.753 133.176 635.405 133.418C635.061 133.66 634.819 133.945 634.68 134.273L633.839 133.969C634.012 133.552 634.25 133.219 634.555 132.97C634.86 132.718 635.202 132.538 635.579 132.428C635.957 132.316 636.34 132.259 636.728 132.259C637.019 132.259 637.323 132.297 637.638 132.374C637.956 132.45 638.251 132.582 638.523 132.771C638.794 132.957 639.015 133.217 639.184 133.552C639.353 133.883 639.437 134.304 639.437 134.815V140H638.552V138.792H638.498C638.392 139.017 638.234 139.236 638.025 139.448C637.817 139.66 637.555 139.834 637.24 139.97C636.925 140.106 636.555 140.174 636.131 140.174ZM636.251 139.364C636.721 139.364 637.129 139.259 637.474 139.05C637.818 138.842 638.083 138.565 638.269 138.22C638.458 137.872 638.552 137.489 638.552 137.072V135.968C638.486 136.031 638.375 136.087 638.219 136.137C638.067 136.187 637.89 136.232 637.687 136.271C637.488 136.308 637.29 136.339 637.091 136.366C636.892 136.392 636.713 136.415 636.554 136.435C636.123 136.488 635.755 136.571 635.45 136.684C635.145 136.797 634.912 136.952 634.749 137.151C634.587 137.347 634.506 137.599 634.506 137.907C634.506 138.371 634.671 138.731 635.003 138.986C635.334 139.238 635.75 139.364 636.251 139.364ZM642.676 129.818V140H641.791V129.818H642.676ZM647.151 140.174C646.69 140.174 646.269 140.085 645.888 139.906C645.507 139.723 645.204 139.461 644.978 139.12C644.753 138.775 644.64 138.358 644.64 137.867C644.64 137.489 644.711 137.171 644.854 136.913C644.996 136.654 645.199 136.442 645.46 136.276C645.722 136.111 646.032 135.98 646.39 135.884C646.748 135.787 647.142 135.713 647.573 135.66C648.001 135.607 648.362 135.56 648.657 135.521C648.955 135.481 649.182 135.418 649.338 135.332C649.494 135.246 649.572 135.106 649.572 134.914V134.735C649.572 134.215 649.416 133.805 649.105 133.507C648.796 133.205 648.352 133.055 647.772 133.055C647.222 133.055 646.773 133.176 646.425 133.418C646.08 133.66 645.838 133.945 645.699 134.273L644.859 133.969C645.031 133.552 645.27 133.219 645.575 132.97C645.88 132.718 646.221 132.538 646.599 132.428C646.977 132.316 647.36 132.259 647.747 132.259C648.039 132.259 648.342 132.297 648.657 132.374C648.975 132.45 649.27 132.582 649.542 132.771C649.814 132.957 650.034 133.217 650.203 133.552C650.372 133.883 650.457 134.304 650.457 134.815V140H649.572V138.792H649.517C649.411 139.017 649.254 139.236 649.045 139.448C648.836 139.66 648.574 139.834 648.259 139.97C647.945 140.106 647.575 140.174 647.151 140.174ZM647.27 139.364C647.741 139.364 648.148 139.259 648.493 139.05C648.838 138.842 649.103 138.565 649.289 138.22C649.477 137.872 649.572 137.489 649.572 137.072V135.968C649.506 136.031 649.395 136.087 649.239 136.137C649.086 136.187 648.909 136.232 648.707 136.271C648.508 136.308 648.309 136.339 648.11 136.366C647.911 136.392 647.732 136.415 647.573 136.435C647.142 136.488 646.775 136.571 646.47 136.684C646.165 136.797 645.931 136.952 645.769 137.151C645.606 137.347 645.525 137.599 645.525 137.907C645.525 138.371 645.691 138.731 646.022 138.986C646.354 139.238 646.77 139.364 647.27 139.364ZM653.696 135.227V140H652.811V132.364H653.671V133.562H653.751C653.93 133.171 654.208 132.857 654.586 132.622C654.967 132.384 655.438 132.264 655.998 132.264C656.511 132.264 656.962 132.372 657.35 132.587C657.741 132.799 658.044 133.113 658.26 133.527C658.479 133.941 658.588 134.45 658.588 135.053V140H657.703V135.108C657.703 134.482 657.527 133.986 657.176 133.621C656.828 133.257 656.361 133.075 655.774 133.075C655.373 133.075 655.017 133.161 654.705 133.333C654.394 133.505 654.147 133.754 653.964 134.079C653.785 134.4 653.696 134.783 653.696 135.227ZM663.901 140.159C663.219 140.159 662.624 139.988 662.116 139.647C661.613 139.306 661.222 138.838 660.943 138.245C660.665 137.652 660.526 136.976 660.526 136.217C660.526 135.451 660.666 134.77 660.948 134.173C661.233 133.577 661.628 133.109 662.131 132.771C662.635 132.43 663.22 132.259 663.886 132.259C664.397 132.259 664.859 132.359 665.273 132.558C665.688 132.753 666.029 133.03 666.298 133.388C666.569 133.742 666.74 134.157 666.81 134.631H665.915C665.822 134.2 665.598 133.832 665.244 133.527C664.892 133.219 664.445 133.065 663.901 133.065C663.414 133.065 662.983 133.197 662.609 133.462C662.234 133.724 661.941 134.09 661.729 134.561C661.52 135.028 661.415 135.57 661.415 136.187C661.415 136.807 661.518 137.355 661.724 137.832C661.929 138.306 662.218 138.678 662.589 138.946C662.963 139.214 663.401 139.349 663.901 139.349C664.239 139.349 664.548 139.286 664.826 139.16C665.108 139.031 665.343 138.848 665.532 138.613C665.724 138.378 665.853 138.098 665.92 137.773H666.815C666.748 138.233 666.584 138.644 666.322 139.006C666.064 139.364 665.728 139.645 665.313 139.851C664.902 140.056 664.432 140.159 663.901 140.159ZM671.799 140.159C671.086 140.159 670.47 139.993 669.949 139.662C669.429 139.327 669.026 138.865 668.741 138.275C668.459 137.682 668.319 136.999 668.319 136.227C668.319 135.458 668.459 134.775 668.741 134.178C669.026 133.578 669.419 133.109 669.919 132.771C670.423 132.43 671.005 132.259 671.664 132.259C672.079 132.259 672.478 132.335 672.863 132.488C673.247 132.637 673.592 132.867 673.897 133.179C674.205 133.487 674.449 133.877 674.627 134.347C674.806 134.815 674.896 135.368 674.896 136.008V136.445H668.93V135.665H673.991C673.991 135.174 673.892 134.733 673.693 134.342C673.497 133.948 673.224 133.636 672.873 133.408C672.525 133.179 672.122 133.065 671.664 133.065C671.181 133.065 670.755 133.194 670.387 133.452C670.019 133.711 669.73 134.052 669.522 134.477C669.316 134.901 669.212 135.365 669.208 135.869V136.336C669.208 136.942 669.313 137.473 669.522 137.927C669.734 138.378 670.034 138.727 670.422 138.976C670.809 139.224 671.268 139.349 671.799 139.349C672.16 139.349 672.476 139.292 672.748 139.18C673.023 139.067 673.254 138.916 673.439 138.727C673.628 138.535 673.771 138.325 673.867 138.096L674.707 138.369C674.591 138.691 674.4 138.987 674.135 139.259C673.873 139.531 673.545 139.75 673.151 139.915C672.76 140.078 672.309 140.159 671.799 140.159ZM681.977 134.039L681.166 134.268C681.087 134.039 680.974 133.832 680.828 133.646C680.682 133.461 680.492 133.313 680.257 133.204C680.025 133.094 679.736 133.04 679.392 133.04C678.874 133.04 678.45 133.162 678.119 133.408C677.787 133.653 677.622 133.969 677.622 134.357C677.622 134.685 677.734 134.952 677.96 135.158C678.188 135.36 678.54 135.521 679.014 135.64L680.167 135.923C680.807 136.079 681.286 136.326 681.604 136.664C681.925 137.002 682.086 137.426 682.086 137.937C682.086 138.368 681.967 138.75 681.728 139.085C681.49 139.42 681.156 139.683 680.729 139.876C680.305 140.065 679.812 140.159 679.252 140.159C678.507 140.159 677.892 139.992 677.408 139.657C676.924 139.319 676.614 138.832 676.478 138.195L677.328 137.987C677.438 138.441 677.651 138.784 677.97 139.016C678.291 139.248 678.714 139.364 679.237 139.364C679.824 139.364 680.293 139.233 680.644 138.971C680.996 138.706 681.171 138.374 681.171 137.977C681.171 137.668 681.069 137.41 680.863 137.201C680.658 136.989 680.346 136.833 679.928 136.734L678.681 136.435C678.018 136.276 677.527 136.024 677.209 135.68C676.891 135.335 676.732 134.907 676.732 134.397C676.732 133.976 676.846 133.607 677.075 133.288C677.303 132.967 677.618 132.715 678.019 132.533C678.42 132.35 678.878 132.259 679.392 132.259C680.091 132.259 680.649 132.418 681.067 132.737C681.488 133.051 681.791 133.486 681.977 134.039Z" fill="#333333"/>
</svg>
